  0
SECTION
  2
HEADER
  9
$ANGBASE
  50
0.0
  9
$ANGDIR
  70
1
  9
$MEASUREMENT
  70
1
  0
ENDSEC
  0
SECTION
  2
TABLES
  0
TABLE
  2
LTYPE
  70
4
  0
LTYPE
  5
40F
  2
CONTINUOUS
  70
0
  3
Solid line
  72
65
  73
0
  40
0.0
  0
LTYPE
  5
410
  2
DASHDOT
 70
0
  3
Dash Dot ____ _ ____ _
 72
65
 73
4
 40
2.0
 49
1.25
 49
-0.25
 49
0.25
 49
-0.25
  0
LTYPE
  5
411
  2
DASHED
 70
0
  3
Dashed __ __ __ __ __
 72
65
 73
2
 40
0.75
 49
0.5
 49
-0.25
  0
LTYPE
  5
43B
  2
DOTTED
 70
0
  3
Dotted .  .  .  .
 72
65
 73
2
 40
0.2
 49
0.0
 49
-0.2
  0
ENDTAB
  0
TABLE
  2
STYLE
  70
4
  0
STYLE
  2
KICAD
  70
0
  40
0
  41
1
  42
1
  50
0
  71
0
  3
isocp.shx
  0
STYLE
  2
KICADB
  70
0
  40
0
  41
1
  42
1
  50
0
  71
0
  3
isocp.shx
  0
STYLE
  2
KICADI
  70
0
  40
0
  41
1
  42
1
  50
15
  71
0
  3
isocp.shx
  0
STYLE
  2
KICADBI
  70
0
  40
0
  41
1
  42
1
  50
15
  71
0
  3
isocp.shx
  0
ENDTAB
  0
TABLE
  2
LAYER
  70
1
  0
LAYER
  2
BLACK
  70
0
  62
7
  6
CONTINUOUS
  0
ENDTAB
  0
ENDSEC
  0
SECTION
  2
ENTITIES
0
LINE
8
BLACK
6
CONTINUOUS
10
163.89
20
-67.0707
11
163.899
21
-67.0736
0
LINE
8
BLACK
6
CONTINUOUS
10
163.899
20
-67.0736
11
163.908
21
-67.0782
0
LINE
8
BLACK
6
CONTINUOUS
10
163.908
20
-67.0782
11
163.916
21
-67.0845
0
LINE
8
BLACK
6
CONTINUOUS
10
163.916
20
-67.0845
11
163.922
21
-67.0921
0
LINE
8
BLACK
6
CONTINUOUS
10
163.922
20
-67.0921
11
163.926
21
-67.1008
0
LINE
8
BLACK
6
CONTINUOUS
10
163.926
20
-67.1008
11
163.929
21
-67.1102
0
LINE
8
BLACK
6
CONTINUOUS
10
163.929
20
-67.1102
11
163.93
21
-67.1176
0
LINE
8
BLACK
6
CONTINUOUS
10
163.93
20
-67.1176
11
163.93
21
-68.5224
0
LINE
8
BLACK
6
CONTINUOUS
10
163.93
20
-68.5224
11
163.929
21
-68.5298
0
LINE
8
BLACK
6
CONTINUOUS
10
163.929
20
-68.5298
11
163.926
21
-68.5392
0
LINE
8
BLACK
6
CONTINUOUS
10
163.926
20
-68.5392
11
163.922
21
-68.5479
0
LINE
8
BLACK
6
CONTINUOUS
10
163.922
20
-68.5479
11
163.916
21
-68.5555
0
LINE
8
BLACK
6
CONTINUOUS
10
163.916
20
-68.5555
11
163.908
21
-68.5618
0
LINE
8
BLACK
6
CONTINUOUS
10
163.908
20
-68.5618
11
163.899
21
-68.5664
0
LINE
8
BLACK
6
CONTINUOUS
10
163.899
20
-68.5664
11
163.89
21
-68.5693
0
LINE
8
BLACK
6
CONTINUOUS
10
163.89
20
-68.5693
11
163.88
21
-68.5702
0
LINE
8
BLACK
6
CONTINUOUS
10
163.88
20
-68.5702
11
163.87
21
-68.5693
0
LINE
8
BLACK
6
CONTINUOUS
10
163.87
20
-68.5693
11
163.861
21
-68.5664
0
LINE
8
BLACK
6
CONTINUOUS
10
163.861
20
-68.5664
11
163.852
21
-68.5618
0
LINE
8
BLACK
6
CONTINUOUS
10
163.852
20
-68.5618
11
163.844
21
-68.5555
0
LINE
8
BLACK
6
CONTINUOUS
10
163.844
20
-68.5555
11
163.838
21
-68.5479
0
LINE
8
BLACK
6
CONTINUOUS
10
163.838
20
-68.5479
11
163.834
21
-68.5392
0
LINE
8
BLACK
6
CONTINUOUS
10
163.834
20
-68.5392
11
163.831
21
-68.5298
0
LINE
8
BLACK
6
CONTINUOUS
10
163.831
20
-68.5298
11
163.83
21
-68.5224
0
LINE
8
BLACK
6
CONTINUOUS
10
163.83
20
-68.5224
11
163.83
21
-67.1176
0
LINE
8
BLACK
6
CONTINUOUS
10
163.83
20
-67.1176
11
163.831
21
-67.1102
0
LINE
8
BLACK
6
CONTINUOUS
10
163.831
20
-67.1102
11
163.834
21
-67.1008
0
LINE
8
BLACK
6
CONTINUOUS
10
163.834
20
-67.1008
11
163.838
21
-67.0921
0
LINE
8
BLACK
6
CONTINUOUS
10
163.838
20
-67.0921
11
163.844
21
-67.0845
0
LINE
8
BLACK
6
CONTINUOUS
10
163.844
20
-67.0845
11
163.852
21
-67.0782
0
LINE
8
BLACK
6
CONTINUOUS
10
163.852
20
-67.0782
11
163.861
21
-67.0736
0
LINE
8
BLACK
6
CONTINUOUS
10
163.861
20
-67.0736
11
163.87
21
-67.0707
0
LINE
8
BLACK
6
CONTINUOUS
10
163.87
20
-67.0707
11
163.88
21
-67.0698
0
LINE
8
BLACK
6
CONTINUOUS
10
163.88
20
-67.0698
11
163.89
21
-67.0707
0
LINE
8
BLACK
6
CONTINUOUS
10
166.43
20
-67.0707
11
166.439
21
-67.0736
0
LINE
8
BLACK
6
CONTINUOUS
10
166.439
20
-67.0736
11
166.448
21
-67.0782
0
LINE
8
BLACK
6
CONTINUOUS
10
166.448
20
-67.0782
11
166.456
21
-67.0845
0
LINE
8
BLACK
6
CONTINUOUS
10
166.456
20
-67.0845
11
166.462
21
-67.0921
0
LINE
8
BLACK
6
CONTINUOUS
10
166.462
20
-67.0921
11
166.466
21
-67.1008
0
LINE
8
BLACK
6
CONTINUOUS
10
166.466
20
-67.1008
11
166.469
21
-67.1102
0
LINE
8
BLACK
6
CONTINUOUS
10
166.469
20
-67.1102
11
166.47
21
-67.1176
0
LINE
8
BLACK
6
CONTINUOUS
10
166.47
20
-67.1176
11
166.47
21
-68.5224
0
LINE
8
BLACK
6
CONTINUOUS
10
166.47
20
-68.5224
11
166.469
21
-68.5298
0
LINE
8
BLACK
6
CONTINUOUS
10
166.469
20
-68.5298
11
166.466
21
-68.5392
0
LINE
8
BLACK
6
CONTINUOUS
10
166.466
20
-68.5392
11
166.462
21
-68.5479
0
LINE
8
BLACK
6
CONTINUOUS
10
166.462
20
-68.5479
11
166.456
21
-68.5555
0
LINE
8
BLACK
6
CONTINUOUS
10
166.456
20
-68.5555
11
166.448
21
-68.5618
0
LINE
8
BLACK
6
CONTINUOUS
10
166.448
20
-68.5618
11
166.439
21
-68.5664
0
LINE
8
BLACK
6
CONTINUOUS
10
166.439
20
-68.5664
11
166.43
21
-68.5693
0
LINE
8
BLACK
6
CONTINUOUS
10
166.43
20
-68.5693
11
166.42
21
-68.5702
0
LINE
8
BLACK
6
CONTINUOUS
10
166.42
20
-68.5702
11
166.41
21
-68.5693
0
LINE
8
BLACK
6
CONTINUOUS
10
166.41
20
-68.5693
11
166.401
21
-68.5664
0
LINE
8
BLACK
6
CONTINUOUS
10
166.401
20
-68.5664
11
166.392
21
-68.5618
0
LINE
8
BLACK
6
CONTINUOUS
10
166.392
20
-68.5618
11
166.384
21
-68.5555
0
LINE
8
BLACK
6
CONTINUOUS
10
166.384
20
-68.5555
11
166.378
21
-68.5479
0
LINE
8
BLACK
6
CONTINUOUS
10
166.378
20
-68.5479
11
166.374
21
-68.5392
0
LINE
8
BLACK
6
CONTINUOUS
10
166.374
20
-68.5392
11
166.371
21
-68.5298
0
LINE
8
BLACK
6
CONTINUOUS
10
166.371
20
-68.5298
11
166.37
21
-68.5224
0
LINE
8
BLACK
6
CONTINUOUS
10
166.37
20
-68.5224
11
166.37
21
-67.1176
0
LINE
8
BLACK
6
CONTINUOUS
10
166.37
20
-67.1176
11
166.371
21
-67.1102
0
LINE
8
BLACK
6
CONTINUOUS
10
166.371
20
-67.1102
11
166.374
21
-67.1008
0
LINE
8
BLACK
6
CONTINUOUS
10
166.374
20
-67.1008
11
166.378
21
-67.0921
0
LINE
8
BLACK
6
CONTINUOUS
10
166.378
20
-67.0921
11
166.384
21
-67.0845
0
LINE
8
BLACK
6
CONTINUOUS
10
166.384
20
-67.0845
11
166.392
21
-67.0782
0
LINE
8
BLACK
6
CONTINUOUS
10
166.392
20
-67.0782
11
166.401
21
-67.0736
0
LINE
8
BLACK
6
CONTINUOUS
10
166.401
20
-67.0736
11
166.41
21
-67.0707
0
LINE
8
BLACK
6
CONTINUOUS
10
166.41
20
-67.0707
11
166.42
21
-67.0698
0
LINE
8
BLACK
6
CONTINUOUS
10
166.42
20
-67.0698
11
166.43
21
-67.0707
0
LINE
8
BLACK
6
CONTINUOUS
10
168.97
20
-67.0707
11
168.979
21
-67.0736
0
LINE
8
BLACK
6
CONTINUOUS
10
168.979
20
-67.0736
11
168.988
21
-67.0782
0
LINE
8
BLACK
6
CONTINUOUS
10
168.988
20
-67.0782
11
168.996
21
-67.0845
0
LINE
8
BLACK
6
CONTINUOUS
10
168.996
20
-67.0845
11
169.002
21
-67.0921
0
LINE
8
BLACK
6
CONTINUOUS
10
169.002
20
-67.0921
11
169.006
21
-67.1008
0
LINE
8
BLACK
6
CONTINUOUS
10
169.006
20
-67.1008
11
169.009
21
-67.1102
0
LINE
8
BLACK
6
CONTINUOUS
10
169.009
20
-67.1102
11
169.01
21
-67.1176
0
LINE
8
BLACK
6
CONTINUOUS
10
169.01
20
-67.1176
11
169.01
21
-68.5224
0
LINE
8
BLACK
6
CONTINUOUS
10
169.01
20
-68.5224
11
169.009
21
-68.5298
0
LINE
8
BLACK
6
CONTINUOUS
10
169.009
20
-68.5298
11
169.006
21
-68.5392
0
LINE
8
BLACK
6
CONTINUOUS
10
169.006
20
-68.5392
11
169.002
21
-68.5479
0
LINE
8
BLACK
6
CONTINUOUS
10
169.002
20
-68.5479
11
168.996
21
-68.5555
0
LINE
8
BLACK
6
CONTINUOUS
10
168.996
20
-68.5555
11
168.988
21
-68.5618
0
LINE
8
BLACK
6
CONTINUOUS
10
168.988
20
-68.5618
11
168.979
21
-68.5664
0
LINE
8
BLACK
6
CONTINUOUS
10
168.979
20
-68.5664
11
168.97
21
-68.5693
0
LINE
8
BLACK
6
CONTINUOUS
10
168.97
20
-68.5693
11
168.96
21
-68.5702
0
LINE
8
BLACK
6
CONTINUOUS
10
168.96
20
-68.5702
11
168.95
21
-68.5693
0
LINE
8
BLACK
6
CONTINUOUS
10
168.95
20
-68.5693
11
168.941
21
-68.5664
0
LINE
8
BLACK
6
CONTINUOUS
10
168.941
20
-68.5664
11
168.932
21
-68.5618
0
LINE
8
BLACK
6
CONTINUOUS
10
168.932
20
-68.5618
11
168.924
21
-68.5555
0
LINE
8
BLACK
6
CONTINUOUS
10
168.924
20
-68.5555
11
168.918
21
-68.5479
0
LINE
8
BLACK
6
CONTINUOUS
10
168.918
20
-68.5479
11
168.914
21
-68.5392
0
LINE
8
BLACK
6
CONTINUOUS
10
168.914
20
-68.5392
11
168.911
21
-68.5298
0
LINE
8
BLACK
6
CONTINUOUS
10
168.911
20
-68.5298
11
168.91
21
-68.5224
0
LINE
8
BLACK
6
CONTINUOUS
10
168.91
20
-68.5224
11
168.91
21
-67.1176
0
LINE
8
BLACK
6
CONTINUOUS
10
168.91
20
-67.1176
11
168.911
21
-67.1102
0
LINE
8
BLACK
6
CONTINUOUS
10
168.911
20
-67.1102
11
168.914
21
-67.1008
0
LINE
8
BLACK
6
CONTINUOUS
10
168.914
20
-67.1008
11
168.918
21
-67.0921
0
LINE
8
BLACK
6
CONTINUOUS
10
168.918
20
-67.0921
11
168.924
21
-67.0845
0
LINE
8
BLACK
6
CONTINUOUS
10
168.924
20
-67.0845
11
168.932
21
-67.0782
0
LINE
8
BLACK
6
CONTINUOUS
10
168.932
20
-67.0782
11
168.941
21
-67.0736
0
LINE
8
BLACK
6
CONTINUOUS
10
168.941
20
-67.0736
11
168.95
21
-67.0707
0
LINE
8
BLACK
6
CONTINUOUS
10
168.95
20
-67.0707
11
168.96
21
-67.0698
0
LINE
8
BLACK
6
CONTINUOUS
10
168.96
20
-67.0698
11
168.97
21
-67.0707
0
LINE
8
BLACK
6
CONTINUOUS
10
171.51
20
-67.0707
11
171.519
21
-67.0736
0
LINE
8
BLACK
6
CONTINUOUS
10
171.519
20
-67.0736
11
171.528
21
-67.0782
0
LINE
8
BLACK
6
CONTINUOUS
10
171.528
20
-67.0782
11
171.536
21
-67.0845
0
LINE
8
BLACK
6
CONTINUOUS
10
171.536
20
-67.0845
11
171.542
21
-67.0921
0
LINE
8
BLACK
6
CONTINUOUS
10
171.542
20
-67.0921
11
171.546
21
-67.1008
0
LINE
8
BLACK
6
CONTINUOUS
10
171.546
20
-67.1008
11
171.549
21
-67.1102
0
LINE
8
BLACK
6
CONTINUOUS
10
171.549
20
-67.1102
11
171.55
21
-67.1176
0
LINE
8
BLACK
6
CONTINUOUS
10
171.55
20
-67.1176
11
171.55
21
-68.5224
0
LINE
8
BLACK
6
CONTINUOUS
10
171.55
20
-68.5224
11
171.549
21
-68.5298
0
LINE
8
BLACK
6
CONTINUOUS
10
171.549
20
-68.5298
11
171.546
21
-68.5392
0
LINE
8
BLACK
6
CONTINUOUS
10
171.546
20
-68.5392
11
171.542
21
-68.5479
0
LINE
8
BLACK
6
CONTINUOUS
10
171.542
20
-68.5479
11
171.536
21
-68.5555
0
LINE
8
BLACK
6
CONTINUOUS
10
171.536
20
-68.5555
11
171.528
21
-68.5618
0
LINE
8
BLACK
6
CONTINUOUS
10
171.528
20
-68.5618
11
171.519
21
-68.5664
0
LINE
8
BLACK
6
CONTINUOUS
10
171.519
20
-68.5664
11
171.51
21
-68.5693
0
LINE
8
BLACK
6
CONTINUOUS
10
171.51
20
-68.5693
11
171.5
21
-68.5702
0
LINE
8
BLACK
6
CONTINUOUS
10
171.5
20
-68.5702
11
171.49
21
-68.5693
0
LINE
8
BLACK
6
CONTINUOUS
10
171.49
20
-68.5693
11
171.481
21
-68.5664
0
LINE
8
BLACK
6
CONTINUOUS
10
171.481
20
-68.5664
11
171.472
21
-68.5618
0
LINE
8
BLACK
6
CONTINUOUS
10
171.472
20
-68.5618
11
171.464
21
-68.5555
0
LINE
8
BLACK
6
CONTINUOUS
10
171.464
20
-68.5555
11
171.458
21
-68.5479
0
LINE
8
BLACK
6
CONTINUOUS
10
171.458
20
-68.5479
11
171.454
21
-68.5392
0
LINE
8
BLACK
6
CONTINUOUS
10
171.454
20
-68.5392
11
171.451
21
-68.5298
0
LINE
8
BLACK
6
CONTINUOUS
10
171.451
20
-68.5298
11
171.45
21
-68.5224
0
LINE
8
BLACK
6
CONTINUOUS
10
171.45
20
-68.5224
11
171.45
21
-67.1176
0
LINE
8
BLACK
6
CONTINUOUS
10
171.45
20
-67.1176
11
171.451
21
-67.1102
0
LINE
8
BLACK
6
CONTINUOUS
10
171.451
20
-67.1102
11
171.454
21
-67.1008
0
LINE
8
BLACK
6
CONTINUOUS
10
171.454
20
-67.1008
11
171.458
21
-67.0921
0
LINE
8
BLACK
6
CONTINUOUS
10
171.458
20
-67.0921
11
171.464
21
-67.0845
0
LINE
8
BLACK
6
CONTINUOUS
10
171.464
20
-67.0845
11
171.472
21
-67.0782
0
LINE
8
BLACK
6
CONTINUOUS
10
171.472
20
-67.0782
11
171.481
21
-67.0736
0
LINE
8
BLACK
6
CONTINUOUS
10
171.481
20
-67.0736
11
171.49
21
-67.0707
0
LINE
8
BLACK
6
CONTINUOUS
10
171.49
20
-67.0707
11
171.5
21
-67.0698
0
LINE
8
BLACK
6
CONTINUOUS
10
171.5
20
-67.0698
11
171.51
21
-67.0707
  0
ENDSEC
  0
EOF
