  0
SECTION
  2
HEADER
  9
$ANGBASE
  50
0.0
  9
$ANGDIR
  70
1
  9
$MEASUREMENT
  70
1
  0
ENDSEC
  0
SECTION
  2
TABLES
  0
TABLE
  2
LTYPE
  70
4
  0
LTYPE
  5
40F
  2
CONTINUOUS
  70
0
  3
Solid line
  72
65
  73
0
  40
0.0
  0
LTYPE
  5
410
  2
DASHDOT
 70
0
  3
Dash Dot ____ _ ____ _
 72
65
 73
4
 40
2.0
 49
1.25
 49
-0.25
 49
0.25
 49
-0.25
  0
LTYPE
  5
411
  2
DASHED
 70
0
  3
Dashed __ __ __ __ __
 72
65
 73
2
 40
0.75
 49
0.5
 49
-0.25
  0
LTYPE
  5
43B
  2
DOTTED
 70
0
  3
Dotted .  .  .  .
 72
65
 73
2
 40
0.2
 49
0.0
 49
-0.2
  0
ENDTAB
  0
TABLE
  2
STYLE
  70
4
  0
STYLE
  2
KICAD
  70
0
  40
0
  41
1
  42
1
  50
0
  71
0
  3
isocp.shx
  0
STYLE
  2
KICADB
  70
0
  40
0
  41
1
  42
1
  50
0
  71
0
  3
isocp.shx
  0
STYLE
  2
KICADI
  70
0
  40
0
  41
1
  42
1
  50
15
  71
0
  3
isocp.shx
  0
STYLE
  2
KICADBI
  70
0
  40
0
  41
1
  42
1
  50
15
  71
0
  3
isocp.shx
  0
ENDTAB
  0
TABLE
  2
LAYER
  70
1
  0
LAYER
  2
BLACK
  70
0
  62
7
  6
CONTINUOUS
  0
ENDTAB
  0
ENDSEC
  0
SECTION
  2
ENTITIES
0
LINE
8
BLACK
6
CONTINUOUS
10
145.86
20
-98.26
11
145.86
21
-66.2
0
LINE
8
BLACK
6
CONTINUOUS
10
145.86
20
-66.2
11
126.62
21
-66.2
0
LINE
8
BLACK
6
CONTINUOUS
10
126.62
20
-66.2
11
126.62
21
-98.26
0
LINE
8
BLACK
6
CONTINUOUS
10
126.62
20
-98.26
11
145.86
21
-98.26
0
LINE
8
BLACK
6
CONTINUOUS
10
97.1189
20
-66.8252
11
97.0986
21
-66.8575
0
LINE
8
BLACK
6
CONTINUOUS
10
97.0988
20
-67.6103
11
97.1255
21
-67.6258
0
LINE
8
BLACK
6
CONTINUOUS
10
97.0889
20
-66.8174
11
97.1189
21
-66.8252
0
LINE
8
BLACK
6
CONTINUOUS
10
97.0986
20
-66.7866
11
97.0889
21
-66.8174
0
LINE
8
BLACK
6
CONTINUOUS
10
97.0889
20
-66.8174
11
97.0678
21
-66.7907
0
LINE
8
BLACK
6
CONTINUOUS
10
97.7485
20
-65.9517
11
97.1237
21
-65.9517
0
LINE
8
BLACK
6
CONTINUOUS
10
97.1237
20
-65.9517
11
97.1237
21
-66.1808
0
LINE
8
BLACK
6
CONTINUOUS
10
97.9487
20
-66.6589
11
97.9218
21
-66.3906
0
LINE
8
BLACK
6
CONTINUOUS
10
97.7485
20
-66.8567
11
97.7569
21
-66.8156
0
LINE
8
BLACK
6
CONTINUOUS
10
97.0384
20
-66.7742
11
97.065
21
-66.7587
0
LINE
8
BLACK
6
CONTINUOUS
10
97.9484
20
-66.4061
11
97.9487
21
-66.6589
0
LINE
8
BLACK
6
CONTINUOUS
10
100.414
20
-69.8288
11
100.414
21
-70.1496
0
LINE
8
BLACK
6
CONTINUOUS
10
97.695
20
-67.6888
11
97.7249
21
-67.7008
0
LINE
8
BLACK
6
CONTINUOUS
10
97.7231
20
-67.6698
11
97.7554
21
-67.6695
0
LINE
8
BLACK
6
CONTINUOUS
10
97.8164
20
-66.7541
11
97.8461
21
-66.746
0
LINE
8
BLACK
6
CONTINUOUS
10
97.0678
20
-66.7907
11
97.0384
21
-66.7742
0
LINE
8
BLACK
6
CONTINUOUS
10
100.394
20
-70.1664
11
100.365
21
-70.1697
0
LINE
8
BLACK
6
CONTINUOUS
10
97.7485
20
-66.2687
11
97.1237
21
-66.2687
0
LINE
8
BLACK
6
CONTINUOUS
10
97.1237
20
-66.3076
11
97.0356
21
-66.3208
0
LINE
8
BLACK
6
CONTINUOUS
10
97.0986
20
-66.8575
11
97.0889
21
-66.8174
0
LINE
8
BLACK
6
CONTINUOUS
10
97.9086
20
-66.3594
11
97.8844
21
-66.3355
0
LINE
8
BLACK
6
CONTINUOUS
10
97.0678
20
-66.7907
11
97.0986
21
-66.7866
0
LINE
8
BLACK
6
CONTINUOUS
10
97.7737
20
-66.1676
11
97.7737
21
-66.2555
0
LINE
8
BLACK
6
CONTINUOUS
10
97.1387
20
-67.6571
11
97.1328
21
-67.6888
0
LINE
8
BLACK
6
CONTINUOUS
10
97.0384
20
-66.7742
11
97.014
21
-66.7666
0
LINE
8
BLACK
6
CONTINUOUS
10
97.0986
20
-66.2568
11
97.0986
21
-66.1689
0
LINE
8
BLACK
6
CONTINUOUS
10
97.8778
20
-66.3038
11
97.8844
21
-66.3355
0
LINE
8
BLACK
6
CONTINUOUS
10
97.8844
20
-66.3355
11
97.9144
21
-66.3276
0
LINE
8
BLACK
6
CONTINUOUS
10
100.365
20
-70.1697
11
100.32
21
-70.1717
0
LINE
8
BLACK
6
CONTINUOUS
10
97.8164
20
-66.7541
11
97.8123
21
-66.7848
0
LINE
8
BLACK
6
CONTINUOUS
10
100.32
20
-70.1717
11
100.301
21
-70.1958
0
LINE
8
BLACK
6
CONTINUOUS
10
97.6612
20
-67.6957
11
97.685
21
-67.718
0
LINE
8
BLACK
6
CONTINUOUS
10
97.7485
20
-66.2687
11
97.7485
21
-66.1808
0
LINE
8
BLACK
6
CONTINUOUS
10
97.7419
20
-67.6416
11
97.7717
21
-67.6291
0
LINE
8
BLACK
6
CONTINUOUS
10
97.7569
20
-66.8156
11
97.7805
21
-66.779
0
LINE
8
BLACK
6
CONTINUOUS
10
97.7805
20
-66.779
11
97.7884
21
-66.809
0
LINE
8
BLACK
6
CONTINUOUS
10
97.7717
20
-67.6291
11
97.7485
21
-67.6076
0
LINE
8
BLACK
6
CONTINUOUS
10
97.8532
20
-66.3226
11
97.7618
21
-66.3208
0
LINE
8
BLACK
6
CONTINUOUS
10
97.0986
20
-65.9398
11
97.7605
21
-65.9268
0
LINE
8
BLACK
6
CONTINUOUS
10
97.2106
20
-67.7208
11
97.6612
21
-67.6957
0
LINE
8
BLACK
6
CONTINUOUS
10
97.7485
20
-66.1808
11
97.7485
21
-65.9517
0
LINE
8
BLACK
6
CONTINUOUS
10
97.9218
20
-66.3906
11
97.9086
21
-66.3594
0
LINE
8
BLACK
6
CONTINUOUS
10
97.9144
20
-66.3276
11
97.9086
21
-66.3594
0
LINE
8
BLACK
6
CONTINUOUS
10
97.1255
20
-67.6258
11
97.108
21
-67.653
0
LINE
8
BLACK
6
CONTINUOUS
10
97.9393
20
-66.3635
11
97.9218
21
-66.3906
0
LINE
8
BLACK
6
CONTINUOUS
10
97.7485
20
-66.8567
11
97.7717
21
-67.6291
0
LINE
8
BLACK
6
CONTINUOUS
10
97.0356
20
-66.3208
11
97.0986
21
-66.2956
0
LINE
8
BLACK
6
CONTINUOUS
10
97.7737
20
-66.2956
11
97.8367
21
-66.2956
0
LINE
8
BLACK
6
CONTINUOUS
10
97.7605
20
-65.9268
11
97.7737
21
-66.1676
0
LINE
8
BLACK
6
CONTINUOUS
10
97.8123
20
-66.7848
11
97.7805
21
-66.779
0
LINE
8
BLACK
6
CONTINUOUS
10
97.7249
20
-67.7008
11
97.7231
21
-67.6698
0
LINE
8
BLACK
6
CONTINUOUS
10
97.7737
20
-66.2555
11
97.7737
21
-66.2956
0
LINE
8
BLACK
6
CONTINUOUS
10
97.1694
20
-67.7127
11
97.1941
21
-67.6939
0
LINE
8
BLACK
6
CONTINUOUS
10
97.7755
20
-66.8402
11
97.7485
21
-66.8567
0
LINE
8
BLACK
6
CONTINUOUS
10
97.7805
20
-66.779
11
97.8164
21
-66.7541
0
LINE
8
BLACK
6
CONTINUOUS
10
97.0986
20
-66.2956
11
97.0986
21
-66.2568
0
LINE
8
BLACK
6
CONTINUOUS
10
97.7554
20
-67.6695
11
97.7419
21
-67.6416
0
LINE
8
BLACK
6
CONTINUOUS
10
100.414
20
-70.1496
11
100.394
21
-70.1664
0
LINE
8
BLACK
6
CONTINUOUS
10
97.9218
20
-66.3906
11
97.9484
21
-66.4061
0
LINE
8
BLACK
6
CONTINUOUS
10
97.0986
20
-66.1689
11
97.0986
21
-65.9398
0
LINE
8
BLACK
6
CONTINUOUS
10
97.1237
20
-66.1808
11
97.1237
21
-66.2687
0
LINE
8
BLACK
6
CONTINUOUS
10
97.108
20
-67.653
11
97.1387
21
-67.6571
0
LINE
8
BLACK
6
CONTINUOUS
10
97.065
20
-66.7587
11
97.0678
21
-66.7907
0
LINE
8
BLACK
6
CONTINUOUS
10
97.8461
20
-66.746
11
97.844
21
-66.7716
0
LINE
8
BLACK
6
CONTINUOUS
10
97.7884
20
-66.809
11
97.7569
21
-66.8156
0
LINE
8
BLACK
6
CONTINUOUS
10
97.844
20
-66.7716
11
97.8164
21
-66.7541
0
LINE
8
BLACK
6
CONTINUOUS
10
97.7618
20
-66.3208
11
97.7485
21
-66.2687
0
LINE
8
BLACK
6
CONTINUOUS
10
97.9086
20
-66.3594
11
97.9393
21
-66.3635
0
LINE
8
BLACK
6
CONTINUOUS
10
97.1328
20
-67.6888
11
97.1628
21
-67.681
0
LINE
8
BLACK
6
CONTINUOUS
10
100.394
20
-70.1664
11
100.389
21
-69.8158
0
LINE
8
BLACK
6
CONTINUOUS
10
100.264
20
-70.1737
11
99.9256
21
-70.1958
0
LINE
8
BLACK
6
CONTINUOUS
10
97.1237
20
-66.2687
11
97.1237
21
-66.3076
0
LINE
8
BLACK
6
CONTINUOUS
10
100.378
20
-69.6604
11
100.397
21
-69.697
0
LINE
8
BLACK
6
CONTINUOUS
10
99.1887
20
-70.1526
11
99.1887
21
-69.8288
0
LINE
8
BLACK
6
CONTINUOUS
10
97.8367
20
-66.2956
11
97.8778
21
-66.3038
0
LINE
8
BLACK
6
CONTINUOUS
10
99.1887
20
-69.8288
11
99.1887
21
-69.7777
0
LINE
8
BLACK
6
CONTINUOUS
10
101.863
20
-67.6888
11
101.838
21
-67.653
0
LINE
8
BLACK
6
CONTINUOUS
10
101.829
20
-67.6103
11
101.829
21
-66.8575
0
LINE
8
BLACK
6
CONTINUOUS
10
101.795
20
-66.7587
11
101.798
21
-66.7907
0
LINE
8
BLACK
6
CONTINUOUS
10
99.3396
20
-70.1737
11
99.3104
21
-70.1727
0
LINE
8
BLACK
6
CONTINUOUS
10
100.349
20
-69.6266
11
100.378
21
-69.6604
0
LINE
8
BLACK
6
CONTINUOUS
10
99.2388
20
-70.1697
11
99.2108
21
-70.1669
0
LINE
8
BLACK
6
CONTINUOUS
10
102.485
20
-67.6695
11
102.455
21
-67.7008
0
LINE
8
BLACK
6
CONTINUOUS
10
99.2388
20
-70.1697
11
99.2606
21
-70.1458
0
LINE
8
BLACK
6
CONTINUOUS
10
101.941
20
-67.7208
11
101.899
21
-67.7127
0
LINE
8
BLACK
6
CONTINUOUS
10
100.414
20
-69.777
11
100.414
21
-69.8288
0
LINE
8
BLACK
6
CONTINUOUS
10
99.224
20
-69.6619
11
99.2471
21
-69.6332
0
LINE
8
BLACK
6
CONTINUOUS
10
101.829
20
-66.8575
11
101.819
21
-66.8174
0
LINE
8
BLACK
6
CONTINUOUS
10
99.2832
20
-70.1717
11
99.2388
21
-70.1697
0
LINE
8
BLACK
6
CONTINUOUS
10
102.455
20
-67.7008
11
102.415
21
-67.718
0
LINE
8
BLACK
6
CONTINUOUS
10
99.193
20
-69.7384
11
99.2047
21
-69.6987
0
LINE
8
BLACK
6
CONTINUOUS
10
100.202
20
-69.5656
11
100.241
21
-69.5702
0
LINE
8
BLACK
6
CONTINUOUS
10
101.768
20
-66.7742
11
101.744
21
-66.7666
0
LINE
8
BLACK
6
CONTINUOUS
10
101.768
20
-66.7742
11
101.795
21
-66.7587
0
LINE
8
BLACK
6
CONTINUOUS
10
101.798
20
-66.7907
11
101.829
21
-66.7866
0
LINE
8
BLACK
6
CONTINUOUS
10
97.685
20
-67.718
11
97.695
21
-67.6888
0
LINE
8
BLACK
6
CONTINUOUS
10
100.378
20
-69.6604
11
100.336
21
-69.6487
0
LINE
8
BLACK
6
CONTINUOUS
10
100.264
20
-70.1737
11
100.292
21
-70.1478
0
LINE
8
BLACK
6
CONTINUOUS
10
101.899
20
-67.7127
11
101.863
21
-67.6888
0
LINE
8
BLACK
6
CONTINUOUS
10
100.281
20
-69.5819
11
100.317
21
-69.6012
0
LINE
8
BLACK
6
CONTINUOUS
10
99.3978
20
-69.5659
11
100.202
21
-69.5656
0
LINE
8
BLACK
6
CONTINUOUS
10
99.3564
20
-69.5705
11
99.3978
21
-69.5659
0
LINE
8
BLACK
6
CONTINUOUS
10
99.2807
20
-69.6032
11
99.317
21
-69.5832
0
LINE
8
BLACK
6
CONTINUOUS
10
100.365
20
-70.1697
11
100.377
21
-70.143
0
LINE
8
BLACK
6
CONTINUOUS
10
99.2141
20
-69.7795
11
99.1887
21
-69.7777
0
LINE
8
BLACK
6
CONTINUOUS
10
99.317
20
-69.5832
11
99.3564
21
-69.5705
0
LINE
8
BLACK
6
CONTINUOUS
10
100.2
20
-69.5913
11
99.3978
21
-69.5659
0
LINE
8
BLACK
6
CONTINUOUS
10
97.8844
20
-66.3355
11
97.8532
21
-66.3226
0
LINE
8
BLACK
6
CONTINUOUS
10
100.317
20
-69.6012
11
100.349
21
-69.6266
0
LINE
8
BLACK
6
CONTINUOUS
10
100.241
20
-69.5702
11
100.2
21
-69.5913
0
LINE
8
BLACK
6
CONTINUOUS
10
99.2606
20
-70.1458
11
99.2832
21
-70.1717
0
LINE
8
BLACK
6
CONTINUOUS
10
100.32
20
-70.1717
11
100.342
21
-70.1458
0
LINE
8
BLACK
6
CONTINUOUS
10
100.389
20
-69.8158
11
100.414
21
-69.777
0
LINE
8
BLACK
6
CONTINUOUS
10
97.7569
20
-66.8156
11
97.7755
21
-66.8402
0
LINE
8
BLACK
6
CONTINUOUS
10
97.7485
20
-66.1808
11
97.1237
21
-66.1808
0
LINE
8
BLACK
6
CONTINUOUS
10
97.1628
20
-67.681
11
97.1694
21
-67.7127
0
LINE
8
BLACK
6
CONTINUOUS
10
100.377
20
-70.143
11
100.394
21
-70.1664
0
LINE
8
BLACK
6
CONTINUOUS
10
100.409
20
-69.7366
11
100.414
21
-69.777
0
LINE
8
BLACK
6
CONTINUOUS
10
101.819
20
-66.8174
11
101.798
21
-66.7907
0
LINE
8
BLACK
6
CONTINUOUS
10
99.3104
20
-70.1727
11
99.2832
21
-70.1717
0
LINE
8
BLACK
6
CONTINUOUS
10
102.415
20
-67.718
11
101.941
21
-67.7208
0
LINE
8
BLACK
6
CONTINUOUS
10
99.2136
20
-69.8158
11
100.389
21
-69.8158
0
LINE
8
BLACK
6
CONTINUOUS
10
100.241
20
-69.5702
11
100.281
21
-69.5819
0
LINE
8
BLACK
6
CONTINUOUS
10
99.2108
20
-70.1669
11
99.2238
21
-70.1427
0
LINE
8
BLACK
6
CONTINUOUS
10
99.2471
20
-69.6332
11
99.2807
21
-69.6032
0
LINE
8
BLACK
6
CONTINUOUS
10
99.2136
20
-69.8158
11
99.2108
21
-70.1669
0
LINE
8
BLACK
6
CONTINUOUS
10
101.838
20
-67.653
11
101.829
21
-67.6103
0
LINE
8
BLACK
6
CONTINUOUS
10
102.502
20
-67.6291
11
102.485
21
-67.6695
0
LINE
8
BLACK
6
CONTINUOUS
10
99.193
20
-69.7384
11
99.2141
21
-69.7795
0
LINE
8
BLACK
6
CONTINUOUS
10
100.336
20
-69.6487
11
100.349
21
-69.6266
0
LINE
8
BLACK
6
CONTINUOUS
10
97.7485
20
-67.6076
11
97.7485
21
-66.8567
0
LINE
8
BLACK
6
CONTINUOUS
10
97.1941
20
-67.6939
11
97.2106
21
-67.7208
0
LINE
8
BLACK
6
CONTINUOUS
10
101.798
20
-66.7907
11
101.768
21
-66.7742
0
LINE
8
BLACK
6
CONTINUOUS
10
102.487
20
-66.8156
11
102.511
21
-66.779
0
LINE
8
BLACK
6
CONTINUOUS
10
99.1887
20
-69.7777
11
99.193
21
-69.7384
0
LINE
8
BLACK
6
CONTINUOUS
10
102.479
20
-66.8567
11
102.502
21
-67.6291
0
LINE
8
BLACK
6
CONTINUOUS
10
99.2047
20
-69.6987
11
99.224
21
-69.6619
0
LINE
8
BLACK
6
CONTINUOUS
10
102.453
20
-67.6698
11
102.485
21
-67.6695
0
LINE
8
BLACK
6
CONTINUOUS
10
102.511
20
-66.779
11
102.518
21
-66.809
0
LINE
8
BLACK
6
CONTINUOUS
10
102.583
20
-66.3226
11
102.492
21
-66.3208
0
LINE
8
BLACK
6
CONTINUOUS
10
102.492
20
-66.3208
11
102.479
21
-66.2687
0
LINE
8
BLACK
6
CONTINUOUS
10
102.479
20
-66.8567
11
102.487
21
-66.8156
0
LINE
8
BLACK
6
CONTINUOUS
10
102.504
20
-66.1676
11
102.504
21
-66.2555
0
LINE
8
BLACK
6
CONTINUOUS
10
101.829
20
-66.7866
11
101.819
21
-66.8174
0
LINE
8
BLACK
6
CONTINUOUS
10
102.574
20
-66.7716
11
102.547
21
-66.7541
0
LINE
8
BLACK
6
CONTINUOUS
10
100.342
20
-70.1458
11
100.365
21
-70.1697
0
LINE
8
BLACK
6
CONTINUOUS
10
102.504
20
-66.2555
11
102.504
21
-66.2956
0
LINE
8
BLACK
6
CONTINUOUS
10
102.49
20
-65.9268
11
102.504
21
-66.1676
0
LINE
8
BLACK
6
CONTINUOUS
10
102.425
20
-67.6888
11
102.455
21
-67.7008
0
LINE
8
BLACK
6
CONTINUOUS
10
102.652
20
-66.3906
11
102.678
21
-66.4061
0
LINE
8
BLACK
6
CONTINUOUS
10
102.547
20
-66.7541
11
102.542
21
-66.7848
0
LINE
8
BLACK
6
CONTINUOUS
10
102.479
20
-65.9517
11
101.854
21
-65.9517
0
LINE
8
BLACK
6
CONTINUOUS
10
101.893
20
-67.681
11
101.899
21
-67.7127
0
LINE
8
BLACK
6
CONTINUOUS
10
102.547
20
-66.7541
11
102.576
21
-66.746
0
LINE
8
BLACK
6
CONTINUOUS
10
101.924
20
-67.6939
11
101.941
21
-67.7208
0
LINE
8
BLACK
6
CONTINUOUS
10
102.479
20
-67.6076
11
102.479
21
-66.8567
0
LINE
8
BLACK
6
CONTINUOUS
10
102.669
20
-66.3635
11
102.652
21
-66.3906
0
LINE
8
BLACK
6
CONTINUOUS
10
102.614
20
-66.3355
11
102.583
21
-66.3226
0
LINE
8
BLACK
6
CONTINUOUS
10
101.829
20
-67.6103
11
101.855
21
-67.6258
0
LINE
8
BLACK
6
CONTINUOUS
10
101.678
20
-66.6606
11
101.654
21
-66.4077
0
LINE
8
BLACK
6
CONTINUOUS
10
102.391
20
-67.6957
11
102.415
21
-67.718
0
LINE
8
BLACK
6
CONTINUOUS
10
102.415
20
-67.718
11
102.425
21
-67.6888
0
LINE
8
BLACK
6
CONTINUOUS
10
102.652
20
-66.3906
11
102.639
21
-66.3594
0
LINE
8
BLACK
6
CONTINUOUS
10
101.854
20
-66.1808
11
101.854
21
-66.2687
0
LINE
8
BLACK
6
CONTINUOUS
10
102.455
20
-67.7008
11
102.453
21
-67.6698
0
LINE
8
BLACK
6
CONTINUOUS
10
101.829
20
-66.2568
11
101.829
21
-66.1689
0
LINE
8
BLACK
6
CONTINUOUS
10
102.504
20
-66.2956
11
102.567
21
-66.2956
0
LINE
8
BLACK
6
CONTINUOUS
10
102.479
20
-66.2687
11
101.854
21
-66.2687
0
LINE
8
BLACK
6
CONTINUOUS
10
102.511
20
-66.779
11
102.547
21
-66.7541
0
LINE
8
BLACK
6
CONTINUOUS
10
96.0315
20
-67.2329
11
96.0386
21
-67.2593
0
LINE
8
BLACK
6
CONTINUOUS
10
102.639
20
-66.3594
11
102.669
21
-66.3635
0
LINE
8
BLACK
6
CONTINUOUS
10
99.1887
20
-69.7777
11
99.2136
21
-69.8158
0
LINE
8
BLACK
6
CONTINUOUS
10
101.854
20
-66.3076
11
101.766
21
-66.3208
0
LINE
8
BLACK
6
CONTINUOUS
10
101.849
20
-66.8252
11
101.829
21
-66.8575
0
LINE
8
BLACK
6
CONTINUOUS
10
102.472
20
-67.6416
11
102.502
21
-67.6291
0
LINE
8
BLACK
6
CONTINUOUS
10
102.518
20
-66.809
11
102.487
21
-66.8156
0
LINE
8
BLACK
6
CONTINUOUS
10
102.639
20
-66.3594
11
102.614
21
-66.3355
0
LINE
8
BLACK
6
CONTINUOUS
10
100.292
20
-70.1478
11
100.32
21
-70.1717
0
LINE
8
BLACK
6
CONTINUOUS
10
102.608
20
-66.3038
11
102.614
21
-66.3355
0
LINE
8
BLACK
6
CONTINUOUS
10
100.397
20
-69.697
11
100.409
21
-69.7366
0
LINE
8
BLACK
6
CONTINUOUS
10
102.487
20
-66.8156
11
102.505
21
-66.8402
0
LINE
8
BLACK
6
CONTINUOUS
10
101.829
20
-66.1689
11
101.829
21
-65.9398
0
LINE
8
BLACK
6
CONTINUOUS
10
101.829
20
-66.2956
11
101.829
21
-66.2568
0
LINE
8
BLACK
6
CONTINUOUS
10
102.542
20
-66.7848
11
102.511
21
-66.779
0
LINE
8
BLACK
6
CONTINUOUS
10
102.679
20
-66.6589
11
102.652
21
-66.3906
0
LINE
8
BLACK
6
CONTINUOUS
10
101.869
20
-67.6571
11
101.893
21
-67.681
0
LINE
8
BLACK
6
CONTINUOUS
10
102.485
20
-67.6695
11
102.472
21
-67.6416
0
LINE
8
BLACK
6
CONTINUOUS
10
99.2108
20
-70.1669
11
99.1887
21
-70.1526
0
LINE
8
BLACK
6
CONTINUOUS
10
102.479
20
-66.2687
11
102.479
21
-66.1808
0
LINE
8
BLACK
6
CONTINUOUS
10
102.502
20
-67.6291
11
102.479
21
-67.6076
0
LINE
8
BLACK
6
CONTINUOUS
10
101.819
20
-66.8174
11
101.849
21
-66.8252
0
LINE
8
BLACK
6
CONTINUOUS
10
101.855
20
-67.6258
11
101.869
21
-67.6571
0
LINE
8
BLACK
6
CONTINUOUS
10
101.766
20
-66.3208
11
101.829
21
-66.2956
0
LINE
8
BLACK
6
CONTINUOUS
10
101.941
20
-67.7208
11
102.391
21
-67.6957
0
LINE
8
BLACK
6
CONTINUOUS
10
99.2238
20
-70.1427
11
99.2388
21
-70.1697
0
LINE
8
BLACK
6
CONTINUOUS
10
102.576
20
-66.746
11
102.574
21
-66.7716
0
LINE
8
BLACK
6
CONTINUOUS
10
103.24
20
-65.2456
11
102.842
21
-65.2708
0
LINE
8
BLACK
6
CONTINUOUS
10
96.0386
20
-67.5888
11
96.0635
21
-67.8575
0
LINE
8
BLACK
6
CONTINUOUS
10
102.479
20
-66.1808
11
101.854
21
-66.1808
0
LINE
8
BLACK
6
CONTINUOUS
10
96.0079
20
-64.6756
11
96.1153
21
-64.8308
0
LINE
8
BLACK
6
CONTINUOUS
10
102.854
20
-65.2456
11
102.854
21
-64.9812
0
LINE
8
BLACK
6
CONTINUOUS
10
96.0386
20
-67.2593
11
96.0386
21
-67.558
0
LINE
8
BLACK
6
CONTINUOUS
10
100.589
20
-70.2121
11
100.964
21
-70.2009
0
LINE
8
BLACK
6
CONTINUOUS
10
103.648
20
-67.4884
11
103.636
21
-67.4447
0
LINE
8
BLACK
6
CONTINUOUS
10
99.2637
20
-70.2197
11
99.3015
21
-70.2207
0
LINE
8
BLACK
6
CONTINUOUS
10
97.7554
20
-67.6695
11
97.7249
21
-67.7008
0
LINE
8
BLACK
6
CONTINUOUS
10
100.564
20
-70.2459
11
100.589
21
-70.2121
0
LINE
8
BLACK
6
CONTINUOUS
10
97.1328
20
-67.6888
11
97.108
21
-67.653
0
LINE
8
BLACK
6
CONTINUOUS
10
101.214
20
-70.1824
11
101.239
21
-70.2575
0
LINE
8
BLACK
6
CONTINUOUS
10
102.672
20
-69.4849
11
102.664
21
-69.4546
0
LINE
8
BLACK
6
CONTINUOUS
10
98.0376
20
-69.7158
11
98.1986
21
-69.7158
0
LINE
8
BLACK
6
CONTINUOUS
10
102.583
20
-66.3226
11
102.608
21
-66.3038
0
LINE
8
BLACK
6
CONTINUOUS
10
101.899
20
-67.7127
11
101.924
21
-67.6939
0
LINE
8
BLACK
6
CONTINUOUS
10
103.564
20
-66.9456
11
103.564
21
-67.5583
0
LINE
8
BLACK
6
CONTINUOUS
10
96.3378
20
-65.2456
11
96.0635
21
-65.2708
0
LINE
8
BLACK
6
CONTINUOUS
10
100.264
20
-70.1737
11
100.301
21
-70.1958
0
LINE
8
BLACK
6
CONTINUOUS
10
103.636
20
-67.4447
11
103.639
21
-67.4069
0
LINE
8
BLACK
6
CONTINUOUS
10
97.7717
20
-67.6291
11
97.7554
21
-67.6695
0
LINE
8
BLACK
6
CONTINUOUS
10
97.0988
20
-67.6103
11
97.0986
21
-66.8575
0
LINE
8
BLACK
6
CONTINUOUS
10
97.685
20
-67.718
11
97.2106
21
-67.7208
0
LINE
8
BLACK
6
CONTINUOUS
10
100.964
20
-70.2009
11
101.189
21
-70.1691
0
LINE
8
BLACK
6
CONTINUOUS
10
97.1694
20
-67.7127
11
97.1328
21
-67.6888
0
LINE
8
BLACK
6
CONTINUOUS
10
99.9256
20
-70.1958
11
99.6754
21
-70.1958
0
LINE
8
BLACK
6
CONTINUOUS
10
96.7485
20
-65.2456
11
96.3378
21
-65.2456
0
LINE
8
BLACK
6
CONTINUOUS
10
102.704
20
-69.2563
11
102.677
21
-69.2405
0
LINE
8
BLACK
6
CONTINUOUS
10
98.1986
20
-69.7158
11
98.0257
21
-69.7406
0
LINE
8
BLACK
6
CONTINUOUS
10
97.6802
20
-69.716
11
97.6886
21
-69.7406
0
LINE
8
BLACK
6
CONTINUOUS
10
99.0386
20
-70.2459
11
99.2637
21
-70.2459
0
LINE
8
BLACK
6
CONTINUOUS
10
99.0137
20
-70.2121
11
99.2637
21
-70.2197
0
LINE
8
BLACK
6
CONTINUOUS
10
98.1054
20
-69.8158
11
98.1986
21
-69.8158
0
LINE
8
BLACK
6
CONTINUOUS
10
101.214
20
-69.1707
11
101.214
21
-69.5656
0
LINE
8
BLACK
6
CONTINUOUS
10
103.564
20
-67.5583
11
103.603
21
-67.5575
0
LINE
8
BLACK
6
CONTINUOUS
10
102.505
20
-66.8402
11
102.479
21
-66.8567
0
LINE
8
BLACK
6
CONTINUOUS
10
98.4016
20
-70.1938
11
98.3886
21
-70.2459
0
LINE
8
BLACK
6
CONTINUOUS
10
102.064
20
-69.6906
11
102.05
21
-69.6693
0
LINE
8
BLACK
6
CONTINUOUS
10
101.564
20
-69.7158
11
101.914
21
-69.7158
0
LINE
8
BLACK
6
CONTINUOUS
10
102.614
20
-66.3355
11
102.644
21
-66.3276
0
LINE
8
BLACK
6
CONTINUOUS
10
99.6754
20
-70.1958
11
99.3396
21
-70.1737
0
LINE
8
BLACK
6
CONTINUOUS
10
101.854
20
-65.9517
11
101.854
21
-66.1808
0
LINE
8
BLACK
6
CONTINUOUS
10
98.3886
20
-69.5656
11
98.3886
21
-69.1707
0
LINE
8
BLACK
6
CONTINUOUS
10
102.644
20
-66.3276
11
102.639
21
-66.3594
0
LINE
8
BLACK
6
CONTINUOUS
10
103.564
20
-67.5583
11
103.539
21
-66.9588
0
LINE
8
BLACK
6
CONTINUOUS
10
101.854
20
-66.2687
11
101.854
21
-66.3076
0
LINE
8
BLACK
6
CONTINUOUS
10
102.678
20
-66.4061
11
102.679
21
-66.6589
0
LINE
8
BLACK
6
CONTINUOUS
10
97.2106
20
-67.7208
11
97.1694
21
-67.7127
0
LINE
8
BLACK
6
CONTINUOUS
10
102.619
20
-69.4894
11
102.672
21
-69.4849
0
LINE
8
BLACK
6
CONTINUOUS
10
102.567
20
-66.2956
11
102.583
21
-66.3226
0
LINE
8
BLACK
6
CONTINUOUS
10
102.479
20
-66.1808
11
102.479
21
-65.9517
0
LINE
8
BLACK
6
CONTINUOUS
10
96.9484
20
-66.6606
11
96.9236
21
-66.4077
0
LINE
8
BLACK
6
CONTINUOUS
10
96.0386
20
-67.558
11
96.0386
21
-67.5888
0
LINE
8
BLACK
6
CONTINUOUS
10
98.0937
20
-70.2459
11
98.1186
21
-69.8407
0
LINE
8
BLACK
6
CONTINUOUS
10
98.6386
20
-70.2009
11
99.0137
21
-70.2121
0
LINE
8
BLACK
6
CONTINUOUS
10
98.6386
20
-70.2009
11
98.4016
21
-70.1938
0
LINE
8
BLACK
6
CONTINUOUS
10
97.7249
20
-67.7008
11
97.685
21
-67.718
0
LINE
8
BLACK
6
CONTINUOUS
10
102.608
20
-69.1724
11
102.592
21
-69.1458
0
LINE
8
BLACK
6
CONTINUOUS
10
102.664
20
-69.2093
11
102.67
21
-69.1775
0
LINE
8
BLACK
6
CONTINUOUS
10
102.67
20
-69.1775
11
102.64
21
-69.1854
0
LINE
8
BLACK
6
CONTINUOUS
10
97.108
20
-67.653
11
97.0988
21
-67.6103
0
LINE
8
BLACK
6
CONTINUOUS
10
100.339
20
-70.2459
11
100.564
21
-70.2459
0
LINE
8
BLACK
6
CONTINUOUS
10
98.6137
20
-70.2459
11
98.6386
21
-70.2009
0
LINE
8
BLACK
6
CONTINUOUS
10
104.204
20
-67.0051
11
104.172
21
-66.9972
0
LINE
8
BLACK
6
CONTINUOUS
10
104.131
20
-66.95
11
104.104
21
-66.9715
0
LINE
8
BLACK
6
CONTINUOUS
10
98.3886
20
-70.2459
11
98.6137
21
-70.2459
0
LINE
8
BLACK
6
CONTINUOUS
10
103.564
20
-67.8707
11
104.105
21
-67.8458
0
LINE
8
BLACK
6
CONTINUOUS
10
100.964
20
-70.2009
11
100.989
21
-70.2459
0
LINE
8
BLACK
6
CONTINUOUS
10
101.379
20
-69.729
11
101.379
21
-69.5908
0
LINE
8
BLACK
6
CONTINUOUS
10
101.379
20
-69.8158
11
101.379
21
-69.729
0
LINE
8
BLACK
6
CONTINUOUS
10
101.214
20
-70.2459
11
101.214
21
-70.1824
0
LINE
8
BLACK
6
CONTINUOUS
10
98.2235
20
-69.7277
11
98.1986
21
-69.8158
0
LINE
8
BLACK
6
CONTINUOUS
10
101.914
20
-69.7158
11
101.924
21
-69.7417
0
LINE
8
BLACK
6
CONTINUOUS
10
97.6886
20
-69.7406
11
98.0376
21
-69.7158
0
LINE
8
BLACK
6
CONTINUOUS
10
98.0257
20
-69.7406
11
98.0506
21
-69.8407
0
LINE
8
BLACK
6
CONTINUOUS
10
102.64
20
-69.1854
11
102.633
21
-69.1539
0
LINE
8
BLACK
6
CONTINUOUS
10
101.214
20
-70.1824
11
100.964
21
-70.2009
0
LINE
8
BLACK
6
CONTINUOUS
10
100.989
20
-70.2459
11
101.214
21
-70.2459
0
LINE
8
BLACK
6
CONTINUOUS
10
101.379
20
-69.5908
11
101.214
21
-69.5656
0
LINE
8
BLACK
6
CONTINUOUS
10
101.379
20
-69.8158
11
101.496
21
-69.8158
0
LINE
8
BLACK
6
CONTINUOUS
10
104.211
20
-67.7874
11
104.188
21
-67.76
0
LINE
8
BLACK
6
CONTINUOUS
10
98.1986
20
-69.8158
11
98.1986
21
-69.7158
0
LINE
8
BLACK
6
CONTINUOUS
10
101.484
20
-69.8407
11
101.509
21
-70.2459
0
LINE
8
BLACK
6
CONTINUOUS
10
101.404
20
-69.7158
11
101.379
21
-69.8158
0
LINE
8
BLACK
6
CONTINUOUS
10
102.677
20
-69.4231
11
102.704
21
-69.4041
0
LINE
8
BLACK
6
CONTINUOUS
10
102.664
20
-69.4546
11
102.677
21
-69.4231
0
LINE
8
BLACK
6
CONTINUOUS
10
102.619
20
-69.4894
11
102.636
21
-69.5098
0
LINE
8
BLACK
6
CONTINUOUS
10
100.314
20
-70.2205
11
100.339
21
-70.2459
0
LINE
8
BLACK
6
CONTINUOUS
10
104.168
20
-67.8532
11
104.171
21
-67.8204
0
LINE
8
BLACK
6
CONTINUOUS
10
98.3754
20
-69.8158
11
98.3886
21
-69.5656
0
LINE
8
BLACK
6
CONTINUOUS
10
99.9385
20
-70.2207
11
99.6637
21
-70.2207
0
LINE
8
BLACK
6
CONTINUOUS
10
101.214
20
-69.5656
11
101.214
21
-69.8158
0
LINE
8
BLACK
6
CONTINUOUS
10
98.0506
20
-69.8407
11
98.0257
21
-70.2459
0
LINE
8
BLACK
6
CONTINUOUS
10
98.1986
20
-69.7158
11
98.1986
21
-69.5789
0
LINE
8
BLACK
6
CONTINUOUS
10
98.1186
20
-69.8407
11
98.0506
21
-69.8407
0
LINE
8
BLACK
6
CONTINUOUS
10
101.404
20
-69.7158
11
101.564
21
-69.7158
0
LINE
8
BLACK
6
CONTINUOUS
10
104.171
20
-67.8204
11
104.211
21
-67.7874
0
LINE
8
BLACK
6
CONTINUOUS
10
104.104
20
-66.9715
11
103.564
21
-66.9456
0
LINE
8
BLACK
6
CONTINUOUS
10
103.648
20
-67.4884
11
103.629
21
-67.5253
0
LINE
8
BLACK
6
CONTINUOUS
10
98.3886
20
-69.1707
11
97.0092
21
-69.1458
0
LINE
8
BLACK
6
CONTINUOUS
10
104.188
20
-67.76
11
104.214
21
-67.7572
0
LINE
8
BLACK
6
CONTINUOUS
10
99.9136
20
-70.2459
11
99.9385
21
-70.2207
0
LINE
8
BLACK
6
CONTINUOUS
10
103.629
20
-67.5253
11
103.603
21
-67.5575
0
LINE
8
BLACK
6
CONTINUOUS
10
101.39
20
-69.5656
11
101.404
21
-69.7158
0
LINE
8
BLACK
6
CONTINUOUS
10
98.0506
20
-69.8407
11
98.1054
21
-69.8158
0
LINE
8
BLACK
6
CONTINUOUS
10
102.633
20
-69.1539
11
102.608
21
-69.1724
0
LINE
8
BLACK
6
CONTINUOUS
10
99.6637
20
-70.2207
11
99.6886
21
-70.2459
0
LINE
8
BLACK
6
CONTINUOUS
10
102.561
20
-69.5359
11
102.619
21
-69.4894
0
LINE
8
BLACK
6
CONTINUOUS
10
99.0137
20
-70.2121
11
99.0386
21
-70.2459
0
LINE
8
BLACK
6
CONTINUOUS
10
101.214
20
-69.5656
11
101.39
21
-69.5656
0
LINE
8
BLACK
6
CONTINUOUS
10
98.0257
20
-70.2459
11
98.0937
21
-70.2459
0
LINE
8
BLACK
6
CONTINUOUS
10
102.592
20
-69.1458
11
101.214
21
-69.1707
0
LINE
8
BLACK
6
CONTINUOUS
10
102.694
20
-69.2136
11
102.664
21
-69.2093
0
LINE
8
BLACK
6
CONTINUOUS
10
99.2637
20
-70.2459
11
99.2637
21
-70.2197
0
LINE
8
BLACK
6
CONTINUOUS
10
98.3886
20
-69.5656
11
98.2235
21
-69.5908
0
LINE
8
BLACK
6
CONTINUOUS
10
98.2235
20
-69.5908
11
98.2235
21
-69.7277
0
LINE
8
BLACK
6
CONTINUOUS
10
100.589
20
-70.2121
11
100.314
21
-70.2205
0
LINE
8
BLACK
6
CONTINUOUS
10
98.1986
20
-69.5789
11
98.3886
21
-69.5656
0
LINE
8
BLACK
6
CONTINUOUS
10
97.0092
20
-69.1458
11
96.9937
21
-69.1724
0
LINE
8
BLACK
6
CONTINUOUS
10
102.677
20
-69.2405
11
102.694
21
-69.2136
0
LINE
8
BLACK
6
CONTINUOUS
10
102.05
20
-69.6693
11
102.096
21
-69.6898
0
LINE
8
BLACK
6
CONTINUOUS
10
104.172
20
-66.9972
11
104.179
21
-66.9713
0
LINE
8
BLACK
6
CONTINUOUS
10
103.571
20
-67.5842
11
103.564
21
-67.8707
0
LINE
8
BLACK
6
CONTINUOUS
10
101.577
20
-70.2459
11
101.552
21
-69.8158
0
LINE
8
BLACK
6
CONTINUOUS
10
99.6886
20
-70.2459
11
99.9136
21
-70.2459
0
LINE
8
BLACK
6
CONTINUOUS
10
98.1986
20
-69.8158
11
98.3754
21
-69.8158
0
LINE
8
BLACK
6
CONTINUOUS
10
101.214
20
-69.8158
11
101.379
21
-69.8158
0
LINE
8
BLACK
6
CONTINUOUS
10
102.842
20
-64.7722
11
102.85
21
-64.8011
0
LINE
8
BLACK
6
CONTINUOUS
10
102.812
20
-64.7208
11
102.829
21
-64.7455
0
LINE
8
BLACK
6
CONTINUOUS
10
101.484
20
-69.8407
11
101.392
21
-69.8407
0
LINE
8
BLACK
6
CONTINUOUS
10
103.298
20
-65.0587
11
103.467
21
-64.8163
0
LINE
8
BLACK
6
CONTINUOUS
10
104.214
20
-67.0584
11
104.214
21
-67.7572
0
LINE
8
BLACK
6
CONTINUOUS
10
103.735
20
-65.0008
11
103.57
21
-65.2377
0
LINE
8
BLACK
6
CONTINUOUS
10
102.672
20
-64.6477
11
102.705
21
-64.6548
0
LINE
8
BLACK
6
CONTINUOUS
10
101.552
20
-69.8158
11
101.484
21
-69.8407
0
LINE
8
BLACK
6
CONTINUOUS
10
102.85
20
-64.8011
11
102.853
21
-64.8298
0
LINE
8
BLACK
6
CONTINUOUS
10
103.845
20
-64.8186
11
103.735
21
-65.0008
0
LINE
8
BLACK
6
CONTINUOUS
10
103.57
20
-65.2377
11
103.567
21
-65.9533
0
LINE
8
BLACK
6
CONTINUOUS
10
101.565
20
-70.2707
11
101.497
21
-70.2707
0
LINE
8
BLACK
6
CONTINUOUS
10
103.24
20
-65.2456
11
103.245
21
-65.189
0
LINE
8
BLACK
6
CONTINUOUS
10
104.168
20
-67.8532
11
104.144
21
-67.8638
0
LINE
8
BLACK
6
CONTINUOUS
10
104.118
20
-67.8697
11
103.564
21
-67.8707
0
LINE
8
BLACK
6
CONTINUOUS
10
103.58
20
-64.6515
11
103.845
21
-64.8186
0
LINE
8
BLACK
6
CONTINUOUS
10
103.265
20
-65.1212
11
103.298
21
-65.0587
0
LINE
8
BLACK
6
CONTINUOUS
10
96.759
20
-64.7755
11
96.7714
21
-64.7485
0
LINE
8
BLACK
6
CONTINUOUS
10
96.7884
20
-64.7236
11
96.8105
21
-64.701
0
LINE
8
BLACK
6
CONTINUOUS
10
96.7714
20
-64.7485
11
96.7884
21
-64.7236
0
LINE
8
BLACK
6
CONTINUOUS
10
104.211
20
-67.7874
11
104.203
21
-67.8138
0
LINE
8
BLACK
6
CONTINUOUS
10
102.705
20
-64.6548
11
102.735
21
-64.6652
0
LINE
8
BLACK
6
CONTINUOUS
10
104.179
20
-66.9713
11
104.204
21
-67.0051
0
LINE
8
BLACK
6
CONTINUOUS
10
103.564
20
-70.2575
11
101.565
21
-70.2707
0
LINE
8
BLACK
6
CONTINUOUS
10
104.131
20
-66.95
11
104.156
21
-66.9581
0
LINE
8
BLACK
6
CONTINUOUS
10
104.203
20
-67.8138
11
104.191
21
-67.8372
0
LINE
8
BLACK
6
CONTINUOUS
10
103.24
20
-65.2456
11
103.57
21
-65.2377
0
LINE
8
BLACK
6
CONTINUOUS
10
104.105
20
-67.8458
11
104.144
21
-67.8638
0
LINE
8
BLACK
6
CONTINUOUS
10
102.735
20
-64.6652
11
102.764
21
-64.6797
0
LINE
8
BLACK
6
CONTINUOUS
10
96.7506
20
-64.8049
11
96.759
21
-64.7755
0
LINE
8
BLACK
6
CONTINUOUS
10
102.764
20
-64.6797
11
102.789
21
-64.6987
0
LINE
8
BLACK
6
CONTINUOUS
10
101.239
20
-69.8407
11
101.214
21
-70.1824
0
LINE
8
BLACK
6
CONTINUOUS
10
103.603
20
-67.5575
11
103.571
21
-67.5842
0
LINE
8
BLACK
6
CONTINUOUS
10
96.8105
20
-64.701
11
96.8349
21
-64.6817
0
LINE
8
BLACK
6
CONTINUOUS
10
101.552
20
-69.8158
11
101.577
21
-69.7406
0
LINE
8
BLACK
6
CONTINUOUS
10
102.829
20
-64.7455
11
102.842
21
-64.7722
0
LINE
8
BLACK
6
CONTINUOUS
10
102.789
20
-64.6987
11
102.812
21
-64.7208
0
LINE
8
BLACK
6
CONTINUOUS
10
100.589
20
-70.2121
11
100.589
21
-70.2575
0
LINE
8
BLACK
6
CONTINUOUS
10
104.144
20
-67.8638
11
104.118
21
-67.8697
0
LINE
8
BLACK
6
CONTINUOUS
10
103.467
20
-64.8163
11
103.323
21
-65.0663
0
LINE
8
BLACK
6
CONTINUOUS
10
96.7485
20
-64.8318
11
96.7506
21
-64.8049
0
LINE
8
BLACK
6
CONTINUOUS
10
104.191
20
-67.8372
11
104.168
21
-67.8532
0
LINE
8
BLACK
6
CONTINUOUS
10
101.497
20
-70.2707
11
101.484
21
-69.8407
0
LINE
8
BLACK
6
CONTINUOUS
10
103.245
20
-65.189
11
103.265
21
-65.1212
0
LINE
8
BLACK
6
CONTINUOUS
10
96.9601
20
-64.6457
11
102.641
21
-64.6457
0
LINE
8
BLACK
6
CONTINUOUS
10
104.204
20
-67.0051
11
104.211
21
-67.0315
0
LINE
8
BLACK
6
CONTINUOUS
10
101.577
20
-69.7406
11
101.404
21
-69.7158
0
LINE
8
BLACK
6
CONTINUOUS
10
103.564
20
-67.8707
11
103.564
21
-70.2575
0
LINE
8
BLACK
6
CONTINUOUS
10
96.9266
20
-64.6482
11
96.9601
21
-64.6457
0
LINE
8
BLACK
6
CONTINUOUS
10
102.853
20
-64.8298
11
102.854
21
-64.9812
0
LINE
8
BLACK
6
CONTINUOUS
10
103.467
20
-64.8163
11
103.58
21
-64.6515
0
LINE
8
BLACK
6
CONTINUOUS
10
103.564
20
-66.9456
11
104.106
21
-66.9456
0
LINE
8
BLACK
6
CONTINUOUS
10
104.156
20
-66.9581
11
104.179
21
-66.9713
0
LINE
8
BLACK
6
CONTINUOUS
10
103.821
20
-64.8324
11
103.594
21
-64.6756
0
LINE
8
BLACK
6
CONTINUOUS
10
104.214
20
-67.7572
11
104.211
21
-67.7874
0
LINE
8
BLACK
6
CONTINUOUS
10
101.239
20
-70.2575
11
100.977
21
-70.2707
0
LINE
8
BLACK
6
CONTINUOUS
10
101.392
20
-69.8407
11
101.239
21
-69.8407
0
LINE
8
BLACK
6
CONTINUOUS
10
96.8349
20
-64.6817
11
96.8636
21
-64.6665
0
LINE
8
BLACK
6
CONTINUOUS
10
96.8938
20
-64.6558
11
96.9266
21
-64.6482
0
LINE
8
BLACK
6
CONTINUOUS
10
104.211
20
-67.0315
11
104.214
21
-67.0584
0
LINE
8
BLACK
6
CONTINUOUS
10
104.106
20
-66.9456
11
104.131
21
-66.95
0
LINE
8
BLACK
6
CONTINUOUS
10
100.977
20
-70.2707
11
100.964
21
-70.2009
0
LINE
8
BLACK
6
CONTINUOUS
10
101.496
20
-69.8158
11
101.552
21
-69.8158
0
LINE
8
BLACK
6
CONTINUOUS
10
101.509
20
-70.2459
11
101.577
21
-70.2459
0
LINE
8
BLACK
6
CONTINUOUS
10
102.641
20
-64.6457
11
102.672
21
-64.6477
0
LINE
8
BLACK
6
CONTINUOUS
10
103.735
20
-65.0008
11
103.821
21
-64.8324
0
LINE
8
BLACK
6
CONTINUOUS
10
95.9736
20
-67.2918
11
95.9998
21
-67.2596
0
LINE
8
BLACK
6
CONTINUOUS
10
96.0315
20
-67.2329
11
96.0386
21
-66.9456
0
LINE
8
BLACK
6
CONTINUOUS
10
99.9385
20
-70.2207
11
99.9385
21
-70.2575
0
LINE
8
BLACK
6
CONTINUOUS
10
95.5014
20
-67.8707
11
95.4714
21
-67.8682
0
LINE
8
BLACK
6
CONTINUOUS
10
95.4328
20
-66.9639
11
95.4575
21
-66.9527
0
LINE
8
BLACK
6
CONTINUOUS
10
96.0518
20
-70.2707
11
96.0386
21
-67.8707
0
LINE
8
BLACK
6
CONTINUOUS
10
95.3909
20
-67.03
11
95.3985
21
-67.0033
0
LINE
8
BLACK
6
CONTINUOUS
10
99.6637
20
-70.2207
11
99.3015
21
-70.2207
0
LINE
8
BLACK
6
CONTINUOUS
10
98.1186
20
-69.8407
11
98.1186
21
-70.2575
0
LINE
8
BLACK
6
CONTINUOUS
10
99.6767
20
-70.2707
11
99.6637
21
-70.2207
0
LINE
8
BLACK
6
CONTINUOUS
10
95.8888
20
-64.9875
11
96.0528
21
-65.2235
0
LINE
8
BLACK
6
CONTINUOUS
10
103.594
20
-64.6756
11
103.467
21
-64.8163
0
LINE
8
BLACK
6
CONTINUOUS
10
96.0386
20
-67.8707
11
95.5014
21
-67.8707
0
LINE
8
BLACK
6
CONTINUOUS
10
95.9543
20
-67.3284
11
95.9736
21
-67.2918
0
LINE
8
BLACK
6
CONTINUOUS
10
96.3378
20
-65.2456
11
96.331
21
-65.1867
0
LINE
8
BLACK
6
CONTINUOUS
10
96.0386
20
-65.2588
11
96.3378
21
-65.2456
0
LINE
8
BLACK
6
CONTINUOUS
10
98.6386
20
-70.2009
11
98.6386
21
-70.2575
0
LINE
8
BLACK
6
CONTINUOUS
10
95.9426
20
-67.3683
11
95.9543
21
-67.3284
0
LINE
8
BLACK
6
CONTINUOUS
10
95.4976
20
-66.9708
11
95.4836
21
-66.9469
0
LINE
8
BLACK
6
CONTINUOUS
10
95.8888
20
-64.9875
11
95.7541
21
-64.8369
0
LINE
8
BLACK
6
CONTINUOUS
10
96.0386
20
-66.9456
11
95.4976
21
-66.9708
0
LINE
8
BLACK
6
CONTINUOUS
10
95.4714
20
-67.8682
11
95.4458
21
-67.86
0
LINE
8
BLACK
6
CONTINUOUS
10
96.0036
20
-64.6482
11
96.0079
21
-64.6756
0
LINE
8
BLACK
6
CONTINUOUS
10
96.7485
20
-64.9814
11
96.7485
21
-64.8318
0
LINE
8
BLACK
6
CONTINUOUS
10
95.9393
20
-67.4252
11
95.9426
21
-67.3683
0
LINE
8
BLACK
6
CONTINUOUS
10
103.323
20
-65.0663
11
103.298
21
-65.0587
0
LINE
8
BLACK
6
CONTINUOUS
10
95.9998
20
-67.2596
11
96.0315
21
-67.2329
0
LINE
8
BLACK
6
CONTINUOUS
10
98.0386
20
-70.2707
11
96.0518
21
-70.2707
0
LINE
8
BLACK
6
CONTINUOUS
10
100.589
20
-70.2575
11
100.327
21
-70.2707
0
LINE
8
BLACK
6
CONTINUOUS
10
95.398
20
-67.812
11
95.3907
21
-67.7854
0
LINE
8
BLACK
6
CONTINUOUS
10
100.314
20
-70.2205
11
99.9385
21
-70.2207
0
LINE
8
BLACK
6
CONTINUOUS
10
96.7485
20
-65.2456
11
96.7485
21
-64.9814
0
LINE
8
BLACK
6
CONTINUOUS
10
99.3015
20
-70.2207
11
99.2885
21
-70.2575
0
LINE
8
BLACK
6
CONTINUOUS
10
99.2885
20
-70.2575
11
99.0267
21
-70.2707
0
LINE
8
BLACK
6
CONTINUOUS
10
96.0119
20
-67.5697
11
95.9835
21
-67.5397
0
LINE
8
BLACK
6
CONTINUOUS
10
95.3985
20
-67.0033
11
95.411
21
-66.9794
0
LINE
8
BLACK
6
CONTINUOUS
10
96.0079
20
-64.6756
11
95.7816
21
-64.8324
0
LINE
8
BLACK
6
CONTINUOUS
10
95.9614
20
-67.5047
11
95.9464
21
-67.4661
0
LINE
8
BLACK
6
CONTINUOUS
10
96.2781
20
-65.0653
11
96.1153
21
-64.8308
0
LINE
8
BLACK
6
CONTINUOUS
10
95.4836
20
-66.9469
11
96.0386
21
-66.9456
0
LINE
8
BLACK
6
CONTINUOUS
10
99.9385
20
-70.2575
11
99.6767
21
-70.2707
0
LINE
8
BLACK
6
CONTINUOUS
10
95.398
20
-67.812
11
95.4305
21
-67.8217
0
LINE
8
BLACK
6
CONTINUOUS
10
95.3886
20
-67.7582
11
95.3886
21
-67.0587
0
LINE
8
BLACK
6
CONTINUOUS
10
98.2118
20
-69.8407
11
98.1186
21
-69.8407
0
LINE
8
BLACK
6
CONTINUOUS
10
95.4224
20
-67.8468
11
95.398
21
-67.812
0
LINE
8
BLACK
6
CONTINUOUS
10
95.4575
20
-66.9527
11
95.4836
21
-66.9469
0
LINE
8
BLACK
6
CONTINUOUS
10
95.4305
20
-67.8217
11
95.4224
21
-67.8468
0
LINE
8
BLACK
6
CONTINUOUS
10
98.3767
20
-70.2707
11
98.3637
21
-69.8407
0
LINE
8
BLACK
6
CONTINUOUS
10
95.7541
20
-64.8369
11
96.0036
21
-64.6482
0
LINE
8
BLACK
6
CONTINUOUS
10
96.0386
20
-67.5888
11
96.0119
21
-67.5697
0
LINE
8
BLACK
6
CONTINUOUS
10
95.411
20
-66.9794
11
95.4328
21
-66.9639
0
LINE
8
BLACK
6
CONTINUOUS
10
95.9835
20
-67.5397
11
95.9614
21
-67.5047
0
LINE
8
BLACK
6
CONTINUOUS
10
95.9464
20
-67.4661
11
95.9393
21
-67.4252
0
LINE
8
BLACK
6
CONTINUOUS
10
96.8636
20
-64.6665
11
96.8938
21
-64.6558
0
LINE
8
BLACK
6
CONTINUOUS
10
98.3637
20
-69.8407
11
98.2118
21
-69.8407
0
LINE
8
BLACK
6
CONTINUOUS
10
98.6386
20
-70.2575
11
98.3767
21
-70.2707
0
LINE
8
BLACK
6
CONTINUOUS
10
96.331
20
-65.1867
11
96.3107
21
-65.1239
0
LINE
8
BLACK
6
CONTINUOUS
10
95.4458
20
-67.86
11
95.4224
21
-67.8468
0
LINE
8
BLACK
6
CONTINUOUS
10
98.1186
20
-70.2575
11
98.0386
21
-70.2707
0
LINE
8
BLACK
6
CONTINUOUS
10
95.3907
20
-67.7854
11
95.3886
21
-67.7582
0
LINE
8
BLACK
6
CONTINUOUS
10
102.854
20
-65.2456
11
103.24
21
-65.2456
0
LINE
8
BLACK
6
CONTINUOUS
10
96.0386
20
-66.9456
11
96.0635
21
-65.9533
0
LINE
8
BLACK
6
CONTINUOUS
10
95.4714
20
-67.8682
11
95.4943
21
-67.8461
0
LINE
8
BLACK
6
CONTINUOUS
10
97.2977
20
-69.6213
11
97.0427
21
-69.5362
0
LINE
8
BLACK
6
CONTINUOUS
10
95.4943
20
-67.8461
11
95.5014
21
-67.8707
0
LINE
8
BLACK
6
CONTINUOUS
10
97.5575
20
-69.7046
11
97.5123
21
-69.6906
0
LINE
8
BLACK
6
CONTINUOUS
10
101.924
20
-69.7417
11
101.577
21
-69.7406
0
LINE
8
BLACK
6
CONTINUOUS
10
101.577
20
-70.2459
11
103.539
21
-70.2459
0
LINE
8
BLACK
6
CONTINUOUS
10
102.636
20
-69.5098
11
102.561
21
-69.5359
0
LINE
8
BLACK
6
CONTINUOUS
10
103.539
20
-67.8588
11
103.564
21
-67.5583
0
LINE
8
BLACK
6
CONTINUOUS
10
101.951
20
-69.7399
11
101.924
21
-69.7417
0
LINE
8
BLACK
6
CONTINUOUS
10
97.6373
20
-69.7368
11
97.5959
21
-69.7246
0
LINE
8
BLACK
6
CONTINUOUS
10
98.4135
20
-69.5776
11
98.4135
21
-69.8275
0
LINE
8
BLACK
6
CONTINUOUS
10
98.0257
20
-70.2459
11
98.0257
21
-69.8288
0
LINE
8
BLACK
6
CONTINUOUS
10
98.4135
20
-70.1691
11
98.6386
21
-70.2009
0
LINE
8
BLACK
6
CONTINUOUS
10
101.577
20
-69.7406
11
101.577
21
-69.8275
0
LINE
8
BLACK
6
CONTINUOUS
10
96.9068
20
-69.2166
11
96.9304
21
-69.1798
0
LINE
8
BLACK
6
CONTINUOUS
10
96.9111
20
-69.4577
11
96.8992
21
-69.4155
0
LINE
8
BLACK
6
CONTINUOUS
10
103.539
20
-65.2708
11
103.24
21
-65.2456
0
LINE
8
BLACK
6
CONTINUOUS
10
96.0119
20
-67.5697
11
96.0386
21
-67.558
0
LINE
8
BLACK
6
CONTINUOUS
10
102.696
20
-69.448
11
102.672
21
-69.4849
0
LINE
8
BLACK
6
CONTINUOUS
10
96.0386
20
-67.2593
11
95.9998
21
-67.2596
0
LINE
8
BLACK
6
CONTINUOUS
10
96.9383
20
-69.492
11
96.9111
21
-69.4577
0
LINE
8
BLACK
6
CONTINUOUS
10
102.064
20
-69.6906
11
102.033
21
-69.7125
0
LINE
8
BLACK
6
CONTINUOUS
10
96.7737
20
-65.2583
11
96.7485
21
-65.2456
0
LINE
8
BLACK
6
CONTINUOUS
10
102.033
20
-69.7125
11
101.994
21
-69.7302
0
LINE
8
BLACK
6
CONTINUOUS
10
102.096
20
-69.6898
11
102.064
21
-69.6906
0
LINE
8
BLACK
6
CONTINUOUS
10
96.0386
20
-67.8707
11
96.0386
21
-67.5888
0
LINE
8
BLACK
6
CONTINUOUS
10
102.633
20
-69.1539
11
102.67
21
-69.1775
0
LINE
8
BLACK
6
CONTINUOUS
10
102.306
20
-69.621
11
102.096
21
-69.6898
0
LINE
8
BLACK
6
CONTINUOUS
10
96.8992
20
-69.4155
11
96.8987
21
-69.2575
0
LINE
8
BLACK
6
CONTINUOUS
10
96.8987
20
-69.2575
11
96.9068
21
-69.2166
0
LINE
8
BLACK
6
CONTINUOUS
10
95.9426
20
-67.3683
11
95.9637
21
-67.4094
0
LINE
8
BLACK
6
CONTINUOUS
10
102.704
20
-69.4041
11
102.696
21
-69.448
0
LINE
8
BLACK
6
CONTINUOUS
10
101.189
20
-70.1691
11
101.189
21
-69.8288
0
LINE
8
BLACK
6
CONTINUOUS
10
101.189
20
-69.1587
11
102.592
21
-69.1458
0
LINE
8
BLACK
6
CONTINUOUS
10
102.592
20
-69.1458
11
102.633
21
-69.1539
0
LINE
8
BLACK
6
CONTINUOUS
10
96.0635
20
-67.8575
11
96.0635
21
-70.2459
0
LINE
8
BLACK
6
CONTINUOUS
10
95.9637
20
-67.4094
11
95.9393
21
-67.4252
0
LINE
8
BLACK
6
CONTINUOUS
10
96.0635
20
-66.9576
11
96.0315
21
-67.2329
0
LINE
8
BLACK
6
CONTINUOUS
10
97.5123
20
-69.6906
11
97.2977
21
-69.6213
0
LINE
8
BLACK
6
CONTINUOUS
10
98.0257
20
-69.7406
11
97.6886
21
-69.7406
0
LINE
8
BLACK
6
CONTINUOUS
10
101.189
20
-69.5789
11
101.189
21
-69.1587
0
LINE
8
BLACK
6
CONTINUOUS
10
98.0257
20
-69.8288
11
98.0257
21
-69.7406
0
LINE
8
BLACK
6
CONTINUOUS
10
101.189
20
-69.8288
11
101.189
21
-69.5789
0
LINE
8
BLACK
6
CONTINUOUS
10
100.327
20
-70.2707
11
100.314
21
-70.2205
0
LINE
8
BLACK
6
CONTINUOUS
10
96.9304
20
-69.1798
11
96.9665
21
-69.1549
0
LINE
8
BLACK
6
CONTINUOUS
10
97.0092
20
-69.1458
11
98.4006
21
-69.1458
0
LINE
8
BLACK
6
CONTINUOUS
10
96.9746
20
-69.5128
11
96.9383
21
-69.492
0
LINE
8
BLACK
6
CONTINUOUS
10
102.694
20
-69.2136
11
102.704
21
-69.2563
0
LINE
8
BLACK
6
CONTINUOUS
10
98.4006
20
-69.1458
11
98.4135
21
-69.5776
0
LINE
8
BLACK
6
CONTINUOUS
10
99.3015
20
-70.2207
11
99.6754
21
-70.1958
0
LINE
8
BLACK
6
CONTINUOUS
10
96.0635
20
-65.2708
11
96.0635
21
-65.9533
0
LINE
8
BLACK
6
CONTINUOUS
10
101.994
20
-69.7302
11
101.951
21
-69.7399
0
LINE
8
BLACK
6
CONTINUOUS
10
96.3107
20
-65.1239
11
96.2781
21
-65.0653
0
LINE
8
BLACK
6
CONTINUOUS
10
95.3886
20
-67.0587
11
95.3909
21
-67.03
0
LINE
8
BLACK
6
CONTINUOUS
10
99.0267
20
-70.2707
11
99.0137
21
-70.2121
0
LINE
8
BLACK
6
CONTINUOUS
10
95.7816
20
-64.8324
11
95.8888
21
-64.9875
0
LINE
8
BLACK
6
CONTINUOUS
10
97.6886
20
-69.7406
11
97.6373
21
-69.7368
0
LINE
8
BLACK
6
CONTINUOUS
10
96.9665
20
-69.1549
11
97.0092
21
-69.1458
0
LINE
8
BLACK
6
CONTINUOUS
10
101.577
20
-69.8275
11
101.577
21
-70.2459
0
LINE
8
BLACK
6
CONTINUOUS
10
98.4135
20
-69.8275
11
98.4135
21
-70.1691
0
LINE
8
BLACK
6
CONTINUOUS
10
102.704
20
-69.2563
11
102.704
21
-69.4041
0
LINE
8
BLACK
6
CONTINUOUS
10
103.539
20
-70.2459
11
103.539
21
-67.8588
0
LINE
8
BLACK
6
CONTINUOUS
10
103.539
20
-66.9588
11
103.539
21
-65.9533
0
LINE
8
BLACK
6
CONTINUOUS
10
102.752
20
-64.8509
11
102.727
21
-64.8377
0
LINE
8
BLACK
6
CONTINUOUS
10
96.8087
20
-64.8862
11
96.794
21
-64.9086
0
LINE
8
BLACK
6
CONTINUOUS
10
102.842
20
-65.2708
11
102.854
21
-65.2456
0
LINE
8
BLACK
6
CONTINUOUS
10
102.826
20
-64.9555
11
102.808
21
-64.9086
0
LINE
8
BLACK
6
CONTINUOUS
10
102.793
20
-64.8862
11
102.774
21
-64.8677
0
LINE
8
BLACK
6
CONTINUOUS
10
96.9421
20
-69.4597
11
96.9383
21
-69.492
0
LINE
8
BLACK
6
CONTINUOUS
10
96.9383
20
-69.2098
11
96.9253
21
-69.2413
0
LINE
8
BLACK
6
CONTINUOUS
10
96.0635
20
-70.2459
11
98.0257
21
-70.2459
0
LINE
8
BLACK
6
CONTINUOUS
10
96.7828
20
-64.9319
11
96.7485
21
-64.9814
0
LINE
8
BLACK
6
CONTINUOUS
10
96.9677
20
-69.4821
11
96.9746
21
-69.5128
0
LINE
8
BLACK
6
CONTINUOUS
10
96.8753
20
-64.8377
11
96.8499
21
-64.8509
0
LINE
8
BLACK
6
CONTINUOUS
10
102.808
20
-64.9086
11
102.793
21
-64.8862
0
LINE
8
BLACK
6
CONTINUOUS
10
96.8499
20
-64.8509
11
96.8283
21
-64.8677
0
LINE
8
BLACK
6
CONTINUOUS
10
102.808
20
-64.9086
11
102.853
21
-64.8298
0
LINE
8
BLACK
6
CONTINUOUS
10
96.9304
20
-69.1798
11
96.9383
21
-69.2098
0
LINE
8
BLACK
6
CONTINUOUS
10
96.7485
20
-64.9814
11
96.7737
21
-65.2583
0
LINE
8
BLACK
6
CONTINUOUS
10
100.301
20
-70.1958
11
100.589
21
-70.2121
0
LINE
8
BLACK
6
CONTINUOUS
10
97.0427
20
-69.5362
11
96.9746
21
-69.5128
0
LINE
8
BLACK
6
CONTINUOUS
10
96.9937
20
-69.1724
11
96.9665
21
-69.1549
0
LINE
8
BLACK
6
CONTINUOUS
10
102.7
20
-64.8273
11
102.671
21
-64.8217
0
LINE
8
BLACK
6
CONTINUOUS
10
102.774
20
-64.8677
11
102.752
21
-64.8509
0
LINE
8
BLACK
6
CONTINUOUS
10
102.727
20
-64.8377
11
102.7
21
-64.8273
0
LINE
8
BLACK
6
CONTINUOUS
10
96.9236
20
-69.4059
11
96.8992
21
-69.4155
0
LINE
8
BLACK
6
CONTINUOUS
10
96.9665
20
-69.1549
11
96.9622
21
-69.1857
0
LINE
8
BLACK
6
CONTINUOUS
10
97.6373
20
-69.7368
11
97.6802
21
-69.716
0
LINE
8
BLACK
6
CONTINUOUS
10
102.561
20
-69.5359
11
102.306
21
-69.621
0
LINE
8
BLACK
6
CONTINUOUS
10
96.9236
20
-69.4059
11
96.9111
21
-69.4577
0
LINE
8
BLACK
6
CONTINUOUS
10
102.672
20
-69.4849
11
102.636
21
-69.5098
0
LINE
8
BLACK
6
CONTINUOUS
10
96.9111
20
-69.4577
11
96.9421
21
-69.4597
0
LINE
8
BLACK
6
CONTINUOUS
10
96.9383
20
-69.492
11
96.9677
21
-69.4821
0
LINE
8
BLACK
6
CONTINUOUS
10
102.641
20
-64.8197
11
96.9614
21
-64.8197
0
LINE
8
BLACK
6
CONTINUOUS
10
96.8283
20
-64.8677
11
96.8087
21
-64.8862
0
LINE
8
BLACK
6
CONTINUOUS
10
96.9317
20
-64.8217
11
96.9025
21
-64.8273
0
LINE
8
BLACK
6
CONTINUOUS
10
97.5123
20
-69.6906
11
97.5438
21
-69.6657
0
LINE
8
BLACK
6
CONTINUOUS
10
96.9253
20
-69.2413
11
96.8987
21
-69.2575
0
LINE
8
BLACK
6
CONTINUOUS
10
96.8987
20
-69.2575
11
96.9236
21
-69.4059
0
LINE
8
BLACK
6
CONTINUOUS
10
96.9025
20
-64.8273
11
96.8753
21
-64.8377
0
LINE
8
BLACK
6
CONTINUOUS
10
96.9622
20
-69.1857
11
96.9304
21
-69.1798
0
LINE
8
BLACK
6
CONTINUOUS
10
102.67
20
-69.1775
11
102.694
21
-69.2136
0
LINE
8
BLACK
6
CONTINUOUS
10
97.5959
20
-69.7246
11
97.5575
21
-69.7046
0
LINE
8
BLACK
6
CONTINUOUS
10
96.7485
20
-64.8318
11
96.794
21
-64.9086
0
LINE
8
BLACK
6
CONTINUOUS
10
102.854
20
-64.9812
11
102.826
21
-64.9555
0
LINE
8
BLACK
6
CONTINUOUS
10
102.671
20
-64.8217
11
102.641
21
-64.8197
0
LINE
8
BLACK
6
CONTINUOUS
10
96.794
20
-64.9086
11
96.7828
21
-64.9319
0
LINE
8
BLACK
6
CONTINUOUS
10
97.5438
20
-69.6657
11
97.5575
21
-69.7046
0
LINE
8
BLACK
6
CONTINUOUS
10
96.9614
20
-64.8197
11
96.9317
21
-64.8217
0
LINE
8
BLACK
6
CONTINUOUS
10
110.491
20
-133.534
11
110.067
21
-133.564
0
LINE
8
BLACK
6
CONTINUOUS
10
87.9937
20
-132.983
11
87.7112
21
-132.665
0
LINE
8
BLACK
6
CONTINUOUS
10
110.067
20
-133.564
11
89.5509
21
-133.563
0
LINE
8
BLACK
6
CONTINUOUS
10
110.902
20
-133.422
11
110.491
21
-133.534
0
LINE
8
BLACK
6
CONTINUOUS
10
88.3328
20
-133.241
11
87.9937
21
-132.983
0
LINE
8
BLACK
6
CONTINUOUS
10
111.62
20
-132.972
11
111.283
21
-133.232
0
LINE
8
BLACK
6
CONTINUOUS
10
89.5509
20
-133.563
11
89.127
21
-133.536
0
LINE
8
BLACK
6
CONTINUOUS
10
111.283
20
-133.232
11
110.902
21
-133.422
0
LINE
8
BLACK
6
CONTINUOUS
10
111.901
20
-132.652
11
111.62
21
-132.972
0
LINE
8
BLACK
6
CONTINUOUS
10
112.113
20
-132.283
11
111.901
21
-132.652
0
LINE
8
BLACK
6
CONTINUOUS
10
87.4958
20
-132.298
11
87.3559
21
-131.896
0
LINE
8
BLACK
6
CONTINUOUS
10
112.26
20
-67.7544
11
112.306
21
-68.192
0
LINE
8
BLACK
6
CONTINUOUS
10
112.25
20
-131.88
11
112.113
21
-132.283
0
LINE
8
BLACK
6
CONTINUOUS
10
87.7112
20
-132.665
11
87.4958
21
-132.298
0
LINE
8
BLACK
6
CONTINUOUS
10
89.127
20
-133.536
11
88.7153
21
-133.428
0
LINE
8
BLACK
6
CONTINUOUS
10
88.7153
20
-133.428
11
88.3328
21
-133.241
0
LINE
8
BLACK
6
CONTINUOUS
10
87.2962
20
-68.208
11
87.3391
21
-67.7706
0
LINE
8
BLACK
6
CONTINUOUS
10
111.92
20
-66.9469
11
112.13
21
-67.334
0
LINE
8
BLACK
6
CONTINUOUS
10
88.6769
20
-66.1295
11
89.0973
21
-65.9995
0
LINE
8
BLACK
6
CONTINUOUS
10
89.0973
20
-65.9995
11
89.5349
21
-65.9533
0
LINE
8
BLACK
6
CONTINUOUS
10
87.4661
20
-67.3495
11
87.6726
21
-66.9609
0
LINE
8
BLACK
6
CONTINUOUS
10
112.306
20
-131.459
11
112.25
21
-131.88
0
LINE
8
BLACK
6
CONTINUOUS
10
87.3391
20
-67.7706
11
87.4661
21
-67.3495
0
LINE
8
BLACK
6
CONTINUOUS
10
110.91
20
-66.1232
11
111.299
21
-66.3297
0
LINE
8
BLACK
6
CONTINUOUS
10
111.64
20
-66.6078
11
111.92
21
-66.9469
0
LINE
8
BLACK
6
CONTINUOUS
10
87.9507
20
-66.6197
11
88.2898
21
-66.3391
0
LINE
8
BLACK
6
CONTINUOUS
10
112.306
20
-68.192
11
112.306
21
-131.459
0
LINE
8
BLACK
6
CONTINUOUS
10
111.299
20
-66.3297
11
111.64
21
-66.6078
0
LINE
8
BLACK
6
CONTINUOUS
10
110.489
20
-65.9962
11
110.91
21
-66.1232
0
LINE
8
BLACK
6
CONTINUOUS
10
112.13
20
-67.334
11
112.26
21
-67.7544
0
LINE
8
BLACK
6
CONTINUOUS
10
87.3559
20
-131.896
11
87.2967
21
-131.474
0
LINE
8
BLACK
6
CONTINUOUS
10
110.051
20
-65.9533
11
110.489
21
-65.9962
0
LINE
8
BLACK
6
CONTINUOUS
10
89.5349
20
-65.9533
11
96.0635
21
-65.9533
0
LINE
8
BLACK
6
CONTINUOUS
10
87.6726
20
-66.9609
11
87.9507
21
-66.6197
0
LINE
8
BLACK
6
CONTINUOUS
10
88.2898
20
-66.3391
11
88.6769
21
-66.1295
0
LINE
8
BLACK
6
CONTINUOUS
10
103.567
20
-65.9533
11
103.564
21
-66.9456
0
LINE
8
BLACK
6
CONTINUOUS
10
96.0635
20
-65.9533
11
96.0386
21
-65.2588
0
LINE
8
BLACK
6
CONTINUOUS
10
96.0635
20
-65.9533
11
96.0635
21
-66.9576
0
LINE
8
BLACK
6
CONTINUOUS
10
103.539
20
-65.9533
11
103.539
21
-65.2708
0
LINE
8
BLACK
6
CONTINUOUS
10
96.0635
20
-65.9533
11
97.0986
21
-65.9398
0
LINE
8
BLACK
6
CONTINUOUS
10
97.0986
20
-65.9398
11
97.7485
21
-65.9517
0
LINE
8
BLACK
6
CONTINUOUS
10
97.7485
20
-65.9517
11
101.829
21
-65.9398
0
LINE
8
BLACK
6
CONTINUOUS
10
101.829
20
-65.9398
11
102.49
21
-65.9268
0
LINE
8
BLACK
6
CONTINUOUS
10
102.49
20
-65.9268
11
103.539
21
-65.9533
0
LINE
8
BLACK
6
CONTINUOUS
10
103.539
20
-65.9533
11
103.567
21
-65.9533
0
LINE
8
BLACK
6
CONTINUOUS
10
103.567
20
-65.9533
11
110.051
21
-65.9533
0
LINE
8
BLACK
6
CONTINUOUS
10
87.2966
20
-131.474
11
87.2962
21
-68.208
0
LINE
8
BLACK
6
CONTINUOUS
10
167.48
20
-113.91
11
168.48
21
-113.91
0
LINE
8
BLACK
6
CONTINUOUS
10
167.98
20
-113.41
11
167.98
21
-114.41
0
LINE
8
BLACK
6
CONTINUOUS
10
174.68
20
-117.61
11
174.68
21
-120.21
0
LINE
8
BLACK
6
CONTINUOUS
10
174.68
20
-112.61
11
174.68
21
-115.21
0
LINE
8
BLACK
6
CONTINUOUS
10
174.68
20
-107.61
11
174.68
21
-110.21
0
LINE
8
BLACK
6
CONTINUOUS
10
160.78
20
-109.81
11
160.48
21
-110.11
0
LINE
8
BLACK
6
CONTINUOUS
10
160.18
20
-109.81
11
160.78
21
-109.81
0
LINE
8
BLACK
6
CONTINUOUS
10
160.48
20
-110.11
11
160.18
21
-109.81
0
LINE
8
BLACK
6
CONTINUOUS
10
161.28
20
-107.61
11
161.28
21
-110.11
0
LINE
8
BLACK
6
CONTINUOUS
10
166.08
20
-107.61
11
161.28
21
-107.61
0
LINE
8
BLACK
6
CONTINUOUS
10
161.28
20
-120.21
11
161.28
21
-117.41
0
LINE
8
BLACK
6
CONTINUOUS
10
166.18
20
-120.21
11
161.28
21
-120.21
0
LINE
8
BLACK
6
CONTINUOUS
10
174.68
20
-120.21
11
169.78
21
-120.21
0
LINE
8
BLACK
6
CONTINUOUS
10
169.78
20
-107.61
11
174.68
21
-107.61
0
CIRCLE
8
BLACK
10
167.98
20
-113.91
40
3
0
LINE
8
BLACK
6
CONTINUOUS
10
185.62
20
-128.93
11
184.57
21
-128.93
0
LINE
8
BLACK
6
CONTINUOUS
10
184.57
20
-129.98
11
184.57
21
-128.93
0
LINE
8
BLACK
6
CONTINUOUS
10
193.97
20
-135.03
11
193.97
21
-143.83
0
LINE
8
BLACK
6
CONTINUOUS
10
193.97
20
-143.83
11
184.77
21
-143.83
0
LINE
8
BLACK
6
CONTINUOUS
10
191.27
20
-129.13
11
193.97
21
-129.13
0
LINE
8
BLACK
6
CONTINUOUS
10
193.97
20
-129.13
11
193.97
21
-131.03
0
LINE
8
BLACK
6
CONTINUOUS
10
184.77
20
-143.83
11
184.77
21
-129.13
0
LINE
8
BLACK
6
CONTINUOUS
10
184.77
20
-129.13
11
187.37
21
-129.13
0
LINE
8
BLACK
6
CONTINUOUS
10
174.69
20
-94.12
11
181.34
21
-94.12
0
LINE
8
BLACK
6
CONTINUOUS
10
181.34
20
-94.12
11
181.34
21
-66.32
0
LINE
8
BLACK
6
CONTINUOUS
10
181.34
20
-66.32
11
154.04
21
-66.32
0
LINE
8
BLACK
6
CONTINUOUS
10
154.04
20
-66.32
11
154.04
21
-94.12
0
LINE
8
BLACK
6
CONTINUOUS
10
154.04
20
-94.12
11
160.69
21
-94.12
0
LINE
8
BLACK
6
CONTINUOUS
10
174.69
20
-94.12
11
174.69
21
-92.12
0
LINE
8
BLACK
6
CONTINUOUS
10
174.69
20
-92.12
11
160.69
21
-92.12
0
LINE
8
BLACK
6
CONTINUOUS
10
160.69
20
-92.12
11
160.69
21
-94.12
0
LINE
8
BLACK
6
CONTINUOUS
10
135.478
20
-91.7124
11
135.478
21
-92.5219
0
LINE
8
BLACK
6
CONTINUOUS
10
135.478
20
-92.5219
11
135.526
21
-92.6171
0
LINE
8
BLACK
6
CONTINUOUS
10
135.526
20
-92.6171
11
135.573
21
-92.6648
0
LINE
8
BLACK
6
CONTINUOUS
10
135.573
20
-92.6648
11
135.669
21
-92.7124
0
LINE
8
BLACK
6
CONTINUOUS
10
135.669
20
-92.7124
11
135.859
21
-92.7124
0
LINE
8
BLACK
6
CONTINUOUS
10
135.859
20
-92.7124
11
135.954
21
-92.6648
0
LINE
8
BLACK
6
CONTINUOUS
10
135.954
20
-92.6648
11
136.002
21
-92.6171
0
LINE
8
BLACK
6
CONTINUOUS
10
136.002
20
-92.6171
11
136.05
21
-92.5219
0
LINE
8
BLACK
6
CONTINUOUS
10
136.05
20
-92.5219
11
136.05
21
-91.7124
0
LINE
8
BLACK
6
CONTINUOUS
10
136.478
20
-91.8076
11
136.526
21
-91.76
0
LINE
8
BLACK
6
CONTINUOUS
10
136.526
20
-91.76
11
136.621
21
-91.7124
0
LINE
8
BLACK
6
CONTINUOUS
10
136.621
20
-91.7124
11
136.859
21
-91.7124
0
LINE
8
BLACK
6
CONTINUOUS
10
136.859
20
-91.7124
11
136.954
21
-91.76
0
LINE
8
BLACK
6
CONTINUOUS
10
136.954
20
-91.76
11
137.002
21
-91.8076
0
LINE
8
BLACK
6
CONTINUOUS
10
137.002
20
-91.8076
11
137.05
21
-91.9029
0
LINE
8
BLACK
6
CONTINUOUS
10
137.05
20
-91.9029
11
137.05
21
-91.9981
0
LINE
8
BLACK
6
CONTINUOUS
10
137.05
20
-91.9981
11
137.002
21
-92.141
0
LINE
8
BLACK
6
CONTINUOUS
10
137.002
20
-92.141
11
136.43
21
-92.7124
0
LINE
8
BLACK
6
CONTINUOUS
10
136.43
20
-92.7124
11
137.05
21
-92.7124
0
LINE
8
BLACK
6
CONTINUOUS
10
133.254
20
-95.0824
11
133.825
21
-95.0824
0
LINE
8
BLACK
6
CONTINUOUS
10
133.54
20
-96.0824
11
133.54
21
-95.0824
0
LINE
8
BLACK
6
CONTINUOUS
10
134.159
20
-96.0824
11
134.159
21
-95.4157
0
LINE
8
BLACK
6
CONTINUOUS
10
134.159
20
-95.0824
11
134.111
21
-95.13
0
LINE
8
BLACK
6
CONTINUOUS
10
134.111
20
-95.13
11
134.159
21
-95.1776
0
LINE
8
BLACK
6
CONTINUOUS
10
134.159
20
-95.1776
11
134.206
21
-95.13
0
LINE
8
BLACK
6
CONTINUOUS
10
134.206
20
-95.13
11
134.159
21
-95.0824
0
LINE
8
BLACK
6
CONTINUOUS
10
134.159
20
-95.0824
11
134.159
21
-95.1776
0
LINE
8
BLACK
6
CONTINUOUS
10
134.635
20
-95.4157
11
134.635
21
-96.0824
0
LINE
8
BLACK
6
CONTINUOUS
10
134.635
20
-95.511
11
134.682
21
-95.4633
0
LINE
8
BLACK
6
CONTINUOUS
10
134.682
20
-95.4633
11
134.778
21
-95.4157
0
LINE
8
BLACK
6
CONTINUOUS
10
134.778
20
-95.4157
11
134.92
21
-95.4157
0
LINE
8
BLACK
6
CONTINUOUS
10
134.92
20
-95.4157
11
135.016
21
-95.4633
0
LINE
8
BLACK
6
CONTINUOUS
10
135.016
20
-95.4633
11
135.063
21
-95.5586
0
LINE
8
BLACK
6
CONTINUOUS
10
135.063
20
-95.5586
11
135.063
21
-96.0824
0
LINE
8
BLACK
6
CONTINUOUS
10
135.444
20
-95.4157
11
135.682
21
-96.0824
0
LINE
8
BLACK
6
CONTINUOUS
10
135.92
20
-95.4157
11
135.682
21
-96.0824
0
LINE
8
BLACK
6
CONTINUOUS
10
135.682
20
-96.0824
11
135.587
21
-96.3205
0
LINE
8
BLACK
6
CONTINUOUS
10
135.587
20
-96.3205
11
135.54
21
-96.3681
0
LINE
8
BLACK
6
CONTINUOUS
10
135.54
20
-96.3681
11
135.444
21
-96.4157
0
LINE
8
BLACK
6
CONTINUOUS
10
136.301
20
-96.0824
11
136.301
21
-95.0824
0
LINE
8
BLACK
6
CONTINUOUS
10
136.301
20
-95.0824
11
136.682
21
-95.0824
0
LINE
8
BLACK
6
CONTINUOUS
10
136.682
20
-95.0824
11
136.778
21
-95.13
0
LINE
8
BLACK
6
CONTINUOUS
10
136.778
20
-95.13
11
136.825
21
-95.1776
0
LINE
8
BLACK
6
CONTINUOUS
10
136.825
20
-95.1776
11
136.873
21
-95.2729
0
LINE
8
BLACK
6
CONTINUOUS
10
136.873
20
-95.2729
11
136.873
21
-95.4157
0
LINE
8
BLACK
6
CONTINUOUS
10
136.873
20
-95.4157
11
136.825
21
-95.511
0
LINE
8
BLACK
6
CONTINUOUS
10
136.825
20
-95.511
11
136.778
21
-95.5586
0
LINE
8
BLACK
6
CONTINUOUS
10
136.778
20
-95.5586
11
136.682
21
-95.6062
0
LINE
8
BLACK
6
CONTINUOUS
10
136.682
20
-95.6062
11
136.301
21
-95.6062
0
LINE
8
BLACK
6
CONTINUOUS
10
137.301
20
-96.0824
11
137.301
21
-95.4157
0
LINE
8
BLACK
6
CONTINUOUS
10
137.301
20
-95.0824
11
137.254
21
-95.13
0
LINE
8
BLACK
6
CONTINUOUS
10
137.254
20
-95.13
11
137.301
21
-95.1776
0
LINE
8
BLACK
6
CONTINUOUS
10
137.301
20
-95.1776
11
137.349
21
-95.13
0
LINE
8
BLACK
6
CONTINUOUS
10
137.349
20
-95.13
11
137.301
21
-95.0824
0
LINE
8
BLACK
6
CONTINUOUS
10
137.301
20
-95.0824
11
137.301
21
-95.1776
0
LINE
8
BLACK
6
CONTINUOUS
10
138.206
20
-96.0348
11
138.111
21
-96.0824
0
LINE
8
BLACK
6
CONTINUOUS
10
138.111
20
-96.0824
11
137.92
21
-96.0824
0
LINE
8
BLACK
6
CONTINUOUS
10
137.92
20
-96.0824
11
137.825
21
-96.0348
0
LINE
8
BLACK
6
CONTINUOUS
10
137.825
20
-96.0348
11
137.778
21
-95.9871
0
LINE
8
BLACK
6
CONTINUOUS
10
137.778
20
-95.9871
11
137.73
21
-95.8919
0
LINE
8
BLACK
6
CONTINUOUS
10
137.73
20
-95.8919
11
137.73
21
-95.6062
0
LINE
8
BLACK
6
CONTINUOUS
10
137.73
20
-95.6062
11
137.778
21
-95.511
0
LINE
8
BLACK
6
CONTINUOUS
10
137.778
20
-95.511
11
137.825
21
-95.4633
0
LINE
8
BLACK
6
CONTINUOUS
10
137.825
20
-95.4633
11
137.92
21
-95.4157
0
LINE
8
BLACK
6
CONTINUOUS
10
137.92
20
-95.4157
11
138.111
21
-95.4157
0
LINE
8
BLACK
6
CONTINUOUS
10
138.111
20
-95.4157
11
138.206
21
-95.4633
0
LINE
8
BLACK
6
CONTINUOUS
10
138.778
20
-96.0824
11
138.682
21
-96.0348
0
LINE
8
BLACK
6
CONTINUOUS
10
138.682
20
-96.0348
11
138.635
21
-95.9871
0
LINE
8
BLACK
6
CONTINUOUS
10
138.635
20
-95.9871
11
138.587
21
-95.8919
0
LINE
8
BLACK
6
CONTINUOUS
10
138.587
20
-95.8919
11
138.587
21
-95.6062
0
LINE
8
BLACK
6
CONTINUOUS
10
138.587
20
-95.6062
11
138.635
21
-95.511
0
LINE
8
BLACK
6
CONTINUOUS
10
138.635
20
-95.511
11
138.682
21
-95.4633
0
LINE
8
BLACK
6
CONTINUOUS
10
138.682
20
-95.4633
11
138.778
21
-95.4157
0
LINE
8
BLACK
6
CONTINUOUS
10
138.778
20
-95.4157
11
138.92
21
-95.4157
0
LINE
8
BLACK
6
CONTINUOUS
10
138.92
20
-95.4157
11
139.016
21
-95.4633
0
LINE
8
BLACK
6
CONTINUOUS
10
139.016
20
-95.4633
11
139.063
21
-95.511
0
LINE
8
BLACK
6
CONTINUOUS
10
139.063
20
-95.511
11
139.111
21
-95.6062
0
LINE
8
BLACK
6
CONTINUOUS
10
139.111
20
-95.6062
11
139.111
21
-95.8919
0
LINE
8
BLACK
6
CONTINUOUS
10
139.111
20
-95.8919
11
139.063
21
-95.9871
0
LINE
8
BLACK
6
CONTINUOUS
10
139.063
20
-95.9871
11
139.016
21
-96.0348
0
LINE
8
BLACK
6
CONTINUOUS
10
139.016
20
-96.0348
11
138.92
21
-96.0824
0
LINE
8
BLACK
6
CONTINUOUS
10
138.92
20
-96.0824
11
138.778
21
-96.0824
0
LINE
8
BLACK
6
CONTINUOUS
10
130.861
20
-67.7524
11
130.861
21
-66.7524
0
LINE
8
BLACK
6
CONTINUOUS
10
131.527
20
-66.7524
11
131.718
21
-66.7524
0
LINE
8
BLACK
6
CONTINUOUS
10
131.718
20
-66.7524
11
131.813
21
-66.8
0
LINE
8
BLACK
6
CONTINUOUS
10
131.813
20
-66.8
11
131.908
21
-66.8952
0
LINE
8
BLACK
6
CONTINUOUS
10
131.908
20
-66.8952
11
131.956
21
-67.0857
0
LINE
8
BLACK
6
CONTINUOUS
10
131.956
20
-67.0857
11
131.956
21
-67.419
0
LINE
8
BLACK
6
CONTINUOUS
10
131.956
20
-67.419
11
131.908
21
-67.6095
0
LINE
8
BLACK
6
CONTINUOUS
10
131.908
20
-67.6095
11
131.813
21
-67.7048
0
LINE
8
BLACK
6
CONTINUOUS
10
131.813
20
-67.7048
11
131.718
21
-67.7524
0
LINE
8
BLACK
6
CONTINUOUS
10
131.718
20
-67.7524
11
131.527
21
-67.7524
0
LINE
8
BLACK
6
CONTINUOUS
10
131.527
20
-67.7524
11
131.432
21
-67.7048
0
LINE
8
BLACK
6
CONTINUOUS
10
131.432
20
-67.7048
11
131.337
21
-67.6095
0
LINE
8
BLACK
6
CONTINUOUS
10
131.337
20
-67.6095
11
131.289
21
-67.419
0
LINE
8
BLACK
6
CONTINUOUS
10
131.289
20
-67.419
11
131.289
21
-67.0857
0
LINE
8
BLACK
6
CONTINUOUS
10
131.289
20
-67.0857
11
131.337
21
-66.8952
0
LINE
8
BLACK
6
CONTINUOUS
10
131.337
20
-66.8952
11
131.432
21
-66.8
0
LINE
8
BLACK
6
CONTINUOUS
10
131.432
20
-66.8
11
131.527
21
-66.7524
0
LINE
8
BLACK
6
CONTINUOUS
10
132.337
20
-66.8476
11
132.384
21
-66.8
0
LINE
8
BLACK
6
CONTINUOUS
10
132.384
20
-66.8
11
132.48
21
-66.7524
0
LINE
8
BLACK
6
CONTINUOUS
10
132.48
20
-66.7524
11
132.718
21
-66.7524
0
LINE
8
BLACK
6
CONTINUOUS
10
132.718
20
-66.7524
11
132.813
21
-66.8
0
LINE
8
BLACK
6
CONTINUOUS
10
132.813
20
-66.8
11
132.861
21
-66.8476
0
LINE
8
BLACK
6
CONTINUOUS
10
132.861
20
-66.8476
11
132.908
21
-66.9429
0
LINE
8
BLACK
6
CONTINUOUS
10
132.908
20
-66.9429
11
132.908
21
-67.0381
0
LINE
8
BLACK
6
CONTINUOUS
10
132.908
20
-67.0381
11
132.861
21
-67.181
0
LINE
8
BLACK
6
CONTINUOUS
10
132.861
20
-67.181
11
132.289
21
-67.7524
0
LINE
8
BLACK
6
CONTINUOUS
10
132.289
20
-67.7524
11
132.908
21
-67.7524
0
LINE
8
BLACK
6
CONTINUOUS
10
133.242
20
-66.7524
11
133.861
21
-66.7524
0
LINE
8
BLACK
6
CONTINUOUS
10
133.861
20
-66.7524
11
133.527
21
-67.1333
0
LINE
8
BLACK
6
CONTINUOUS
10
133.527
20
-67.1333
11
133.67
21
-67.1333
0
LINE
8
BLACK
6
CONTINUOUS
10
133.67
20
-67.1333
11
133.765
21
-67.181
0
LINE
8
BLACK
6
CONTINUOUS
10
133.765
20
-67.181
11
133.813
21
-67.2286
0
LINE
8
BLACK
6
CONTINUOUS
10
133.813
20
-67.2286
11
133.861
21
-67.3238
0
LINE
8
BLACK
6
CONTINUOUS
10
133.861
20
-67.3238
11
133.861
21
-67.5619
0
LINE
8
BLACK
6
CONTINUOUS
10
133.861
20
-67.5619
11
133.813
21
-67.6571
0
LINE
8
BLACK
6
CONTINUOUS
10
133.813
20
-67.6571
11
133.765
21
-67.7048
0
LINE
8
BLACK
6
CONTINUOUS
10
133.765
20
-67.7048
11
133.67
21
-67.7524
0
LINE
8
BLACK
6
CONTINUOUS
10
133.67
20
-67.7524
11
133.384
21
-67.7524
0
LINE
8
BLACK
6
CONTINUOUS
10
133.384
20
-67.7524
11
133.289
21
-67.7048
0
LINE
8
BLACK
6
CONTINUOUS
10
133.289
20
-67.7048
11
133.242
21
-67.6571
0
LINE
8
BLACK
6
CONTINUOUS
10
130.861
20
-70.2924
11
130.861
21
-69.2924
0
LINE
8
BLACK
6
CONTINUOUS
10
131.527
20
-69.2924
11
131.718
21
-69.2924
0
LINE
8
BLACK
6
CONTINUOUS
10
131.718
20
-69.2924
11
131.813
21
-69.34
0
LINE
8
BLACK
6
CONTINUOUS
10
131.813
20
-69.34
11
131.908
21
-69.4352
0
LINE
8
BLACK
6
CONTINUOUS
10
131.908
20
-69.4352
11
131.956
21
-69.6257
0
LINE
8
BLACK
6
CONTINUOUS
10
131.956
20
-69.6257
11
131.956
21
-69.959
0
LINE
8
BLACK
6
CONTINUOUS
10
131.956
20
-69.959
11
131.908
21
-70.1495
0
LINE
8
BLACK
6
CONTINUOUS
10
131.908
20
-70.1495
11
131.813
21
-70.2448
0
LINE
8
BLACK
6
CONTINUOUS
10
131.813
20
-70.2448
11
131.718
21
-70.2924
0
LINE
8
BLACK
6
CONTINUOUS
10
131.718
20
-70.2924
11
131.527
21
-70.2924
0
LINE
8
BLACK
6
CONTINUOUS
10
131.527
20
-70.2924
11
131.432
21
-70.2448
0
LINE
8
BLACK
6
CONTINUOUS
10
131.432
20
-70.2448
11
131.337
21
-70.1495
0
LINE
8
BLACK
6
CONTINUOUS
10
131.337
20
-70.1495
11
131.289
21
-69.959
0
LINE
8
BLACK
6
CONTINUOUS
10
131.289
20
-69.959
11
131.289
21
-69.6257
0
LINE
8
BLACK
6
CONTINUOUS
10
131.289
20
-69.6257
11
131.337
21
-69.4352
0
LINE
8
BLACK
6
CONTINUOUS
10
131.337
20
-69.4352
11
131.432
21
-69.34
0
LINE
8
BLACK
6
CONTINUOUS
10
131.432
20
-69.34
11
131.527
21
-69.2924
0
LINE
8
BLACK
6
CONTINUOUS
10
132.908
20
-70.2924
11
132.337
21
-70.2924
0
LINE
8
BLACK
6
CONTINUOUS
10
132.623
20
-70.2924
11
132.623
21
-69.2924
0
LINE
8
BLACK
6
CONTINUOUS
10
132.623
20
-69.2924
11
132.527
21
-69.4352
0
LINE
8
BLACK
6
CONTINUOUS
10
132.527
20
-69.4352
11
132.432
21
-69.5305
0
LINE
8
BLACK
6
CONTINUOUS
10
132.432
20
-69.5305
11
132.337
21
-69.5781
0
LINE
8
BLACK
6
CONTINUOUS
10
133.384
20
-70.2924
11
133.575
21
-70.2924
0
LINE
8
BLACK
6
CONTINUOUS
10
133.575
20
-70.2924
11
133.67
21
-70.2448
0
LINE
8
BLACK
6
CONTINUOUS
10
133.67
20
-70.2448
11
133.718
21
-70.1971
0
LINE
8
BLACK
6
CONTINUOUS
10
133.718
20
-70.1971
11
133.813
21
-70.0543
0
LINE
8
BLACK
6
CONTINUOUS
10
133.813
20
-70.0543
11
133.861
21
-69.8638
0
LINE
8
BLACK
6
CONTINUOUS
10
133.861
20
-69.8638
11
133.861
21
-69.4829
0
LINE
8
BLACK
6
CONTINUOUS
10
133.861
20
-69.4829
11
133.813
21
-69.3876
0
LINE
8
BLACK
6
CONTINUOUS
10
133.813
20
-69.3876
11
133.765
21
-69.34
0
LINE
8
BLACK
6
CONTINUOUS
10
133.765
20
-69.34
11
133.67
21
-69.2924
0
LINE
8
BLACK
6
CONTINUOUS
10
133.67
20
-69.2924
11
133.48
21
-69.2924
0
LINE
8
BLACK
6
CONTINUOUS
10
133.48
20
-69.2924
11
133.384
21
-69.34
0
LINE
8
BLACK
6
CONTINUOUS
10
133.384
20
-69.34
11
133.337
21
-69.3876
0
LINE
8
BLACK
6
CONTINUOUS
10
133.337
20
-69.3876
11
133.289
21
-69.4829
0
LINE
8
BLACK
6
CONTINUOUS
10
133.289
20
-69.4829
11
133.289
21
-69.721
0
LINE
8
BLACK
6
CONTINUOUS
10
133.289
20
-69.721
11
133.337
21
-69.8162
0
LINE
8
BLACK
6
CONTINUOUS
10
133.337
20
-69.8162
11
133.384
21
-69.8638
0
LINE
8
BLACK
6
CONTINUOUS
10
133.384
20
-69.8638
11
133.48
21
-69.9114
0
LINE
8
BLACK
6
CONTINUOUS
10
133.48
20
-69.9114
11
133.67
21
-69.9114
0
LINE
8
BLACK
6
CONTINUOUS
10
133.67
20
-69.9114
11
133.765
21
-69.8638
0
LINE
8
BLACK
6
CONTINUOUS
10
133.765
20
-69.8638
11
133.813
21
-69.8162
0
LINE
8
BLACK
6
CONTINUOUS
10
133.813
20
-69.8162
11
133.861
21
-69.721
0
LINE
8
BLACK
6
CONTINUOUS
10
130.861
20
-72.8324
11
130.861
21
-71.8324
0
LINE
8
BLACK
6
CONTINUOUS
10
131.527
20
-71.8324
11
131.718
21
-71.8324
0
LINE
8
BLACK
6
CONTINUOUS
10
131.718
20
-71.8324
11
131.813
21
-71.88
0
LINE
8
BLACK
6
CONTINUOUS
10
131.813
20
-71.88
11
131.908
21
-71.9752
0
LINE
8
BLACK
6
CONTINUOUS
10
131.908
20
-71.9752
11
131.956
21
-72.1657
0
LINE
8
BLACK
6
CONTINUOUS
10
131.956
20
-72.1657
11
131.956
21
-72.499
0
LINE
8
BLACK
6
CONTINUOUS
10
131.956
20
-72.499
11
131.908
21
-72.6895
0
LINE
8
BLACK
6
CONTINUOUS
10
131.908
20
-72.6895
11
131.813
21
-72.7848
0
LINE
8
BLACK
6
CONTINUOUS
10
131.813
20
-72.7848
11
131.718
21
-72.8324
0
LINE
8
BLACK
6
CONTINUOUS
10
131.718
20
-72.8324
11
131.527
21
-72.8324
0
LINE
8
BLACK
6
CONTINUOUS
10
131.527
20
-72.8324
11
131.432
21
-72.7848
0
LINE
8
BLACK
6
CONTINUOUS
10
131.432
20
-72.7848
11
131.337
21
-72.6895
0
LINE
8
BLACK
6
CONTINUOUS
10
131.337
20
-72.6895
11
131.289
21
-72.499
0
LINE
8
BLACK
6
CONTINUOUS
10
131.289
20
-72.499
11
131.289
21
-72.1657
0
LINE
8
BLACK
6
CONTINUOUS
10
131.289
20
-72.1657
11
131.337
21
-71.9752
0
LINE
8
BLACK
6
CONTINUOUS
10
131.337
20
-71.9752
11
131.432
21
-71.88
0
LINE
8
BLACK
6
CONTINUOUS
10
131.432
20
-71.88
11
131.527
21
-71.8324
0
LINE
8
BLACK
6
CONTINUOUS
10
132.908
20
-72.8324
11
132.337
21
-72.8324
0
LINE
8
BLACK
6
CONTINUOUS
10
132.623
20
-72.8324
11
132.623
21
-71.8324
0
LINE
8
BLACK
6
CONTINUOUS
10
132.623
20
-71.8324
11
132.527
21
-71.9752
0
LINE
8
BLACK
6
CONTINUOUS
10
132.527
20
-71.9752
11
132.432
21
-72.0705
0
LINE
8
BLACK
6
CONTINUOUS
10
132.432
20
-72.0705
11
132.337
21
-72.1181
0
LINE
8
BLACK
6
CONTINUOUS
10
133.48
20
-72.261
11
133.384
21
-72.2133
0
LINE
8
BLACK
6
CONTINUOUS
10
133.384
20
-72.2133
11
133.337
21
-72.1657
0
LINE
8
BLACK
6
CONTINUOUS
10
133.337
20
-72.1657
11
133.289
21
-72.0705
0
LINE
8
BLACK
6
CONTINUOUS
10
133.289
20
-72.0705
11
133.289
21
-72.0229
0
LINE
8
BLACK
6
CONTINUOUS
10
133.289
20
-72.0229
11
133.337
21
-71.9276
0
LINE
8
BLACK
6
CONTINUOUS
10
133.337
20
-71.9276
11
133.384
21
-71.88
0
LINE
8
BLACK
6
CONTINUOUS
10
133.384
20
-71.88
11
133.48
21
-71.8324
0
LINE
8
BLACK
6
CONTINUOUS
10
133.48
20
-71.8324
11
133.67
21
-71.8324
0
LINE
8
BLACK
6
CONTINUOUS
10
133.67
20
-71.8324
11
133.765
21
-71.88
0
LINE
8
BLACK
6
CONTINUOUS
10
133.765
20
-71.88
11
133.813
21
-71.9276
0
LINE
8
BLACK
6
CONTINUOUS
10
133.813
20
-71.9276
11
133.861
21
-72.0229
0
LINE
8
BLACK
6
CONTINUOUS
10
133.861
20
-72.0229
11
133.861
21
-72.0705
0
LINE
8
BLACK
6
CONTINUOUS
10
133.861
20
-72.0705
11
133.813
21
-72.1657
0
LINE
8
BLACK
6
CONTINUOUS
10
133.813
20
-72.1657
11
133.765
21
-72.2133
0
LINE
8
BLACK
6
CONTINUOUS
10
133.765
20
-72.2133
11
133.67
21
-72.261
0
LINE
8
BLACK
6
CONTINUOUS
10
133.67
20
-72.261
11
133.48
21
-72.261
0
LINE
8
BLACK
6
CONTINUOUS
10
133.48
20
-72.261
11
133.384
21
-72.3086
0
LINE
8
BLACK
6
CONTINUOUS
10
133.384
20
-72.3086
11
133.337
21
-72.3562
0
LINE
8
BLACK
6
CONTINUOUS
10
133.337
20
-72.3562
11
133.289
21
-72.4514
0
LINE
8
BLACK
6
CONTINUOUS
10
133.289
20
-72.4514
11
133.289
21
-72.6419
0
LINE
8
BLACK
6
CONTINUOUS
10
133.289
20
-72.6419
11
133.337
21
-72.7371
0
LINE
8
BLACK
6
CONTINUOUS
10
133.337
20
-72.7371
11
133.384
21
-72.7848
0
LINE
8
BLACK
6
CONTINUOUS
10
133.384
20
-72.7848
11
133.48
21
-72.8324
0
LINE
8
BLACK
6
CONTINUOUS
10
133.48
20
-72.8324
11
133.67
21
-72.8324
0
LINE
8
BLACK
6
CONTINUOUS
10
133.67
20
-72.8324
11
133.765
21
-72.7848
0
LINE
8
BLACK
6
CONTINUOUS
10
133.765
20
-72.7848
11
133.813
21
-72.7371
0
LINE
8
BLACK
6
CONTINUOUS
10
133.813
20
-72.7371
11
133.861
21
-72.6419
0
LINE
8
BLACK
6
CONTINUOUS
10
133.861
20
-72.6419
11
133.861
21
-72.4514
0
LINE
8
BLACK
6
CONTINUOUS
10
133.861
20
-72.4514
11
133.813
21
-72.3562
0
LINE
8
BLACK
6
CONTINUOUS
10
133.813
20
-72.3562
11
133.765
21
-72.3086
0
LINE
8
BLACK
6
CONTINUOUS
10
133.765
20
-72.3086
11
133.67
21
-72.261
0
LINE
8
BLACK
6
CONTINUOUS
10
130.861
20
-75.3724
11
130.861
21
-74.3724
0
LINE
8
BLACK
6
CONTINUOUS
10
131.527
20
-74.3724
11
131.718
21
-74.3724
0
LINE
8
BLACK
6
CONTINUOUS
10
131.718
20
-74.3724
11
131.813
21
-74.42
0
LINE
8
BLACK
6
CONTINUOUS
10
131.813
20
-74.42
11
131.908
21
-74.5152
0
LINE
8
BLACK
6
CONTINUOUS
10
131.908
20
-74.5152
11
131.956
21
-74.7057
0
LINE
8
BLACK
6
CONTINUOUS
10
131.956
20
-74.7057
11
131.956
21
-75.039
0
LINE
8
BLACK
6
CONTINUOUS
10
131.956
20
-75.039
11
131.908
21
-75.2295
0
LINE
8
BLACK
6
CONTINUOUS
10
131.908
20
-75.2295
11
131.813
21
-75.3248
0
LINE
8
BLACK
6
CONTINUOUS
10
131.813
20
-75.3248
11
131.718
21
-75.3724
0
LINE
8
BLACK
6
CONTINUOUS
10
131.718
20
-75.3724
11
131.527
21
-75.3724
0
LINE
8
BLACK
6
CONTINUOUS
10
131.527
20
-75.3724
11
131.432
21
-75.3248
0
LINE
8
BLACK
6
CONTINUOUS
10
131.432
20
-75.3248
11
131.337
21
-75.2295
0
LINE
8
BLACK
6
CONTINUOUS
10
131.337
20
-75.2295
11
131.289
21
-75.039
0
LINE
8
BLACK
6
CONTINUOUS
10
131.289
20
-75.039
11
131.289
21
-74.7057
0
LINE
8
BLACK
6
CONTINUOUS
10
131.289
20
-74.7057
11
131.337
21
-74.5152
0
LINE
8
BLACK
6
CONTINUOUS
10
131.337
20
-74.5152
11
131.432
21
-74.42
0
LINE
8
BLACK
6
CONTINUOUS
10
131.432
20
-74.42
11
131.527
21
-74.3724
0
LINE
8
BLACK
6
CONTINUOUS
10
132.861
20
-74.3724
11
132.384
21
-74.3724
0
LINE
8
BLACK
6
CONTINUOUS
10
132.384
20
-74.3724
11
132.337
21
-74.8486
0
LINE
8
BLACK
6
CONTINUOUS
10
132.337
20
-74.8486
11
132.384
21
-74.801
0
LINE
8
BLACK
6
CONTINUOUS
10
132.384
20
-74.801
11
132.48
21
-74.7533
0
LINE
8
BLACK
6
CONTINUOUS
10
132.48
20
-74.7533
11
132.718
21
-74.7533
0
LINE
8
BLACK
6
CONTINUOUS
10
132.718
20
-74.7533
11
132.813
21
-74.801
0
LINE
8
BLACK
6
CONTINUOUS
10
132.813
20
-74.801
11
132.861
21
-74.8486
0
LINE
8
BLACK
6
CONTINUOUS
10
132.861
20
-74.8486
11
132.908
21
-74.9438
0
LINE
8
BLACK
6
CONTINUOUS
10
132.908
20
-74.9438
11
132.908
21
-75.1819
0
LINE
8
BLACK
6
CONTINUOUS
10
132.908
20
-75.1819
11
132.861
21
-75.2771
0
LINE
8
BLACK
6
CONTINUOUS
10
132.861
20
-75.2771
11
132.813
21
-75.3248
0
LINE
8
BLACK
6
CONTINUOUS
10
132.813
20
-75.3248
11
132.718
21
-75.3724
0
LINE
8
BLACK
6
CONTINUOUS
10
132.718
20
-75.3724
11
132.48
21
-75.3724
0
LINE
8
BLACK
6
CONTINUOUS
10
132.48
20
-75.3724
11
132.384
21
-75.3248
0
LINE
8
BLACK
6
CONTINUOUS
10
132.384
20
-75.3248
11
132.337
21
-75.2771
0
LINE
8
BLACK
6
CONTINUOUS
10
130.861
20
-77.9124
11
130.861
21
-76.9124
0
LINE
8
BLACK
6
CONTINUOUS
10
131.527
20
-76.9124
11
131.718
21
-76.9124
0
LINE
8
BLACK
6
CONTINUOUS
10
131.718
20
-76.9124
11
131.813
21
-76.96
0
LINE
8
BLACK
6
CONTINUOUS
10
131.813
20
-76.96
11
131.908
21
-77.0552
0
LINE
8
BLACK
6
CONTINUOUS
10
131.908
20
-77.0552
11
131.956
21
-77.2457
0
LINE
8
BLACK
6
CONTINUOUS
10
131.956
20
-77.2457
11
131.956
21
-77.579
0
LINE
8
BLACK
6
CONTINUOUS
10
131.956
20
-77.579
11
131.908
21
-77.7695
0
LINE
8
BLACK
6
CONTINUOUS
10
131.908
20
-77.7695
11
131.813
21
-77.8648
0
LINE
8
BLACK
6
CONTINUOUS
10
131.813
20
-77.8648
11
131.718
21
-77.9124
0
LINE
8
BLACK
6
CONTINUOUS
10
131.718
20
-77.9124
11
131.527
21
-77.9124
0
LINE
8
BLACK
6
CONTINUOUS
10
131.527
20
-77.9124
11
131.432
21
-77.8648
0
LINE
8
BLACK
6
CONTINUOUS
10
131.432
20
-77.8648
11
131.337
21
-77.7695
0
LINE
8
BLACK
6
CONTINUOUS
10
131.337
20
-77.7695
11
131.289
21
-77.579
0
LINE
8
BLACK
6
CONTINUOUS
10
131.289
20
-77.579
11
131.289
21
-77.2457
0
LINE
8
BLACK
6
CONTINUOUS
10
131.289
20
-77.2457
11
131.337
21
-77.0552
0
LINE
8
BLACK
6
CONTINUOUS
10
131.337
20
-77.0552
11
131.432
21
-76.96
0
LINE
8
BLACK
6
CONTINUOUS
10
131.432
20
-76.96
11
131.527
21
-76.9124
0
LINE
8
BLACK
6
CONTINUOUS
10
132.337
20
-77.0076
11
132.384
21
-76.96
0
LINE
8
BLACK
6
CONTINUOUS
10
132.384
20
-76.96
11
132.48
21
-76.9124
0
LINE
8
BLACK
6
CONTINUOUS
10
132.48
20
-76.9124
11
132.718
21
-76.9124
0
LINE
8
BLACK
6
CONTINUOUS
10
132.718
20
-76.9124
11
132.813
21
-76.96
0
LINE
8
BLACK
6
CONTINUOUS
10
132.813
20
-76.96
11
132.861
21
-77.0076
0
LINE
8
BLACK
6
CONTINUOUS
10
132.861
20
-77.0076
11
132.908
21
-77.1029
0
LINE
8
BLACK
6
CONTINUOUS
10
132.908
20
-77.1029
11
132.908
21
-77.1981
0
LINE
8
BLACK
6
CONTINUOUS
10
132.908
20
-77.1981
11
132.861
21
-77.341
0
LINE
8
BLACK
6
CONTINUOUS
10
132.861
20
-77.341
11
132.289
21
-77.9124
0
LINE
8
BLACK
6
CONTINUOUS
10
132.289
20
-77.9124
11
132.908
21
-77.9124
0
LINE
8
BLACK
6
CONTINUOUS
10
133.289
20
-77.0076
11
133.337
21
-76.96
0
LINE
8
BLACK
6
CONTINUOUS
10
133.337
20
-76.96
11
133.432
21
-76.9124
0
LINE
8
BLACK
6
CONTINUOUS
10
133.432
20
-76.9124
11
133.67
21
-76.9124
0
LINE
8
BLACK
6
CONTINUOUS
10
133.67
20
-76.9124
11
133.765
21
-76.96
0
LINE
8
BLACK
6
CONTINUOUS
10
133.765
20
-76.96
11
133.813
21
-77.0076
0
LINE
8
BLACK
6
CONTINUOUS
10
133.813
20
-77.0076
11
133.861
21
-77.1029
0
LINE
8
BLACK
6
CONTINUOUS
10
133.861
20
-77.1029
11
133.861
21
-77.1981
0
LINE
8
BLACK
6
CONTINUOUS
10
133.861
20
-77.1981
11
133.813
21
-77.341
0
LINE
8
BLACK
6
CONTINUOUS
10
133.813
20
-77.341
11
133.242
21
-77.9124
0
LINE
8
BLACK
6
CONTINUOUS
10
133.242
20
-77.9124
11
133.861
21
-77.9124
0
LINE
8
BLACK
6
CONTINUOUS
10
130.861
20
-80.4524
11
130.861
21
-79.4524
0
LINE
8
BLACK
6
CONTINUOUS
10
131.527
20
-79.4524
11
131.718
21
-79.4524
0
LINE
8
BLACK
6
CONTINUOUS
10
131.718
20
-79.4524
11
131.813
21
-79.5
0
LINE
8
BLACK
6
CONTINUOUS
10
131.813
20
-79.5
11
131.908
21
-79.5952
0
LINE
8
BLACK
6
CONTINUOUS
10
131.908
20
-79.5952
11
131.956
21
-79.7857
0
LINE
8
BLACK
6
CONTINUOUS
10
131.956
20
-79.7857
11
131.956
21
-80.119
0
LINE
8
BLACK
6
CONTINUOUS
10
131.956
20
-80.119
11
131.908
21
-80.3095
0
LINE
8
BLACK
6
CONTINUOUS
10
131.908
20
-80.3095
11
131.813
21
-80.4048
0
LINE
8
BLACK
6
CONTINUOUS
10
131.813
20
-80.4048
11
131.718
21
-80.4524
0
LINE
8
BLACK
6
CONTINUOUS
10
131.718
20
-80.4524
11
131.527
21
-80.4524
0
LINE
8
BLACK
6
CONTINUOUS
10
131.527
20
-80.4524
11
131.432
21
-80.4048
0
LINE
8
BLACK
6
CONTINUOUS
10
131.432
20
-80.4048
11
131.337
21
-80.3095
0
LINE
8
BLACK
6
CONTINUOUS
10
131.337
20
-80.3095
11
131.289
21
-80.119
0
LINE
8
BLACK
6
CONTINUOUS
10
131.289
20
-80.119
11
131.289
21
-79.7857
0
LINE
8
BLACK
6
CONTINUOUS
10
131.289
20
-79.7857
11
131.337
21
-79.5952
0
LINE
8
BLACK
6
CONTINUOUS
10
131.337
20
-79.5952
11
131.432
21
-79.5
0
LINE
8
BLACK
6
CONTINUOUS
10
131.432
20
-79.5
11
131.527
21
-79.4524
0
LINE
8
BLACK
6
CONTINUOUS
10
132.337
20
-79.5476
11
132.384
21
-79.5
0
LINE
8
BLACK
6
CONTINUOUS
10
132.384
20
-79.5
11
132.48
21
-79.4524
0
LINE
8
BLACK
6
CONTINUOUS
10
132.48
20
-79.4524
11
132.718
21
-79.4524
0
LINE
8
BLACK
6
CONTINUOUS
10
132.718
20
-79.4524
11
132.813
21
-79.5
0
LINE
8
BLACK
6
CONTINUOUS
10
132.813
20
-79.5
11
132.861
21
-79.5476
0
LINE
8
BLACK
6
CONTINUOUS
10
132.861
20
-79.5476
11
132.908
21
-79.6429
0
LINE
8
BLACK
6
CONTINUOUS
10
132.908
20
-79.6429
11
132.908
21
-79.7381
0
LINE
8
BLACK
6
CONTINUOUS
10
132.908
20
-79.7381
11
132.861
21
-79.881
0
LINE
8
BLACK
6
CONTINUOUS
10
132.861
20
-79.881
11
132.289
21
-80.4524
0
LINE
8
BLACK
6
CONTINUOUS
10
132.289
20
-80.4524
11
132.908
21
-80.4524
0
LINE
8
BLACK
6
CONTINUOUS
10
133.861
20
-80.4524
11
133.289
21
-80.4524
0
LINE
8
BLACK
6
CONTINUOUS
10
133.575
20
-80.4524
11
133.575
21
-79.4524
0
LINE
8
BLACK
6
CONTINUOUS
10
133.575
20
-79.4524
11
133.48
21
-79.5952
0
LINE
8
BLACK
6
CONTINUOUS
10
133.48
20
-79.5952
11
133.384
21
-79.6905
0
LINE
8
BLACK
6
CONTINUOUS
10
133.384
20
-79.6905
11
133.289
21
-79.7381
0
LINE
8
BLACK
6
CONTINUOUS
10
130.861
20
-82.9924
11
130.861
21
-81.9924
0
LINE
8
BLACK
6
CONTINUOUS
10
131.527
20
-81.9924
11
131.718
21
-81.9924
0
LINE
8
BLACK
6
CONTINUOUS
10
131.718
20
-81.9924
11
131.813
21
-82.04
0
LINE
8
BLACK
6
CONTINUOUS
10
131.813
20
-82.04
11
131.908
21
-82.1352
0
LINE
8
BLACK
6
CONTINUOUS
10
131.908
20
-82.1352
11
131.956
21
-82.3257
0
LINE
8
BLACK
6
CONTINUOUS
10
131.956
20
-82.3257
11
131.956
21
-82.659
0
LINE
8
BLACK
6
CONTINUOUS
10
131.956
20
-82.659
11
131.908
21
-82.8495
0
LINE
8
BLACK
6
CONTINUOUS
10
131.908
20
-82.8495
11
131.813
21
-82.9448
0
LINE
8
BLACK
6
CONTINUOUS
10
131.813
20
-82.9448
11
131.718
21
-82.9924
0
LINE
8
BLACK
6
CONTINUOUS
10
131.718
20
-82.9924
11
131.527
21
-82.9924
0
LINE
8
BLACK
6
CONTINUOUS
10
131.527
20
-82.9924
11
131.432
21
-82.9448
0
LINE
8
BLACK
6
CONTINUOUS
10
131.432
20
-82.9448
11
131.337
21
-82.8495
0
LINE
8
BLACK
6
CONTINUOUS
10
131.337
20
-82.8495
11
131.289
21
-82.659
0
LINE
8
BLACK
6
CONTINUOUS
10
131.289
20
-82.659
11
131.289
21
-82.3257
0
LINE
8
BLACK
6
CONTINUOUS
10
131.289
20
-82.3257
11
131.337
21
-82.1352
0
LINE
8
BLACK
6
CONTINUOUS
10
131.337
20
-82.1352
11
131.432
21
-82.04
0
LINE
8
BLACK
6
CONTINUOUS
10
131.432
20
-82.04
11
131.527
21
-81.9924
0
LINE
8
BLACK
6
CONTINUOUS
10
132.289
20
-81.9924
11
132.908
21
-81.9924
0
LINE
8
BLACK
6
CONTINUOUS
10
132.908
20
-81.9924
11
132.575
21
-82.3733
0
LINE
8
BLACK
6
CONTINUOUS
10
132.575
20
-82.3733
11
132.718
21
-82.3733
0
LINE
8
BLACK
6
CONTINUOUS
10
132.718
20
-82.3733
11
132.813
21
-82.421
0
LINE
8
BLACK
6
CONTINUOUS
10
132.813
20
-82.421
11
132.861
21
-82.4686
0
LINE
8
BLACK
6
CONTINUOUS
10
132.861
20
-82.4686
11
132.908
21
-82.5638
0
LINE
8
BLACK
6
CONTINUOUS
10
132.908
20
-82.5638
11
132.908
21
-82.8019
0
LINE
8
BLACK
6
CONTINUOUS
10
132.908
20
-82.8019
11
132.861
21
-82.8971
0
LINE
8
BLACK
6
CONTINUOUS
10
132.861
20
-82.8971
11
132.813
21
-82.9448
0
LINE
8
BLACK
6
CONTINUOUS
10
132.813
20
-82.9448
11
132.718
21
-82.9924
0
LINE
8
BLACK
6
CONTINUOUS
10
132.718
20
-82.9924
11
132.432
21
-82.9924
0
LINE
8
BLACK
6
CONTINUOUS
10
132.432
20
-82.9924
11
132.337
21
-82.9448
0
LINE
8
BLACK
6
CONTINUOUS
10
132.337
20
-82.9448
11
132.289
21
-82.8971
0
LINE
8
BLACK
6
CONTINUOUS
10
133.289
20
-82.0876
11
133.337
21
-82.04
0
LINE
8
BLACK
6
CONTINUOUS
10
133.337
20
-82.04
11
133.432
21
-81.9924
0
LINE
8
BLACK
6
CONTINUOUS
10
133.432
20
-81.9924
11
133.67
21
-81.9924
0
LINE
8
BLACK
6
CONTINUOUS
10
133.67
20
-81.9924
11
133.765
21
-82.04
0
LINE
8
BLACK
6
CONTINUOUS
10
133.765
20
-82.04
11
133.813
21
-82.0876
0
LINE
8
BLACK
6
CONTINUOUS
10
133.813
20
-82.0876
11
133.861
21
-82.1829
0
LINE
8
BLACK
6
CONTINUOUS
10
133.861
20
-82.1829
11
133.861
21
-82.2781
0
LINE
8
BLACK
6
CONTINUOUS
10
133.861
20
-82.2781
11
133.813
21
-82.421
0
LINE
8
BLACK
6
CONTINUOUS
10
133.813
20
-82.421
11
133.242
21
-82.9924
0
LINE
8
BLACK
6
CONTINUOUS
10
133.242
20
-82.9924
11
133.861
21
-82.9924
0
LINE
8
BLACK
6
CONTINUOUS
10
130.861
20
-85.5324
11
130.861
21
-84.5324
0
LINE
8
BLACK
6
CONTINUOUS
10
131.527
20
-84.5324
11
131.718
21
-84.5324
0
LINE
8
BLACK
6
CONTINUOUS
10
131.718
20
-84.5324
11
131.813
21
-84.58
0
LINE
8
BLACK
6
CONTINUOUS
10
131.813
20
-84.58
11
131.908
21
-84.6752
0
LINE
8
BLACK
6
CONTINUOUS
10
131.908
20
-84.6752
11
131.956
21
-84.8657
0
LINE
8
BLACK
6
CONTINUOUS
10
131.956
20
-84.8657
11
131.956
21
-85.199
0
LINE
8
BLACK
6
CONTINUOUS
10
131.956
20
-85.199
11
131.908
21
-85.3895
0
LINE
8
BLACK
6
CONTINUOUS
10
131.908
20
-85.3895
11
131.813
21
-85.4848
0
LINE
8
BLACK
6
CONTINUOUS
10
131.813
20
-85.4848
11
131.718
21
-85.5324
0
LINE
8
BLACK
6
CONTINUOUS
10
131.718
20
-85.5324
11
131.527
21
-85.5324
0
LINE
8
BLACK
6
CONTINUOUS
10
131.527
20
-85.5324
11
131.432
21
-85.4848
0
LINE
8
BLACK
6
CONTINUOUS
10
131.432
20
-85.4848
11
131.337
21
-85.3895
0
LINE
8
BLACK
6
CONTINUOUS
10
131.337
20
-85.3895
11
131.289
21
-85.199
0
LINE
8
BLACK
6
CONTINUOUS
10
131.289
20
-85.199
11
131.289
21
-84.8657
0
LINE
8
BLACK
6
CONTINUOUS
10
131.289
20
-84.8657
11
131.337
21
-84.6752
0
LINE
8
BLACK
6
CONTINUOUS
10
131.337
20
-84.6752
11
131.432
21
-84.58
0
LINE
8
BLACK
6
CONTINUOUS
10
131.432
20
-84.58
11
131.527
21
-84.5324
0
LINE
8
BLACK
6
CONTINUOUS
10
132.289
20
-84.5324
11
132.908
21
-84.5324
0
LINE
8
BLACK
6
CONTINUOUS
10
132.908
20
-84.5324
11
132.575
21
-84.9133
0
LINE
8
BLACK
6
CONTINUOUS
10
132.575
20
-84.9133
11
132.718
21
-84.9133
0
LINE
8
BLACK
6
CONTINUOUS
10
132.718
20
-84.9133
11
132.813
21
-84.961
0
LINE
8
BLACK
6
CONTINUOUS
10
132.813
20
-84.961
11
132.861
21
-85.0086
0
LINE
8
BLACK
6
CONTINUOUS
10
132.861
20
-85.0086
11
132.908
21
-85.1038
0
LINE
8
BLACK
6
CONTINUOUS
10
132.908
20
-85.1038
11
132.908
21
-85.3419
0
LINE
8
BLACK
6
CONTINUOUS
10
132.908
20
-85.3419
11
132.861
21
-85.4371
0
LINE
8
BLACK
6
CONTINUOUS
10
132.861
20
-85.4371
11
132.813
21
-85.4848
0
LINE
8
BLACK
6
CONTINUOUS
10
132.813
20
-85.4848
11
132.718
21
-85.5324
0
LINE
8
BLACK
6
CONTINUOUS
10
132.718
20
-85.5324
11
132.432
21
-85.5324
0
LINE
8
BLACK
6
CONTINUOUS
10
132.432
20
-85.5324
11
132.337
21
-85.4848
0
LINE
8
BLACK
6
CONTINUOUS
10
132.337
20
-85.4848
11
132.289
21
-85.4371
0
LINE
8
BLACK
6
CONTINUOUS
10
133.242
20
-84.5324
11
133.861
21
-84.5324
0
LINE
8
BLACK
6
CONTINUOUS
10
133.861
20
-84.5324
11
133.527
21
-84.9133
0
LINE
8
BLACK
6
CONTINUOUS
10
133.527
20
-84.9133
11
133.67
21
-84.9133
0
LINE
8
BLACK
6
CONTINUOUS
10
133.67
20
-84.9133
11
133.765
21
-84.961
0
LINE
8
BLACK
6
CONTINUOUS
10
133.765
20
-84.961
11
133.813
21
-85.0086
0
LINE
8
BLACK
6
CONTINUOUS
10
133.813
20
-85.0086
11
133.861
21
-85.1038
0
LINE
8
BLACK
6
CONTINUOUS
10
133.861
20
-85.1038
11
133.861
21
-85.3419
0
LINE
8
BLACK
6
CONTINUOUS
10
133.861
20
-85.3419
11
133.813
21
-85.4371
0
LINE
8
BLACK
6
CONTINUOUS
10
133.813
20
-85.4371
11
133.765
21
-85.4848
0
LINE
8
BLACK
6
CONTINUOUS
10
133.765
20
-85.4848
11
133.67
21
-85.5324
0
LINE
8
BLACK
6
CONTINUOUS
10
133.67
20
-85.5324
11
133.384
21
-85.5324
0
LINE
8
BLACK
6
CONTINUOUS
10
133.384
20
-85.5324
11
133.289
21
-85.4848
0
LINE
8
BLACK
6
CONTINUOUS
10
133.289
20
-85.4848
11
133.242
21
-85.4371
0
LINE
8
BLACK
6
CONTINUOUS
10
131.432
20
-88.0724
11
131.099
21
-87.5962
0
LINE
8
BLACK
6
CONTINUOUS
10
130.861
20
-88.0724
11
130.861
21
-87.0724
0
LINE
8
BLACK
6
CONTINUOUS
10
130.861
20
-87.0724
11
131.242
21
-87.0724
0
LINE
8
BLACK
6
CONTINUOUS
10
131.242
20
-87.0724
11
131.337
21
-87.12
0
LINE
8
BLACK
6
CONTINUOUS
10
131.337
20
-87.12
11
131.384
21
-87.1676
0
LINE
8
BLACK
6
CONTINUOUS
10
131.384
20
-87.1676
11
131.432
21
-87.2629
0
LINE
8
BLACK
6
CONTINUOUS
10
131.432
20
-87.2629
11
131.432
21
-87.4057
0
LINE
8
BLACK
6
CONTINUOUS
10
131.432
20
-87.4057
11
131.384
21
-87.501
0
LINE
8
BLACK
6
CONTINUOUS
10
131.384
20
-87.501
11
131.337
21
-87.5486
0
LINE
8
BLACK
6
CONTINUOUS
10
131.337
20
-87.5486
11
131.242
21
-87.5962
0
LINE
8
BLACK
6
CONTINUOUS
10
131.242
20
-87.5962
11
130.861
21
-87.5962
0
LINE
8
BLACK
6
CONTINUOUS
10
131.861
20
-87.5486
11
132.194
21
-87.5486
0
LINE
8
BLACK
6
CONTINUOUS
10
132.337
20
-88.0724
11
131.861
21
-88.0724
0
LINE
8
BLACK
6
CONTINUOUS
10
131.861
20
-88.0724
11
131.861
21
-87.0724
0
LINE
8
BLACK
6
CONTINUOUS
10
131.861
20
-87.0724
11
132.337
21
-87.0724
0
LINE
8
BLACK
6
CONTINUOUS
10
132.718
20
-88.0248
11
132.861
21
-88.0724
0
LINE
8
BLACK
6
CONTINUOUS
10
132.861
20
-88.0724
11
133.099
21
-88.0724
0
LINE
8
BLACK
6
CONTINUOUS
10
133.099
20
-88.0724
11
133.194
21
-88.0248
0
LINE
8
BLACK
6
CONTINUOUS
10
133.194
20
-88.0248
11
133.242
21
-87.9771
0
LINE
8
BLACK
6
CONTINUOUS
10
133.242
20
-87.9771
11
133.289
21
-87.8819
0
LINE
8
BLACK
6
CONTINUOUS
10
133.289
20
-87.8819
11
133.289
21
-87.7867
0
LINE
8
BLACK
6
CONTINUOUS
10
133.289
20
-87.7867
11
133.242
21
-87.6914
0
LINE
8
BLACK
6
CONTINUOUS
10
133.242
20
-87.6914
11
133.194
21
-87.6438
0
LINE
8
BLACK
6
CONTINUOUS
10
133.194
20
-87.6438
11
133.099
21
-87.5962
0
LINE
8
BLACK
6
CONTINUOUS
10
133.099
20
-87.5962
11
132.908
21
-87.5486
0
LINE
8
BLACK
6
CONTINUOUS
10
132.908
20
-87.5486
11
132.813
21
-87.501
0
LINE
8
BLACK
6
CONTINUOUS
10
132.813
20
-87.501
11
132.765
21
-87.4533
0
LINE
8
BLACK
6
CONTINUOUS
10
132.765
20
-87.4533
11
132.718
21
-87.3581
0
LINE
8
BLACK
6
CONTINUOUS
10
132.718
20
-87.3581
11
132.718
21
-87.2629
0
LINE
8
BLACK
6
CONTINUOUS
10
132.718
20
-87.2629
11
132.765
21
-87.1676
0
LINE
8
BLACK
6
CONTINUOUS
10
132.765
20
-87.1676
11
132.813
21
-87.12
0
LINE
8
BLACK
6
CONTINUOUS
10
132.813
20
-87.12
11
132.908
21
-87.0724
0
LINE
8
BLACK
6
CONTINUOUS
10
132.908
20
-87.0724
11
133.146
21
-87.0724
0
LINE
8
BLACK
6
CONTINUOUS
10
133.146
20
-87.0724
11
133.289
21
-87.12
0
LINE
8
BLACK
6
CONTINUOUS
10
133.718
20
-87.5486
11
134.051
21
-87.5486
0
LINE
8
BLACK
6
CONTINUOUS
10
134.194
20
-88.0724
11
133.718
21
-88.0724
0
LINE
8
BLACK
6
CONTINUOUS
10
133.718
20
-88.0724
11
133.718
21
-87.0724
0
LINE
8
BLACK
6
CONTINUOUS
10
133.718
20
-87.0724
11
134.194
21
-87.0724
0
LINE
8
BLACK
6
CONTINUOUS
10
134.48
20
-87.0724
11
135.051
21
-87.0724
0
LINE
8
BLACK
6
CONTINUOUS
10
134.765
20
-88.0724
11
134.765
21
-87.0724
0
LINE
8
BLACK
6
CONTINUOUS
10
139.572
20
-69.34
11
139.477
21
-69.2924
0
LINE
8
BLACK
6
CONTINUOUS
10
139.477
20
-69.2924
11
139.334
21
-69.2924
0
LINE
8
BLACK
6
CONTINUOUS
10
139.334
20
-69.2924
11
139.191
21
-69.34
0
LINE
8
BLACK
6
CONTINUOUS
10
139.191
20
-69.34
11
139.096
21
-69.4352
0
LINE
8
BLACK
6
CONTINUOUS
10
139.096
20
-69.4352
11
139.048
21
-69.5305
0
LINE
8
BLACK
6
CONTINUOUS
10
139.048
20
-69.5305
11
139
21
-69.721
0
LINE
8
BLACK
6
CONTINUOUS
10
139
20
-69.721
11
139
21
-69.8638
0
LINE
8
BLACK
6
CONTINUOUS
10
139
20
-69.8638
11
139.048
21
-70.0543
0
LINE
8
BLACK
6
CONTINUOUS
10
139.048
20
-70.0543
11
139.096
21
-70.1495
0
LINE
8
BLACK
6
CONTINUOUS
10
139.096
20
-70.1495
11
139.191
21
-70.2448
0
LINE
8
BLACK
6
CONTINUOUS
10
139.191
20
-70.2448
11
139.334
21
-70.2924
0
LINE
8
BLACK
6
CONTINUOUS
10
139.334
20
-70.2924
11
139.429
21
-70.2924
0
LINE
8
BLACK
6
CONTINUOUS
10
139.429
20
-70.2924
11
139.572
21
-70.2448
0
LINE
8
BLACK
6
CONTINUOUS
10
139.572
20
-70.2448
11
139.619
21
-70.1971
0
LINE
8
BLACK
6
CONTINUOUS
10
139.619
20
-70.1971
11
139.619
21
-69.8638
0
LINE
8
BLACK
6
CONTINUOUS
10
139.619
20
-69.8638
11
139.429
21
-69.8638
0
LINE
8
BLACK
6
CONTINUOUS
10
140.048
20
-70.2924
11
140.048
21
-69.2924
0
LINE
8
BLACK
6
CONTINUOUS
10
140.048
20
-69.2924
11
140.619
21
-70.2924
0
LINE
8
BLACK
6
CONTINUOUS
10
140.619
20
-70.2924
11
140.619
21
-69.2924
0
LINE
8
BLACK
6
CONTINUOUS
10
141.096
20
-70.2924
11
141.096
21
-69.2924
0
LINE
8
BLACK
6
CONTINUOUS
10
141.096
20
-69.2924
11
141.334
21
-69.2924
0
LINE
8
BLACK
6
CONTINUOUS
10
141.334
20
-69.2924
11
141.477
21
-69.34
0
LINE
8
BLACK
6
CONTINUOUS
10
141.477
20
-69.34
11
141.572
21
-69.4352
0
LINE
8
BLACK
6
CONTINUOUS
10
141.572
20
-69.4352
11
141.619
21
-69.5305
0
LINE
8
BLACK
6
CONTINUOUS
10
141.619
20
-69.5305
11
141.667
21
-69.721
0
LINE
8
BLACK
6
CONTINUOUS
10
141.667
20
-69.721
11
141.667
21
-69.8638
0
LINE
8
BLACK
6
CONTINUOUS
10
141.667
20
-69.8638
11
141.619
21
-70.0543
0
LINE
8
BLACK
6
CONTINUOUS
10
141.619
20
-70.0543
11
141.572
21
-70.1495
0
LINE
8
BLACK
6
CONTINUOUS
10
141.572
20
-70.1495
11
141.477
21
-70.2448
0
LINE
8
BLACK
6
CONTINUOUS
10
141.477
20
-70.2448
11
141.334
21
-70.2924
0
LINE
8
BLACK
6
CONTINUOUS
10
141.334
20
-70.2924
11
141.096
21
-70.2924
0
LINE
8
BLACK
6
CONTINUOUS
10
138.477
20
-66.7524
11
138.81
21
-67.7524
0
LINE
8
BLACK
6
CONTINUOUS
10
138.81
20
-67.7524
11
139.143
21
-66.7524
0
LINE
8
BLACK
6
CONTINUOUS
10
139.81
20
-67.2286
11
139.953
21
-67.2762
0
LINE
8
BLACK
6
CONTINUOUS
10
139.953
20
-67.2762
11
140
21
-67.3238
0
LINE
8
BLACK
6
CONTINUOUS
10
140
20
-67.3238
11
140.048
21
-67.419
0
LINE
8
BLACK
6
CONTINUOUS
10
140.048
20
-67.419
11
140.048
21
-67.5619
0
LINE
8
BLACK
6
CONTINUOUS
10
140.048
20
-67.5619
11
140
21
-67.6571
0
LINE
8
BLACK
6
CONTINUOUS
10
140
20
-67.6571
11
139.953
21
-67.7048
0
LINE
8
BLACK
6
CONTINUOUS
10
139.953
20
-67.7048
11
139.857
21
-67.7524
0
LINE
8
BLACK
6
CONTINUOUS
10
139.857
20
-67.7524
11
139.477
21
-67.7524
0
LINE
8
BLACK
6
CONTINUOUS
10
139.477
20
-67.7524
11
139.477
21
-66.7524
0
LINE
8
BLACK
6
CONTINUOUS
10
139.477
20
-66.7524
11
139.81
21
-66.7524
0
LINE
8
BLACK
6
CONTINUOUS
10
139.81
20
-66.7524
11
139.905
21
-66.8
0
LINE
8
BLACK
6
CONTINUOUS
10
139.905
20
-66.8
11
139.953
21
-66.8476
0
LINE
8
BLACK
6
CONTINUOUS
10
139.953
20
-66.8476
11
140
21
-66.9429
0
LINE
8
BLACK
6
CONTINUOUS
10
140
20
-66.9429
11
140
21
-67.0381
0
LINE
8
BLACK
6
CONTINUOUS
10
140
20
-67.0381
11
139.953
21
-67.1333
0
LINE
8
BLACK
6
CONTINUOUS
10
139.953
20
-67.1333
11
139.905
21
-67.181
0
LINE
8
BLACK
6
CONTINUOUS
10
139.905
20
-67.181
11
139.81
21
-67.2286
0
LINE
8
BLACK
6
CONTINUOUS
10
139.81
20
-67.2286
11
139.477
21
-67.2286
0
LINE
8
BLACK
6
CONTINUOUS
10
140.429
20
-67.4667
11
140.905
21
-67.4667
0
LINE
8
BLACK
6
CONTINUOUS
10
140.334
20
-67.7524
11
140.667
21
-66.7524
0
LINE
8
BLACK
6
CONTINUOUS
10
140.667
20
-66.7524
11
141
21
-67.7524
0
LINE
8
BLACK
6
CONTINUOUS
10
141.191
20
-66.7524
11
141.762
21
-66.7524
0
LINE
8
BLACK
6
CONTINUOUS
10
141.477
20
-67.7524
11
141.477
21
-66.7524
0
LINE
8
BLACK
6
CONTINUOUS
10
139.572
20
-69.34
11
139.477
21
-69.2924
0
LINE
8
BLACK
6
CONTINUOUS
10
139.477
20
-69.2924
11
139.334
21
-69.2924
0
LINE
8
BLACK
6
CONTINUOUS
10
139.334
20
-69.2924
11
139.191
21
-69.34
0
LINE
8
BLACK
6
CONTINUOUS
10
139.191
20
-69.34
11
139.096
21
-69.4352
0
LINE
8
BLACK
6
CONTINUOUS
10
139.096
20
-69.4352
11
139.048
21
-69.5305
0
LINE
8
BLACK
6
CONTINUOUS
10
139.048
20
-69.5305
11
139
21
-69.721
0
LINE
8
BLACK
6
CONTINUOUS
10
139
20
-69.721
11
139
21
-69.8638
0
LINE
8
BLACK
6
CONTINUOUS
10
139
20
-69.8638
11
139.048
21
-70.0543
0
LINE
8
BLACK
6
CONTINUOUS
10
139.048
20
-70.0543
11
139.096
21
-70.1495
0
LINE
8
BLACK
6
CONTINUOUS
10
139.096
20
-70.1495
11
139.191
21
-70.2448
0
LINE
8
BLACK
6
CONTINUOUS
10
139.191
20
-70.2448
11
139.334
21
-70.2924
0
LINE
8
BLACK
6
CONTINUOUS
10
139.334
20
-70.2924
11
139.429
21
-70.2924
0
LINE
8
BLACK
6
CONTINUOUS
10
139.429
20
-70.2924
11
139.572
21
-70.2448
0
LINE
8
BLACK
6
CONTINUOUS
10
139.572
20
-70.2448
11
139.619
21
-70.1971
0
LINE
8
BLACK
6
CONTINUOUS
10
139.619
20
-70.1971
11
139.619
21
-69.8638
0
LINE
8
BLACK
6
CONTINUOUS
10
139.619
20
-69.8638
11
139.429
21
-69.8638
0
LINE
8
BLACK
6
CONTINUOUS
10
140.048
20
-70.2924
11
140.048
21
-69.2924
0
LINE
8
BLACK
6
CONTINUOUS
10
140.048
20
-69.2924
11
140.619
21
-70.2924
0
LINE
8
BLACK
6
CONTINUOUS
10
140.619
20
-70.2924
11
140.619
21
-69.2924
0
LINE
8
BLACK
6
CONTINUOUS
10
141.096
20
-70.2924
11
141.096
21
-69.2924
0
LINE
8
BLACK
6
CONTINUOUS
10
141.096
20
-69.2924
11
141.334
21
-69.2924
0
LINE
8
BLACK
6
CONTINUOUS
10
141.334
20
-69.2924
11
141.477
21
-69.34
0
LINE
8
BLACK
6
CONTINUOUS
10
141.477
20
-69.34
11
141.572
21
-69.4352
0
LINE
8
BLACK
6
CONTINUOUS
10
141.572
20
-69.4352
11
141.619
21
-69.5305
0
LINE
8
BLACK
6
CONTINUOUS
10
141.619
20
-69.5305
11
141.667
21
-69.721
0
LINE
8
BLACK
6
CONTINUOUS
10
141.667
20
-69.721
11
141.667
21
-69.8638
0
LINE
8
BLACK
6
CONTINUOUS
10
141.667
20
-69.8638
11
141.619
21
-70.0543
0
LINE
8
BLACK
6
CONTINUOUS
10
141.619
20
-70.0543
11
141.572
21
-70.1495
0
LINE
8
BLACK
6
CONTINUOUS
10
141.572
20
-70.1495
11
141.477
21
-70.2448
0
LINE
8
BLACK
6
CONTINUOUS
10
141.477
20
-70.2448
11
141.334
21
-70.2924
0
LINE
8
BLACK
6
CONTINUOUS
10
141.334
20
-70.2924
11
141.096
21
-70.2924
0
LINE
8
BLACK
6
CONTINUOUS
10
139.048
20
-72.4514
11
139.81
21
-72.4514
0
LINE
8
BLACK
6
CONTINUOUS
10
139.429
20
-72.8324
11
139.429
21
-72.0705
0
LINE
8
BLACK
6
CONTINUOUS
10
140.762
20
-71.8324
11
140.286
21
-71.8324
0
LINE
8
BLACK
6
CONTINUOUS
10
140.286
20
-71.8324
11
140.238
21
-72.3086
0
LINE
8
BLACK
6
CONTINUOUS
10
140.238
20
-72.3086
11
140.286
21
-72.261
0
LINE
8
BLACK
6
CONTINUOUS
10
140.286
20
-72.261
11
140.381
21
-72.2133
0
LINE
8
BLACK
6
CONTINUOUS
10
140.381
20
-72.2133
11
140.619
21
-72.2133
0
LINE
8
BLACK
6
CONTINUOUS
10
140.619
20
-72.2133
11
140.715
21
-72.261
0
LINE
8
BLACK
6
CONTINUOUS
10
140.715
20
-72.261
11
140.762
21
-72.3086
0
LINE
8
BLACK
6
CONTINUOUS
10
140.762
20
-72.3086
11
140.81
21
-72.4038
0
LINE
8
BLACK
6
CONTINUOUS
10
140.81
20
-72.4038
11
140.81
21
-72.6419
0
LINE
8
BLACK
6
CONTINUOUS
10
140.81
20
-72.6419
11
140.762
21
-72.7371
0
LINE
8
BLACK
6
CONTINUOUS
10
140.762
20
-72.7371
11
140.715
21
-72.7848
0
LINE
8
BLACK
6
CONTINUOUS
10
140.715
20
-72.7848
11
140.619
21
-72.8324
0
LINE
8
BLACK
6
CONTINUOUS
10
140.619
20
-72.8324
11
140.381
21
-72.8324
0
LINE
8
BLACK
6
CONTINUOUS
10
140.381
20
-72.8324
11
140.286
21
-72.7848
0
LINE
8
BLACK
6
CONTINUOUS
10
140.286
20
-72.7848
11
140.238
21
-72.7371
0
LINE
8
BLACK
6
CONTINUOUS
10
141.096
20
-71.8324
11
141.429
21
-72.8324
0
LINE
8
BLACK
6
CONTINUOUS
10
141.429
20
-72.8324
11
141.762
21
-71.8324
0
LINE
8
BLACK
6
CONTINUOUS
10
138.096
20
-74.9914
11
138.857
21
-74.9914
0
LINE
8
BLACK
6
CONTINUOUS
10
138.477
20
-75.3724
11
138.477
21
-74.6105
0
LINE
8
BLACK
6
CONTINUOUS
10
139.238
20
-74.3724
11
139.857
21
-74.3724
0
LINE
8
BLACK
6
CONTINUOUS
10
139.857
20
-74.3724
11
139.524
21
-74.7533
0
LINE
8
BLACK
6
CONTINUOUS
10
139.524
20
-74.7533
11
139.667
21
-74.7533
0
LINE
8
BLACK
6
CONTINUOUS
10
139.667
20
-74.7533
11
139.762
21
-74.801
0
LINE
8
BLACK
6
CONTINUOUS
10
139.762
20
-74.801
11
139.81
21
-74.8486
0
LINE
8
BLACK
6
CONTINUOUS
10
139.81
20
-74.8486
11
139.857
21
-74.9438
0
LINE
8
BLACK
6
CONTINUOUS
10
139.857
20
-74.9438
11
139.857
21
-75.1819
0
LINE
8
BLACK
6
CONTINUOUS
10
139.857
20
-75.1819
11
139.81
21
-75.2771
0
LINE
8
BLACK
6
CONTINUOUS
10
139.81
20
-75.2771
11
139.762
21
-75.3248
0
LINE
8
BLACK
6
CONTINUOUS
10
139.762
20
-75.3248
11
139.667
21
-75.3724
0
LINE
8
BLACK
6
CONTINUOUS
10
139.667
20
-75.3724
11
139.381
21
-75.3724
0
LINE
8
BLACK
6
CONTINUOUS
10
139.381
20
-75.3724
11
139.286
21
-75.3248
0
LINE
8
BLACK
6
CONTINUOUS
10
139.286
20
-75.3248
11
139.238
21
-75.2771
0
LINE
8
BLACK
6
CONTINUOUS
10
140.143
20
-74.3724
11
140.477
21
-75.3724
0
LINE
8
BLACK
6
CONTINUOUS
10
140.477
20
-75.3724
11
140.81
21
-74.3724
0
LINE
8
BLACK
6
CONTINUOUS
10
141.048
20
-74.3724
11
141.667
21
-74.3724
0
LINE
8
BLACK
6
CONTINUOUS
10
141.667
20
-74.3724
11
141.334
21
-74.7533
0
LINE
8
BLACK
6
CONTINUOUS
10
141.334
20
-74.7533
11
141.477
21
-74.7533
0
LINE
8
BLACK
6
CONTINUOUS
10
141.477
20
-74.7533
11
141.572
21
-74.801
0
LINE
8
BLACK
6
CONTINUOUS
10
141.572
20
-74.801
11
141.619
21
-74.8486
0
LINE
8
BLACK
6
CONTINUOUS
10
141.619
20
-74.8486
11
141.667
21
-74.9438
0
LINE
8
BLACK
6
CONTINUOUS
10
141.667
20
-74.9438
11
141.667
21
-75.1819
0
LINE
8
BLACK
6
CONTINUOUS
10
141.667
20
-75.1819
11
141.619
21
-75.2771
0
LINE
8
BLACK
6
CONTINUOUS
10
141.619
20
-75.2771
11
141.572
21
-75.3248
0
LINE
8
BLACK
6
CONTINUOUS
10
141.572
20
-75.3248
11
141.477
21
-75.3724
0
LINE
8
BLACK
6
CONTINUOUS
10
141.477
20
-75.3724
11
141.191
21
-75.3724
0
LINE
8
BLACK
6
CONTINUOUS
10
141.191
20
-75.3724
11
141.096
21
-75.3248
0
LINE
8
BLACK
6
CONTINUOUS
10
141.096
20
-75.3248
11
141.048
21
-75.2771
0
LINE
8
BLACK
6
CONTINUOUS
10
139.619
20
-77.9124
11
139.619
21
-76.9124
0
LINE
8
BLACK
6
CONTINUOUS
10
140.286
20
-76.9124
11
140.477
21
-76.9124
0
LINE
8
BLACK
6
CONTINUOUS
10
140.477
20
-76.9124
11
140.572
21
-76.96
0
LINE
8
BLACK
6
CONTINUOUS
10
140.572
20
-76.96
11
140.667
21
-77.0552
0
LINE
8
BLACK
6
CONTINUOUS
10
140.667
20
-77.0552
11
140.715
21
-77.2457
0
LINE
8
BLACK
6
CONTINUOUS
10
140.715
20
-77.2457
11
140.715
21
-77.579
0
LINE
8
BLACK
6
CONTINUOUS
10
140.715
20
-77.579
11
140.667
21
-77.7695
0
LINE
8
BLACK
6
CONTINUOUS
10
140.667
20
-77.7695
11
140.572
21
-77.8648
0
LINE
8
BLACK
6
CONTINUOUS
10
140.572
20
-77.8648
11
140.477
21
-77.9124
0
LINE
8
BLACK
6
CONTINUOUS
10
140.477
20
-77.9124
11
140.286
21
-77.9124
0
LINE
8
BLACK
6
CONTINUOUS
10
140.286
20
-77.9124
11
140.191
21
-77.8648
0
LINE
8
BLACK
6
CONTINUOUS
10
140.191
20
-77.8648
11
140.096
21
-77.7695
0
LINE
8
BLACK
6
CONTINUOUS
10
140.096
20
-77.7695
11
140.048
21
-77.579
0
LINE
8
BLACK
6
CONTINUOUS
10
140.048
20
-77.579
11
140.048
21
-77.2457
0
LINE
8
BLACK
6
CONTINUOUS
10
140.048
20
-77.2457
11
140.096
21
-77.0552
0
LINE
8
BLACK
6
CONTINUOUS
10
140.096
20
-77.0552
11
140.191
21
-76.96
0
LINE
8
BLACK
6
CONTINUOUS
10
140.191
20
-76.96
11
140.286
21
-76.9124
0
LINE
8
BLACK
6
CONTINUOUS
10
141.572
20
-77.2457
11
141.572
21
-77.9124
0
LINE
8
BLACK
6
CONTINUOUS
10
141.334
20
-76.8648
11
141.096
21
-77.579
0
LINE
8
BLACK
6
CONTINUOUS
10
141.096
20
-77.579
11
141.715
21
-77.579
0
LINE
8
BLACK
6
CONTINUOUS
10
138.667
20
-80.4524
11
138.667
21
-79.4524
0
LINE
8
BLACK
6
CONTINUOUS
10
139.334
20
-79.4524
11
139.524
21
-79.4524
0
LINE
8
BLACK
6
CONTINUOUS
10
139.524
20
-79.4524
11
139.619
21
-79.5
0
LINE
8
BLACK
6
CONTINUOUS
10
139.619
20
-79.5
11
139.715
21
-79.5952
0
LINE
8
BLACK
6
CONTINUOUS
10
139.715
20
-79.5952
11
139.762
21
-79.7857
0
LINE
8
BLACK
6
CONTINUOUS
10
139.762
20
-79.7857
11
139.762
21
-80.119
0
LINE
8
BLACK
6
CONTINUOUS
10
139.762
20
-80.119
11
139.715
21
-80.3095
0
LINE
8
BLACK
6
CONTINUOUS
10
139.715
20
-80.3095
11
139.619
21
-80.4048
0
LINE
8
BLACK
6
CONTINUOUS
10
139.619
20
-80.4048
11
139.524
21
-80.4524
0
LINE
8
BLACK
6
CONTINUOUS
10
139.524
20
-80.4524
11
139.334
21
-80.4524
0
LINE
8
BLACK
6
CONTINUOUS
10
139.334
20
-80.4524
11
139.238
21
-80.4048
0
LINE
8
BLACK
6
CONTINUOUS
10
139.238
20
-80.4048
11
139.143
21
-80.3095
0
LINE
8
BLACK
6
CONTINUOUS
10
139.143
20
-80.3095
11
139.096
21
-80.119
0
LINE
8
BLACK
6
CONTINUOUS
10
139.096
20
-80.119
11
139.096
21
-79.7857
0
LINE
8
BLACK
6
CONTINUOUS
10
139.096
20
-79.7857
11
139.143
21
-79.5952
0
LINE
8
BLACK
6
CONTINUOUS
10
139.143
20
-79.5952
11
139.238
21
-79.5
0
LINE
8
BLACK
6
CONTINUOUS
10
139.238
20
-79.5
11
139.334
21
-79.4524
0
LINE
8
BLACK
6
CONTINUOUS
10
140.715
20
-80.4524
11
140.143
21
-80.4524
0
LINE
8
BLACK
6
CONTINUOUS
10
140.429
20
-80.4524
11
140.429
21
-79.4524
0
LINE
8
BLACK
6
CONTINUOUS
10
140.429
20
-79.4524
11
140.334
21
-79.5952
0
LINE
8
BLACK
6
CONTINUOUS
10
140.334
20
-79.5952
11
140.238
21
-79.6905
0
LINE
8
BLACK
6
CONTINUOUS
10
140.238
20
-79.6905
11
140.143
21
-79.7381
0
LINE
8
BLACK
6
CONTINUOUS
10
141.572
20
-79.7857
11
141.572
21
-80.4524
0
LINE
8
BLACK
6
CONTINUOUS
10
141.334
20
-79.4048
11
141.096
21
-80.119
0
LINE
8
BLACK
6
CONTINUOUS
10
141.096
20
-80.119
11
141.715
21
-80.119
0
LINE
8
BLACK
6
CONTINUOUS
10
138.667
20
-82.9924
11
138.667
21
-81.9924
0
LINE
8
BLACK
6
CONTINUOUS
10
139.334
20
-81.9924
11
139.524
21
-81.9924
0
LINE
8
BLACK
6
CONTINUOUS
10
139.524
20
-81.9924
11
139.619
21
-82.04
0
LINE
8
BLACK
6
CONTINUOUS
10
139.619
20
-82.04
11
139.715
21
-82.1352
0
LINE
8
BLACK
6
CONTINUOUS
10
139.715
20
-82.1352
11
139.762
21
-82.3257
0
LINE
8
BLACK
6
CONTINUOUS
10
139.762
20
-82.3257
11
139.762
21
-82.659
0
LINE
8
BLACK
6
CONTINUOUS
10
139.762
20
-82.659
11
139.715
21
-82.8495
0
LINE
8
BLACK
6
CONTINUOUS
10
139.715
20
-82.8495
11
139.619
21
-82.9448
0
LINE
8
BLACK
6
CONTINUOUS
10
139.619
20
-82.9448
11
139.524
21
-82.9924
0
LINE
8
BLACK
6
CONTINUOUS
10
139.524
20
-82.9924
11
139.334
21
-82.9924
0
LINE
8
BLACK
6
CONTINUOUS
10
139.334
20
-82.9924
11
139.238
21
-82.9448
0
LINE
8
BLACK
6
CONTINUOUS
10
139.238
20
-82.9448
11
139.143
21
-82.8495
0
LINE
8
BLACK
6
CONTINUOUS
10
139.143
20
-82.8495
11
139.096
21
-82.659
0
LINE
8
BLACK
6
CONTINUOUS
10
139.096
20
-82.659
11
139.096
21
-82.3257
0
LINE
8
BLACK
6
CONTINUOUS
10
139.096
20
-82.3257
11
139.143
21
-82.1352
0
LINE
8
BLACK
6
CONTINUOUS
10
139.143
20
-82.1352
11
139.238
21
-82.04
0
LINE
8
BLACK
6
CONTINUOUS
10
139.238
20
-82.04
11
139.334
21
-81.9924
0
LINE
8
BLACK
6
CONTINUOUS
10
140.715
20
-82.9924
11
140.143
21
-82.9924
0
LINE
8
BLACK
6
CONTINUOUS
10
140.429
20
-82.9924
11
140.429
21
-81.9924
0
LINE
8
BLACK
6
CONTINUOUS
10
140.429
20
-81.9924
11
140.334
21
-82.1352
0
LINE
8
BLACK
6
CONTINUOUS
10
140.334
20
-82.1352
11
140.238
21
-82.2305
0
LINE
8
BLACK
6
CONTINUOUS
10
140.238
20
-82.2305
11
140.143
21
-82.2781
0
LINE
8
BLACK
6
CONTINUOUS
10
141.619
20
-81.9924
11
141.143
21
-81.9924
0
LINE
8
BLACK
6
CONTINUOUS
10
141.143
20
-81.9924
11
141.096
21
-82.4686
0
LINE
8
BLACK
6
CONTINUOUS
10
141.096
20
-82.4686
11
141.143
21
-82.421
0
LINE
8
BLACK
6
CONTINUOUS
10
141.143
20
-82.421
11
141.238
21
-82.3733
0
LINE
8
BLACK
6
CONTINUOUS
10
141.238
20
-82.3733
11
141.477
21
-82.3733
0
LINE
8
BLACK
6
CONTINUOUS
10
141.477
20
-82.3733
11
141.572
21
-82.421
0
LINE
8
BLACK
6
CONTINUOUS
10
141.572
20
-82.421
11
141.619
21
-82.4686
0
LINE
8
BLACK
6
CONTINUOUS
10
141.619
20
-82.4686
11
141.667
21
-82.5638
0
LINE
8
BLACK
6
CONTINUOUS
10
141.667
20
-82.5638
11
141.667
21
-82.8019
0
LINE
8
BLACK
6
CONTINUOUS
10
141.667
20
-82.8019
11
141.619
21
-82.8971
0
LINE
8
BLACK
6
CONTINUOUS
10
141.619
20
-82.8971
11
141.572
21
-82.9448
0
LINE
8
BLACK
6
CONTINUOUS
10
141.572
20
-82.9448
11
141.477
21
-82.9924
0
LINE
8
BLACK
6
CONTINUOUS
10
141.477
20
-82.9924
11
141.238
21
-82.9924
0
LINE
8
BLACK
6
CONTINUOUS
10
141.238
20
-82.9924
11
141.143
21
-82.9448
0
LINE
8
BLACK
6
CONTINUOUS
10
141.143
20
-82.9448
11
141.096
21
-82.8971
0
LINE
8
BLACK
6
CONTINUOUS
10
138.667
20
-85.5324
11
138.667
21
-84.5324
0
LINE
8
BLACK
6
CONTINUOUS
10
139.334
20
-84.5324
11
139.524
21
-84.5324
0
LINE
8
BLACK
6
CONTINUOUS
10
139.524
20
-84.5324
11
139.619
21
-84.58
0
LINE
8
BLACK
6
CONTINUOUS
10
139.619
20
-84.58
11
139.715
21
-84.6752
0
LINE
8
BLACK
6
CONTINUOUS
10
139.715
20
-84.6752
11
139.762
21
-84.8657
0
LINE
8
BLACK
6
CONTINUOUS
10
139.762
20
-84.8657
11
139.762
21
-85.199
0
LINE
8
BLACK
6
CONTINUOUS
10
139.762
20
-85.199
11
139.715
21
-85.3895
0
LINE
8
BLACK
6
CONTINUOUS
10
139.715
20
-85.3895
11
139.619
21
-85.4848
0
LINE
8
BLACK
6
CONTINUOUS
10
139.619
20
-85.4848
11
139.524
21
-85.5324
0
LINE
8
BLACK
6
CONTINUOUS
10
139.524
20
-85.5324
11
139.334
21
-85.5324
0
LINE
8
BLACK
6
CONTINUOUS
10
139.334
20
-85.5324
11
139.238
21
-85.4848
0
LINE
8
BLACK
6
CONTINUOUS
10
139.238
20
-85.4848
11
139.143
21
-85.3895
0
LINE
8
BLACK
6
CONTINUOUS
10
139.143
20
-85.3895
11
139.096
21
-85.199
0
LINE
8
BLACK
6
CONTINUOUS
10
139.096
20
-85.199
11
139.096
21
-84.8657
0
LINE
8
BLACK
6
CONTINUOUS
10
139.096
20
-84.8657
11
139.143
21
-84.6752
0
LINE
8
BLACK
6
CONTINUOUS
10
139.143
20
-84.6752
11
139.238
21
-84.58
0
LINE
8
BLACK
6
CONTINUOUS
10
139.238
20
-84.58
11
139.334
21
-84.5324
0
LINE
8
BLACK
6
CONTINUOUS
10
140.143
20
-84.6276
11
140.191
21
-84.58
0
LINE
8
BLACK
6
CONTINUOUS
10
140.191
20
-84.58
11
140.286
21
-84.5324
0
LINE
8
BLACK
6
CONTINUOUS
10
140.286
20
-84.5324
11
140.524
21
-84.5324
0
LINE
8
BLACK
6
CONTINUOUS
10
140.524
20
-84.5324
11
140.619
21
-84.58
0
LINE
8
BLACK
6
CONTINUOUS
10
140.619
20
-84.58
11
140.667
21
-84.6276
0
LINE
8
BLACK
6
CONTINUOUS
10
140.667
20
-84.6276
11
140.715
21
-84.7229
0
LINE
8
BLACK
6
CONTINUOUS
10
140.715
20
-84.7229
11
140.715
21
-84.8181
0
LINE
8
BLACK
6
CONTINUOUS
10
140.715
20
-84.8181
11
140.667
21
-84.961
0
LINE
8
BLACK
6
CONTINUOUS
10
140.667
20
-84.961
11
140.096
21
-85.5324
0
LINE
8
BLACK
6
CONTINUOUS
10
140.096
20
-85.5324
11
140.715
21
-85.5324
0
LINE
8
BLACK
6
CONTINUOUS
10
141.048
20
-84.5324
11
141.715
21
-84.5324
0
LINE
8
BLACK
6
CONTINUOUS
10
141.715
20
-84.5324
11
141.286
21
-85.5324
0
LINE
8
BLACK
6
CONTINUOUS
10
138.667
20
-88.0724
11
138.667
21
-87.0724
0
LINE
8
BLACK
6
CONTINUOUS
10
139.334
20
-87.0724
11
139.524
21
-87.0724
0
LINE
8
BLACK
6
CONTINUOUS
10
139.524
20
-87.0724
11
139.619
21
-87.12
0
LINE
8
BLACK
6
CONTINUOUS
10
139.619
20
-87.12
11
139.715
21
-87.2152
0
LINE
8
BLACK
6
CONTINUOUS
10
139.715
20
-87.2152
11
139.762
21
-87.4057
0
LINE
8
BLACK
6
CONTINUOUS
10
139.762
20
-87.4057
11
139.762
21
-87.739
0
LINE
8
BLACK
6
CONTINUOUS
10
139.762
20
-87.739
11
139.715
21
-87.9295
0
LINE
8
BLACK
6
CONTINUOUS
10
139.715
20
-87.9295
11
139.619
21
-88.0248
0
LINE
8
BLACK
6
CONTINUOUS
10
139.619
20
-88.0248
11
139.524
21
-88.0724
0
LINE
8
BLACK
6
CONTINUOUS
10
139.524
20
-88.0724
11
139.334
21
-88.0724
0
LINE
8
BLACK
6
CONTINUOUS
10
139.334
20
-88.0724
11
139.238
21
-88.0248
0
LINE
8
BLACK
6
CONTINUOUS
10
139.238
20
-88.0248
11
139.143
21
-87.9295
0
LINE
8
BLACK
6
CONTINUOUS
10
139.143
20
-87.9295
11
139.096
21
-87.739
0
LINE
8
BLACK
6
CONTINUOUS
10
139.096
20
-87.739
11
139.096
21
-87.4057
0
LINE
8
BLACK
6
CONTINUOUS
10
139.096
20
-87.4057
11
139.143
21
-87.2152
0
LINE
8
BLACK
6
CONTINUOUS
10
139.143
20
-87.2152
11
139.238
21
-87.12
0
LINE
8
BLACK
6
CONTINUOUS
10
139.238
20
-87.12
11
139.334
21
-87.0724
0
LINE
8
BLACK
6
CONTINUOUS
10
140.143
20
-87.1676
11
140.191
21
-87.12
0
LINE
8
BLACK
6
CONTINUOUS
10
140.191
20
-87.12
11
140.286
21
-87.0724
0
LINE
8
BLACK
6
CONTINUOUS
10
140.286
20
-87.0724
11
140.524
21
-87.0724
0
LINE
8
BLACK
6
CONTINUOUS
10
140.524
20
-87.0724
11
140.619
21
-87.12
0
LINE
8
BLACK
6
CONTINUOUS
10
140.619
20
-87.12
11
140.667
21
-87.1676
0
LINE
8
BLACK
6
CONTINUOUS
10
140.667
20
-87.1676
11
140.715
21
-87.2629
0
LINE
8
BLACK
6
CONTINUOUS
10
140.715
20
-87.2629
11
140.715
21
-87.3581
0
LINE
8
BLACK
6
CONTINUOUS
10
140.715
20
-87.3581
11
140.667
21
-87.501
0
LINE
8
BLACK
6
CONTINUOUS
10
140.667
20
-87.501
11
140.096
21
-88.0724
0
LINE
8
BLACK
6
CONTINUOUS
10
140.096
20
-88.0724
11
140.715
21
-88.0724
0
LINE
8
BLACK
6
CONTINUOUS
10
141.572
20
-87.0724
11
141.381
21
-87.0724
0
LINE
8
BLACK
6
CONTINUOUS
10
141.381
20
-87.0724
11
141.286
21
-87.12
0
LINE
8
BLACK
6
CONTINUOUS
10
141.286
20
-87.12
11
141.238
21
-87.1676
0
LINE
8
BLACK
6
CONTINUOUS
10
141.238
20
-87.1676
11
141.143
21
-87.3105
0
LINE
8
BLACK
6
CONTINUOUS
10
141.143
20
-87.3105
11
141.096
21
-87.501
0
LINE
8
BLACK
6
CONTINUOUS
10
141.096
20
-87.501
11
141.096
21
-87.8819
0
LINE
8
BLACK
6
CONTINUOUS
10
141.096
20
-87.8819
11
141.143
21
-87.9771
0
LINE
8
BLACK
6
CONTINUOUS
10
141.143
20
-87.9771
11
141.191
21
-88.0248
0
LINE
8
BLACK
6
CONTINUOUS
10
141.191
20
-88.0248
11
141.286
21
-88.0724
0
LINE
8
BLACK
6
CONTINUOUS
10
141.286
20
-88.0724
11
141.477
21
-88.0724
0
LINE
8
BLACK
6
CONTINUOUS
10
141.477
20
-88.0724
11
141.572
21
-88.0248
0
LINE
8
BLACK
6
CONTINUOUS
10
141.572
20
-88.0248
11
141.619
21
-87.9771
0
LINE
8
BLACK
6
CONTINUOUS
10
141.619
20
-87.9771
11
141.667
21
-87.8819
0
LINE
8
BLACK
6
CONTINUOUS
10
141.667
20
-87.8819
11
141.667
21
-87.6438
0
LINE
8
BLACK
6
CONTINUOUS
10
141.667
20
-87.6438
11
141.619
21
-87.5486
0
LINE
8
BLACK
6
CONTINUOUS
10
141.619
20
-87.5486
11
141.572
21
-87.501
0
LINE
8
BLACK
6
CONTINUOUS
10
141.572
20
-87.501
11
141.477
21
-87.4533
0
LINE
8
BLACK
6
CONTINUOUS
10
141.477
20
-87.4533
11
141.286
21
-87.4533
0
LINE
8
BLACK
6
CONTINUOUS
10
141.286
20
-87.4533
11
141.191
21
-87.501
0
LINE
8
BLACK
6
CONTINUOUS
10
141.191
20
-87.501
11
141.143
21
-87.5486
0
LINE
8
BLACK
6
CONTINUOUS
10
141.143
20
-87.5486
11
141.096
21
-87.6438
0
LINE
8
BLACK
6
CONTINUOUS
10
138.667
20
-90.6124
11
138.667
21
-89.6124
0
LINE
8
BLACK
6
CONTINUOUS
10
139.334
20
-89.6124
11
139.524
21
-89.6124
0
LINE
8
BLACK
6
CONTINUOUS
10
139.524
20
-89.6124
11
139.619
21
-89.66
0
LINE
8
BLACK
6
CONTINUOUS
10
139.619
20
-89.66
11
139.715
21
-89.7552
0
LINE
8
BLACK
6
CONTINUOUS
10
139.715
20
-89.7552
11
139.762
21
-89.9457
0
LINE
8
BLACK
6
CONTINUOUS
10
139.762
20
-89.9457
11
139.762
21
-90.279
0
LINE
8
BLACK
6
CONTINUOUS
10
139.762
20
-90.279
11
139.715
21
-90.4695
0
LINE
8
BLACK
6
CONTINUOUS
10
139.715
20
-90.4695
11
139.619
21
-90.5648
0
LINE
8
BLACK
6
CONTINUOUS
10
139.619
20
-90.5648
11
139.524
21
-90.6124
0
LINE
8
BLACK
6
CONTINUOUS
10
139.524
20
-90.6124
11
139.334
21
-90.6124
0
LINE
8
BLACK
6
CONTINUOUS
10
139.334
20
-90.6124
11
139.238
21
-90.5648
0
LINE
8
BLACK
6
CONTINUOUS
10
139.238
20
-90.5648
11
139.143
21
-90.4695
0
LINE
8
BLACK
6
CONTINUOUS
10
139.143
20
-90.4695
11
139.096
21
-90.279
0
LINE
8
BLACK
6
CONTINUOUS
10
139.096
20
-90.279
11
139.096
21
-89.9457
0
LINE
8
BLACK
6
CONTINUOUS
10
139.096
20
-89.9457
11
139.143
21
-89.7552
0
LINE
8
BLACK
6
CONTINUOUS
10
139.143
20
-89.7552
11
139.238
21
-89.66
0
LINE
8
BLACK
6
CONTINUOUS
10
139.238
20
-89.66
11
139.334
21
-89.6124
0
LINE
8
BLACK
6
CONTINUOUS
10
140.143
20
-89.7076
11
140.191
21
-89.66
0
LINE
8
BLACK
6
CONTINUOUS
10
140.191
20
-89.66
11
140.286
21
-89.6124
0
LINE
8
BLACK
6
CONTINUOUS
10
140.286
20
-89.6124
11
140.524
21
-89.6124
0
LINE
8
BLACK
6
CONTINUOUS
10
140.524
20
-89.6124
11
140.619
21
-89.66
0
LINE
8
BLACK
6
CONTINUOUS
10
140.619
20
-89.66
11
140.667
21
-89.7076
0
LINE
8
BLACK
6
CONTINUOUS
10
140.667
20
-89.7076
11
140.715
21
-89.8029
0
LINE
8
BLACK
6
CONTINUOUS
10
140.715
20
-89.8029
11
140.715
21
-89.8981
0
LINE
8
BLACK
6
CONTINUOUS
10
140.715
20
-89.8981
11
140.667
21
-90.041
0
LINE
8
BLACK
6
CONTINUOUS
10
140.667
20
-90.041
11
140.096
21
-90.6124
0
LINE
8
BLACK
6
CONTINUOUS
10
140.096
20
-90.6124
11
140.715
21
-90.6124
0
LINE
8
BLACK
6
CONTINUOUS
10
141.619
20
-89.6124
11
141.143
21
-89.6124
0
LINE
8
BLACK
6
CONTINUOUS
10
141.143
20
-89.6124
11
141.096
21
-90.0886
0
LINE
8
BLACK
6
CONTINUOUS
10
141.096
20
-90.0886
11
141.143
21
-90.041
0
LINE
8
BLACK
6
CONTINUOUS
10
141.143
20
-90.041
11
141.238
21
-89.9933
0
LINE
8
BLACK
6
CONTINUOUS
10
141.238
20
-89.9933
11
141.477
21
-89.9933
0
LINE
8
BLACK
6
CONTINUOUS
10
141.477
20
-89.9933
11
141.572
21
-90.041
0
LINE
8
BLACK
6
CONTINUOUS
10
141.572
20
-90.041
11
141.619
21
-90.0886
0
LINE
8
BLACK
6
CONTINUOUS
10
141.619
20
-90.0886
11
141.667
21
-90.1838
0
LINE
8
BLACK
6
CONTINUOUS
10
141.667
20
-90.1838
11
141.667
21
-90.4219
0
LINE
8
BLACK
6
CONTINUOUS
10
141.667
20
-90.4219
11
141.619
21
-90.5171
0
LINE
8
BLACK
6
CONTINUOUS
10
141.619
20
-90.5171
11
141.572
21
-90.5648
0
LINE
8
BLACK
6
CONTINUOUS
10
141.572
20
-90.5648
11
141.477
21
-90.6124
0
LINE
8
BLACK
6
CONTINUOUS
10
141.477
20
-90.6124
11
141.238
21
-90.6124
0
LINE
8
BLACK
6
CONTINUOUS
10
141.238
20
-90.6124
11
141.143
21
-90.5648
0
LINE
8
BLACK
6
CONTINUOUS
10
141.143
20
-90.5648
11
141.096
21
-90.5171
0
LINE
8
BLACK
6
CONTINUOUS
10
99.0381
20
-77.3824
11
99.0381
21
-78.1919
0
LINE
8
BLACK
6
CONTINUOUS
10
99.0381
20
-78.1919
11
99.0857
21
-78.2871
0
LINE
8
BLACK
6
CONTINUOUS
10
99.0857
20
-78.2871
11
99.1333
21
-78.3348
0
LINE
8
BLACK
6
CONTINUOUS
10
99.1333
20
-78.3348
11
99.2286
21
-78.3824
0
LINE
8
BLACK
6
CONTINUOUS
10
99.2286
20
-78.3824
11
99.419
21
-78.3824
0
LINE
8
BLACK
6
CONTINUOUS
10
99.419
20
-78.3824
11
99.5143
21
-78.3348
0
LINE
8
BLACK
6
CONTINUOUS
10
99.5143
20
-78.3348
11
99.5619
21
-78.2871
0
LINE
8
BLACK
6
CONTINUOUS
10
99.5619
20
-78.2871
11
99.6095
21
-78.1919
0
LINE
8
BLACK
6
CONTINUOUS
10
99.6095
20
-78.1919
11
99.6095
21
-77.3824
0
LINE
8
BLACK
6
CONTINUOUS
10
100.61
20
-78.3824
11
100.038
21
-78.3824
0
LINE
8
BLACK
6
CONTINUOUS
10
100.324
20
-78.3824
11
100.324
21
-77.3824
0
LINE
8
BLACK
6
CONTINUOUS
10
100.324
20
-77.3824
11
100.229
21
-77.5252
0
LINE
8
BLACK
6
CONTINUOUS
10
100.229
20
-77.5252
11
100.133
21
-77.6205
0
LINE
8
BLACK
6
CONTINUOUS
10
100.133
20
-77.6205
11
100.038
21
-77.6681
0
LINE
8
BLACK
6
CONTINUOUS
10
92.2643
20
-76.0686
11
92.2643
21
-74.5686
0
LINE
8
BLACK
6
CONTINUOUS
10
92.2643
20
-74.5686
11
92.7643
21
-75.64
0
LINE
8
BLACK
6
CONTINUOUS
10
92.7643
20
-75.64
11
93.2643
21
-74.5686
0
LINE
8
BLACK
6
CONTINUOUS
10
93.2643
20
-74.5686
11
93.2643
21
-76.0686
0
LINE
8
BLACK
6
CONTINUOUS
10
93.9786
20
-76.0686
11
93.9786
21
-74.5686
0
LINE
8
BLACK
6
CONTINUOUS
10
94.8357
20
-76.0686
11
94.1929
21
-75.2114
0
LINE
8
BLACK
6
CONTINUOUS
10
94.8357
20
-74.5686
11
93.9786
21
-75.4257
0
LINE
8
BLACK
6
CONTINUOUS
10
96.3357
20
-76.0686
11
95.8357
21
-75.3543
0
LINE
8
BLACK
6
CONTINUOUS
10
95.4786
20
-76.0686
11
95.4786
21
-74.5686
0
LINE
8
BLACK
6
CONTINUOUS
10
95.4786
20
-74.5686
11
96.05
21
-74.5686
0
LINE
8
BLACK
6
CONTINUOUS
10
96.05
20
-74.5686
11
96.1929
21
-74.64
0
LINE
8
BLACK
6
CONTINUOUS
10
96.1929
20
-74.64
11
96.2643
21
-74.7114
0
LINE
8
BLACK
6
CONTINUOUS
10
96.2643
20
-74.7114
11
96.3357
21
-74.8543
0
LINE
8
BLACK
6
CONTINUOUS
10
96.3357
20
-74.8543
11
96.3357
21
-75.0686
0
LINE
8
BLACK
6
CONTINUOUS
10
96.3357
20
-75.0686
11
96.2643
21
-75.2114
0
LINE
8
BLACK
6
CONTINUOUS
10
96.2643
20
-75.2114
11
96.1929
21
-75.2829
0
LINE
8
BLACK
6
CONTINUOUS
10
96.1929
20
-75.2829
11
96.05
21
-75.3543
0
LINE
8
BLACK
6
CONTINUOUS
10
96.05
20
-75.3543
11
95.4786
21
-75.3543
0
LINE
8
BLACK
6
CONTINUOUS
10
96.6214
20
-76.2114
11
97.7643
21
-76.2114
0
LINE
8
BLACK
6
CONTINUOUS
10
98.1214
20
-76.0686
11
98.1214
21
-74.5686
0
LINE
8
BLACK
6
CONTINUOUS
10
98.1214
20
-74.5686
11
98.9786
21
-76.0686
0
LINE
8
BLACK
6
CONTINUOUS
10
98.9786
20
-76.0686
11
98.9786
21
-74.5686
0
LINE
8
BLACK
6
CONTINUOUS
10
100.193
20
-75.2829
11
100.407
21
-75.3543
0
LINE
8
BLACK
6
CONTINUOUS
10
100.407
20
-75.3543
11
100.479
21
-75.4257
0
LINE
8
BLACK
6
CONTINUOUS
10
100.479
20
-75.4257
11
100.55
21
-75.5686
0
LINE
8
BLACK
6
CONTINUOUS
10
100.55
20
-75.5686
11
100.55
21
-75.7829
0
LINE
8
BLACK
6
CONTINUOUS
10
100.55
20
-75.7829
11
100.479
21
-75.9257
0
LINE
8
BLACK
6
CONTINUOUS
10
100.479
20
-75.9257
11
100.407
21
-75.9971
0
LINE
8
BLACK
6
CONTINUOUS
10
100.407
20
-75.9971
11
100.264
21
-76.0686
0
LINE
8
BLACK
6
CONTINUOUS
10
100.264
20
-76.0686
11
99.6929
21
-76.0686
0
LINE
8
BLACK
6
CONTINUOUS
10
99.6929
20
-76.0686
11
99.6929
21
-74.5686
0
LINE
8
BLACK
6
CONTINUOUS
10
99.6929
20
-74.5686
11
100.193
21
-74.5686
0
LINE
8
BLACK
6
CONTINUOUS
10
100.193
20
-74.5686
11
100.336
21
-74.64
0
LINE
8
BLACK
6
CONTINUOUS
10
100.336
20
-74.64
11
100.407
21
-74.7114
0
LINE
8
BLACK
6
CONTINUOUS
10
100.407
20
-74.7114
11
100.479
21
-74.8543
0
LINE
8
BLACK
6
CONTINUOUS
10
100.479
20
-74.8543
11
100.479
21
-74.9971
0
LINE
8
BLACK
6
CONTINUOUS
10
100.479
20
-74.9971
11
100.407
21
-75.14
0
LINE
8
BLACK
6
CONTINUOUS
10
100.407
20
-75.14
11
100.336
21
-75.2114
0
LINE
8
BLACK
6
CONTINUOUS
10
100.336
20
-75.2114
11
100.193
21
-75.2829
0
LINE
8
BLACK
6
CONTINUOUS
10
100.193
20
-75.2829
11
99.6929
21
-75.2829
0
LINE
8
BLACK
6
CONTINUOUS
10
100.836
20
-76.2114
11
101.979
21
-76.2114
0
LINE
8
BLACK
6
CONTINUOUS
10
103.121
20
-76.0686
11
102.264
21
-76.0686
0
LINE
8
BLACK
6
CONTINUOUS
10
102.693
20
-76.0686
11
102.693
21
-74.5686
0
LINE
8
BLACK
6
CONTINUOUS
10
102.693
20
-74.5686
11
102.55
21
-74.7829
0
LINE
8
BLACK
6
CONTINUOUS
10
102.55
20
-74.7829
11
102.407
21
-74.9257
0
LINE
8
BLACK
6
CONTINUOUS
10
102.407
20
-74.9257
11
102.264
21
-74.9971
0
LINE
8
BLACK
6
CONTINUOUS
10
104.479
20
-74.5686
11
103.764
21
-74.5686
0
LINE
8
BLACK
6
CONTINUOUS
10
103.764
20
-74.5686
11
103.693
21
-75.2829
0
LINE
8
BLACK
6
CONTINUOUS
10
103.693
20
-75.2829
11
103.764
21
-75.2114
0
LINE
8
BLACK
6
CONTINUOUS
10
103.764
20
-75.2114
11
103.907
21
-75.14
0
LINE
8
BLACK
6
CONTINUOUS
10
103.907
20
-75.14
11
104.264
21
-75.14
0
LINE
8
BLACK
6
CONTINUOUS
10
104.264
20
-75.14
11
104.407
21
-75.2114
0
LINE
8
BLACK
6
CONTINUOUS
10
104.407
20
-75.2114
11
104.479
21
-75.2829
0
LINE
8
BLACK
6
CONTINUOUS
10
104.479
20
-75.2829
11
104.55
21
-75.4257
0
LINE
8
BLACK
6
CONTINUOUS
10
104.55
20
-75.4257
11
104.55
21
-75.7829
0
LINE
8
BLACK
6
CONTINUOUS
10
104.55
20
-75.7829
11
104.479
21
-75.9257
0
LINE
8
BLACK
6
CONTINUOUS
10
104.479
20
-75.9257
11
104.407
21
-75.9971
0
LINE
8
BLACK
6
CONTINUOUS
10
104.407
20
-75.9971
11
104.264
21
-76.0686
0
LINE
8
BLACK
6
CONTINUOUS
10
104.264
20
-76.0686
11
103.907
21
-76.0686
0
LINE
8
BLACK
6
CONTINUOUS
10
103.907
20
-76.0686
11
103.764
21
-75.9971
0
LINE
8
BLACK
6
CONTINUOUS
10
103.764
20
-75.9971
11
103.693
21
-75.9257
0
LINE
8
BLACK
6
CONTINUOUS
10
105.479
20
-74.5686
11
105.621
21
-74.5686
0
LINE
8
BLACK
6
CONTINUOUS
10
105.621
20
-74.5686
11
105.764
21
-74.64
0
LINE
8
BLACK
6
CONTINUOUS
10
105.764
20
-74.64
11
105.836
21
-74.7114
0
LINE
8
BLACK
6
CONTINUOUS
10
105.836
20
-74.7114
11
105.907
21
-74.8543
0
LINE
8
BLACK
6
CONTINUOUS
10
105.907
20
-74.8543
11
105.979
21
-75.14
0
LINE
8
BLACK
6
CONTINUOUS
10
105.979
20
-75.14
11
105.979
21
-75.4971
0
LINE
8
BLACK
6
CONTINUOUS
10
105.979
20
-75.4971
11
105.907
21
-75.7829
0
LINE
8
BLACK
6
CONTINUOUS
10
105.907
20
-75.7829
11
105.836
21
-75.9257
0
LINE
8
BLACK
6
CONTINUOUS
10
105.836
20
-75.9257
11
105.764
21
-75.9971
0
LINE
8
BLACK
6
CONTINUOUS
10
105.764
20
-75.9971
11
105.621
21
-76.0686
0
LINE
8
BLACK
6
CONTINUOUS
10
105.621
20
-76.0686
11
105.479
21
-76.0686
0
LINE
8
BLACK
6
CONTINUOUS
10
105.479
20
-76.0686
11
105.336
21
-75.9971
0
LINE
8
BLACK
6
CONTINUOUS
10
105.336
20
-75.9971
11
105.264
21
-75.9257
0
LINE
8
BLACK
6
CONTINUOUS
10
105.264
20
-75.9257
11
105.193
21
-75.7829
0
LINE
8
BLACK
6
CONTINUOUS
10
105.193
20
-75.7829
11
105.121
21
-75.4971
0
LINE
8
BLACK
6
CONTINUOUS
10
105.121
20
-75.4971
11
105.121
21
-75.14
0
LINE
8
BLACK
6
CONTINUOUS
10
105.121
20
-75.14
11
105.193
21
-74.8543
0
LINE
8
BLACK
6
CONTINUOUS
10
105.193
20
-74.8543
11
105.264
21
-74.7114
0
LINE
8
BLACK
6
CONTINUOUS
10
105.264
20
-74.7114
11
105.336
21
-74.64
0
LINE
8
BLACK
6
CONTINUOUS
10
105.336
20
-74.64
11
105.479
21
-74.5686
0
LINE
8
BLACK
6
CONTINUOUS
10
106.907
20
-74.5686
11
107.05
21
-74.5686
0
LINE
8
BLACK
6
CONTINUOUS
10
107.05
20
-74.5686
11
107.193
21
-74.64
0
LINE
8
BLACK
6
CONTINUOUS
10
107.193
20
-74.64
11
107.264
21
-74.7114
0
LINE
8
BLACK
6
CONTINUOUS
10
107.264
20
-74.7114
11
107.336
21
-74.8543
0
LINE
8
BLACK
6
CONTINUOUS
10
107.336
20
-74.8543
11
107.407
21
-75.14
0
LINE
8
BLACK
6
CONTINUOUS
10
107.407
20
-75.14
11
107.407
21
-75.4971
0
LINE
8
BLACK
6
CONTINUOUS
10
107.407
20
-75.4971
11
107.336
21
-75.7829
0
LINE
8
BLACK
6
CONTINUOUS
10
107.336
20
-75.7829
11
107.264
21
-75.9257
0
LINE
8
BLACK
6
CONTINUOUS
10
107.264
20
-75.9257
11
107.193
21
-75.9971
0
LINE
8
BLACK
6
CONTINUOUS
10
107.193
20
-75.9971
11
107.05
21
-76.0686
0
LINE
8
BLACK
6
CONTINUOUS
10
107.05
20
-76.0686
11
106.907
21
-76.0686
0
LINE
8
BLACK
6
CONTINUOUS
10
106.907
20
-76.0686
11
106.764
21
-75.9971
0
LINE
8
BLACK
6
CONTINUOUS
10
106.764
20
-75.9971
11
106.693
21
-75.9257
0
LINE
8
BLACK
6
CONTINUOUS
10
106.693
20
-75.9257
11
106.621
21
-75.7829
0
LINE
8
BLACK
6
CONTINUOUS
10
106.621
20
-75.7829
11
106.55
21
-75.4971
0
LINE
8
BLACK
6
CONTINUOUS
10
106.55
20
-75.4971
11
106.55
21
-75.14
0
LINE
8
BLACK
6
CONTINUOUS
10
106.55
20
-75.14
11
106.621
21
-74.8543
0
LINE
8
BLACK
6
CONTINUOUS
10
106.621
20
-74.8543
11
106.693
21
-74.7114
0
LINE
8
BLACK
6
CONTINUOUS
10
106.693
20
-74.7114
11
106.764
21
-74.64
0
LINE
8
BLACK
6
CONTINUOUS
10
106.764
20
-74.64
11
106.907
21
-74.5686
0
LINE
8
BLACK
6
CONTINUOUS
10
91.198
20
-88.2567
11
91.6742
21
-88.2567
0
LINE
8
BLACK
6
CONTINUOUS
10
91.1027
20
-88.5424
11
91.4361
21
-87.5424
0
LINE
8
BLACK
6
CONTINUOUS
10
91.4361
20
-87.5424
11
91.7694
21
-88.5424
0
LINE
8
BLACK
6
CONTINUOUS
10
92.6742
20
-88.5424
11
92.3408
21
-88.0662
0
LINE
8
BLACK
6
CONTINUOUS
10
92.1027
20
-88.5424
11
92.1027
21
-87.5424
0
LINE
8
BLACK
6
CONTINUOUS
10
92.1027
20
-87.5424
11
92.4837
21
-87.5424
0
LINE
8
BLACK
6
CONTINUOUS
10
92.4837
20
-87.5424
11
92.5789
21
-87.59
0
LINE
8
BLACK
6
CONTINUOUS
10
92.5789
20
-87.59
11
92.6265
21
-87.6376
0
LINE
8
BLACK
6
CONTINUOUS
10
92.6265
20
-87.6376
11
92.6742
21
-87.7329
0
LINE
8
BLACK
6
CONTINUOUS
10
92.6742
20
-87.7329
11
92.6742
21
-87.8757
0
LINE
8
BLACK
6
CONTINUOUS
10
92.6742
20
-87.8757
11
92.6265
21
-87.971
0
LINE
8
BLACK
6
CONTINUOUS
10
92.6265
20
-87.971
11
92.5789
21
-88.0186
0
LINE
8
BLACK
6
CONTINUOUS
10
92.5789
20
-88.0186
11
92.4837
21
-88.0662
0
LINE
8
BLACK
6
CONTINUOUS
10
92.4837
20
-88.0662
11
92.1027
21
-88.0662
0
LINE
8
BLACK
6
CONTINUOUS
10
93.1027
20
-88.0186
11
93.4361
21
-88.0186
0
LINE
8
BLACK
6
CONTINUOUS
10
93.5789
20
-88.5424
11
93.1027
21
-88.5424
0
LINE
8
BLACK
6
CONTINUOUS
10
93.1027
20
-88.5424
11
93.1027
21
-87.5424
0
LINE
8
BLACK
6
CONTINUOUS
10
93.1027
20
-87.5424
11
93.5789
21
-87.5424
0
LINE
8
BLACK
6
CONTINUOUS
10
94.3408
20
-88.0186
11
94.0075
21
-88.0186
0
LINE
8
BLACK
6
CONTINUOUS
10
94.0075
20
-88.5424
11
94.0075
21
-87.5424
0
LINE
8
BLACK
6
CONTINUOUS
10
94.0075
20
-87.5424
11
94.4837
21
-87.5424
0
LINE
8
BLACK
6
CONTINUOUS
10
91.198
20
-90.7967
11
91.6742
21
-90.7967
0
LINE
8
BLACK
6
CONTINUOUS
10
91.1027
20
-91.0824
11
91.4361
21
-90.0824
0
LINE
8
BLACK
6
CONTINUOUS
10
91.4361
20
-90.0824
11
91.7694
21
-91.0824
0
LINE
8
BLACK
6
CONTINUOUS
10
92.2932
20
-90.0824
11
92.3885
21
-90.0824
0
LINE
8
BLACK
6
CONTINUOUS
10
92.3885
20
-90.0824
11
92.4837
21
-90.13
0
LINE
8
BLACK
6
CONTINUOUS
10
92.4837
20
-90.13
11
92.5313
21
-90.1776
0
LINE
8
BLACK
6
CONTINUOUS
10
92.5313
20
-90.1776
11
92.5789
21
-90.2729
0
LINE
8
BLACK
6
CONTINUOUS
10
92.5789
20
-90.2729
11
92.6265
21
-90.4633
0
LINE
8
BLACK
6
CONTINUOUS
10
92.6265
20
-90.4633
11
92.6265
21
-90.7014
0
LINE
8
BLACK
6
CONTINUOUS
10
92.6265
20
-90.7014
11
92.5789
21
-90.8919
0
LINE
8
BLACK
6
CONTINUOUS
10
92.5789
20
-90.8919
11
92.5313
21
-90.9871
0
LINE
8
BLACK
6
CONTINUOUS
10
92.5313
20
-90.9871
11
92.4837
21
-91.0348
0
LINE
8
BLACK
6
CONTINUOUS
10
92.4837
20
-91.0348
11
92.3885
21
-91.0824
0
LINE
8
BLACK
6
CONTINUOUS
10
92.3885
20
-91.0824
11
92.2932
21
-91.0824
0
LINE
8
BLACK
6
CONTINUOUS
10
92.2932
20
-91.0824
11
92.198
21
-91.0348
0
LINE
8
BLACK
6
CONTINUOUS
10
92.198
20
-91.0348
11
92.1504
21
-90.9871
0
LINE
8
BLACK
6
CONTINUOUS
10
92.1504
20
-90.9871
11
92.1027
21
-90.8919
0
LINE
8
BLACK
6
CONTINUOUS
10
92.1027
20
-90.8919
11
92.0551
21
-90.7014
0
LINE
8
BLACK
6
CONTINUOUS
10
92.0551
20
-90.7014
11
92.0551
21
-90.4633
0
LINE
8
BLACK
6
CONTINUOUS
10
92.0551
20
-90.4633
11
92.1027
21
-90.2729
0
LINE
8
BLACK
6
CONTINUOUS
10
92.1027
20
-90.2729
11
92.1504
21
-90.1776
0
LINE
8
BLACK
6
CONTINUOUS
10
92.1504
20
-90.1776
11
92.198
21
-90.13
0
LINE
8
BLACK
6
CONTINUOUS
10
92.198
20
-90.13
11
92.2932
21
-90.0824
0
LINE
8
BLACK
6
CONTINUOUS
10
91.198
20
-93.3367
11
91.6742
21
-93.3367
0
LINE
8
BLACK
6
CONTINUOUS
10
91.1027
20
-93.6224
11
91.4361
21
-92.6224
0
LINE
8
BLACK
6
CONTINUOUS
10
91.4361
20
-92.6224
11
91.7694
21
-93.6224
0
LINE
8
BLACK
6
CONTINUOUS
10
92.6265
20
-93.6224
11
92.0551
21
-93.6224
0
LINE
8
BLACK
6
CONTINUOUS
10
92.3408
20
-93.6224
11
92.3408
21
-92.6224
0
LINE
8
BLACK
6
CONTINUOUS
10
92.3408
20
-92.6224
11
92.2456
21
-92.7652
0
LINE
8
BLACK
6
CONTINUOUS
10
92.2456
20
-92.7652
11
92.1504
21
-92.8605
0
LINE
8
BLACK
6
CONTINUOUS
10
92.1504
20
-92.8605
11
92.0551
21
-92.9081
0
LINE
8
BLACK
6
CONTINUOUS
10
91.198
20
-95.8767
11
91.6742
21
-95.8767
0
LINE
8
BLACK
6
CONTINUOUS
10
91.1027
20
-96.1624
11
91.4361
21
-95.1624
0
LINE
8
BLACK
6
CONTINUOUS
10
91.4361
20
-95.1624
11
91.7694
21
-96.1624
0
LINE
8
BLACK
6
CONTINUOUS
10
92.0551
20
-95.2576
11
92.1027
21
-95.21
0
LINE
8
BLACK
6
CONTINUOUS
10
92.1027
20
-95.21
11
92.198
21
-95.1624
0
LINE
8
BLACK
6
CONTINUOUS
10
92.198
20
-95.1624
11
92.4361
21
-95.1624
0
LINE
8
BLACK
6
CONTINUOUS
10
92.4361
20
-95.1624
11
92.5313
21
-95.21
0
LINE
8
BLACK
6
CONTINUOUS
10
92.5313
20
-95.21
11
92.5789
21
-95.2576
0
LINE
8
BLACK
6
CONTINUOUS
10
92.5789
20
-95.2576
11
92.6265
21
-95.3529
0
LINE
8
BLACK
6
CONTINUOUS
10
92.6265
20
-95.3529
11
92.6265
21
-95.4481
0
LINE
8
BLACK
6
CONTINUOUS
10
92.6265
20
-95.4481
11
92.5789
21
-95.591
0
LINE
8
BLACK
6
CONTINUOUS
10
92.5789
20
-95.591
11
92.0075
21
-96.1624
0
LINE
8
BLACK
6
CONTINUOUS
10
92.0075
20
-96.1624
11
92.6265
21
-96.1624
0
LINE
8
BLACK
6
CONTINUOUS
10
91.198
20
-98.4167
11
91.6742
21
-98.4167
0
LINE
8
BLACK
6
CONTINUOUS
10
91.1027
20
-98.7024
11
91.4361
21
-97.7024
0
LINE
8
BLACK
6
CONTINUOUS
10
91.4361
20
-97.7024
11
91.7694
21
-98.7024
0
LINE
8
BLACK
6
CONTINUOUS
10
92.0075
20
-97.7024
11
92.6265
21
-97.7024
0
LINE
8
BLACK
6
CONTINUOUS
10
92.6265
20
-97.7024
11
92.2932
21
-98.0833
0
LINE
8
BLACK
6
CONTINUOUS
10
92.2932
20
-98.0833
11
92.4361
21
-98.0833
0
LINE
8
BLACK
6
CONTINUOUS
10
92.4361
20
-98.0833
11
92.5313
21
-98.131
0
LINE
8
BLACK
6
CONTINUOUS
10
92.5313
20
-98.131
11
92.5789
21
-98.1786
0
LINE
8
BLACK
6
CONTINUOUS
10
92.5789
20
-98.1786
11
92.6265
21
-98.2738
0
LINE
8
BLACK
6
CONTINUOUS
10
92.6265
20
-98.2738
11
92.6265
21
-98.5119
0
LINE
8
BLACK
6
CONTINUOUS
10
92.6265
20
-98.5119
11
92.5789
21
-98.6071
0
LINE
8
BLACK
6
CONTINUOUS
10
92.5789
20
-98.6071
11
92.5313
21
-98.6548
0
LINE
8
BLACK
6
CONTINUOUS
10
92.5313
20
-98.6548
11
92.4361
21
-98.7024
0
LINE
8
BLACK
6
CONTINUOUS
10
92.4361
20
-98.7024
11
92.1504
21
-98.7024
0
LINE
8
BLACK
6
CONTINUOUS
10
92.1504
20
-98.7024
11
92.0551
21
-98.6548
0
LINE
8
BLACK
6
CONTINUOUS
10
92.0551
20
-98.6548
11
92.0075
21
-98.6071
0
LINE
8
BLACK
6
CONTINUOUS
10
91.198
20
-100.957
11
91.6742
21
-100.957
0
LINE
8
BLACK
6
CONTINUOUS
10
91.1027
20
-101.242
11
91.4361
21
-100.242
0
LINE
8
BLACK
6
CONTINUOUS
10
91.4361
20
-100.242
11
91.7694
21
-101.242
0
LINE
8
BLACK
6
CONTINUOUS
10
92.5313
20
-100.576
11
92.5313
21
-101.242
0
LINE
8
BLACK
6
CONTINUOUS
10
92.2932
20
-100.195
11
92.0551
21
-100.909
0
LINE
8
BLACK
6
CONTINUOUS
10
92.0551
20
-100.909
11
92.6742
21
-100.909
0
LINE
8
BLACK
6
CONTINUOUS
10
91.198
20
-103.497
11
91.6742
21
-103.497
0
LINE
8
BLACK
6
CONTINUOUS
10
91.1027
20
-103.782
11
91.4361
21
-102.782
0
LINE
8
BLACK
6
CONTINUOUS
10
91.4361
20
-102.782
11
91.7694
21
-103.782
0
LINE
8
BLACK
6
CONTINUOUS
10
92.5789
20
-102.782
11
92.1027
21
-102.782
0
LINE
8
BLACK
6
CONTINUOUS
10
92.1027
20
-102.782
11
92.0551
21
-103.259
0
LINE
8
BLACK
6
CONTINUOUS
10
92.0551
20
-103.259
11
92.1027
21
-103.211
0
LINE
8
BLACK
6
CONTINUOUS
10
92.1027
20
-103.211
11
92.198
21
-103.163
0
LINE
8
BLACK
6
CONTINUOUS
10
92.198
20
-103.163
11
92.4361
21
-103.163
0
LINE
8
BLACK
6
CONTINUOUS
10
92.4361
20
-103.163
11
92.5313
21
-103.211
0
LINE
8
BLACK
6
CONTINUOUS
10
92.5313
20
-103.211
11
92.5789
21
-103.259
0
LINE
8
BLACK
6
CONTINUOUS
10
92.5789
20
-103.259
11
92.6265
21
-103.354
0
LINE
8
BLACK
6
CONTINUOUS
10
92.6265
20
-103.354
11
92.6265
21
-103.592
0
LINE
8
BLACK
6
CONTINUOUS
10
92.6265
20
-103.592
11
92.5789
21
-103.687
0
LINE
8
BLACK
6
CONTINUOUS
10
92.5789
20
-103.687
11
92.5313
21
-103.735
0
LINE
8
BLACK
6
CONTINUOUS
10
92.5313
20
-103.735
11
92.4361
21
-103.782
0
LINE
8
BLACK
6
CONTINUOUS
10
92.4361
20
-103.782
11
92.198
21
-103.782
0
LINE
8
BLACK
6
CONTINUOUS
10
92.198
20
-103.782
11
92.1027
21
-103.735
0
LINE
8
BLACK
6
CONTINUOUS
10
92.1027
20
-103.735
11
92.0551
21
-103.687
0
LINE
8
BLACK
6
CONTINUOUS
10
91.198
20
-106.037
11
91.6742
21
-106.037
0
LINE
8
BLACK
6
CONTINUOUS
10
91.1027
20
-106.322
11
91.4361
21
-105.322
0
LINE
8
BLACK
6
CONTINUOUS
10
91.4361
20
-105.322
11
91.7694
21
-106.322
0
LINE
8
BLACK
6
CONTINUOUS
10
92.5313
20
-105.322
11
92.3408
21
-105.322
0
LINE
8
BLACK
6
CONTINUOUS
10
92.3408
20
-105.322
11
92.2456
21
-105.37
0
LINE
8
BLACK
6
CONTINUOUS
10
92.2456
20
-105.37
11
92.198
21
-105.418
0
LINE
8
BLACK
6
CONTINUOUS
10
92.198
20
-105.418
11
92.1027
21
-105.56
0
LINE
8
BLACK
6
CONTINUOUS
10
92.1027
20
-105.56
11
92.0551
21
-105.751
0
LINE
8
BLACK
6
CONTINUOUS
10
92.0551
20
-105.751
11
92.0551
21
-106.132
0
LINE
8
BLACK
6
CONTINUOUS
10
92.0551
20
-106.132
11
92.1027
21
-106.227
0
LINE
8
BLACK
6
CONTINUOUS
10
92.1027
20
-106.227
11
92.1504
21
-106.275
0
LINE
8
BLACK
6
CONTINUOUS
10
92.1504
20
-106.275
11
92.2456
21
-106.322
0
LINE
8
BLACK
6
CONTINUOUS
10
92.2456
20
-106.322
11
92.4361
21
-106.322
0
LINE
8
BLACK
6
CONTINUOUS
10
92.4361
20
-106.322
11
92.5313
21
-106.275
0
LINE
8
BLACK
6
CONTINUOUS
10
92.5313
20
-106.275
11
92.5789
21
-106.227
0
LINE
8
BLACK
6
CONTINUOUS
10
92.5789
20
-106.227
11
92.6265
21
-106.132
0
LINE
8
BLACK
6
CONTINUOUS
10
92.6265
20
-106.132
11
92.6265
21
-105.894
0
LINE
8
BLACK
6
CONTINUOUS
10
92.6265
20
-105.894
11
92.5789
21
-105.799
0
LINE
8
BLACK
6
CONTINUOUS
10
92.5789
20
-105.799
11
92.5313
21
-105.751
0
LINE
8
BLACK
6
CONTINUOUS
10
92.5313
20
-105.751
11
92.4361
21
-105.703
0
LINE
8
BLACK
6
CONTINUOUS
10
92.4361
20
-105.703
11
92.2456
21
-105.703
0
LINE
8
BLACK
6
CONTINUOUS
10
92.2456
20
-105.703
11
92.1504
21
-105.751
0
LINE
8
BLACK
6
CONTINUOUS
10
92.1504
20
-105.751
11
92.1027
21
-105.799
0
LINE
8
BLACK
6
CONTINUOUS
10
92.1027
20
-105.799
11
92.0551
21
-105.894
0
LINE
8
BLACK
6
CONTINUOUS
10
91.2456
20
-108.862
11
91.2456
21
-107.862
0
LINE
8
BLACK
6
CONTINUOUS
10
91.2456
20
-107.862
11
91.4837
21
-107.862
0
LINE
8
BLACK
6
CONTINUOUS
10
91.4837
20
-107.862
11
91.6265
21
-107.91
0
LINE
8
BLACK
6
CONTINUOUS
10
91.6265
20
-107.91
11
91.7218
21
-108.005
0
LINE
8
BLACK
6
CONTINUOUS
10
91.7218
20
-108.005
11
91.7694
21
-108.1
0
LINE
8
BLACK
6
CONTINUOUS
10
91.7694
20
-108.1
11
91.817
21
-108.291
0
LINE
8
BLACK
6
CONTINUOUS
10
91.817
20
-108.291
11
91.817
21
-108.434
0
LINE
8
BLACK
6
CONTINUOUS
10
91.817
20
-108.434
11
91.7694
21
-108.624
0
LINE
8
BLACK
6
CONTINUOUS
10
91.7694
20
-108.624
11
91.7218
21
-108.72
0
LINE
8
BLACK
6
CONTINUOUS
10
91.7218
20
-108.72
11
91.6265
21
-108.815
0
LINE
8
BLACK
6
CONTINUOUS
10
91.6265
20
-108.815
11
91.4837
21
-108.862
0
LINE
8
BLACK
6
CONTINUOUS
10
91.4837
20
-108.862
11
91.2456
21
-108.862
0
LINE
8
BLACK
6
CONTINUOUS
10
92.4361
20
-107.862
11
92.5313
21
-107.862
0
LINE
8
BLACK
6
CONTINUOUS
10
92.5313
20
-107.862
11
92.6265
21
-107.91
0
LINE
8
BLACK
6
CONTINUOUS
10
92.6265
20
-107.91
11
92.6742
21
-107.958
0
LINE
8
BLACK
6
CONTINUOUS
10
92.6742
20
-107.958
11
92.7218
21
-108.053
0
LINE
8
BLACK
6
CONTINUOUS
10
92.7218
20
-108.053
11
92.7694
21
-108.243
0
LINE
8
BLACK
6
CONTINUOUS
10
92.7694
20
-108.243
11
92.7694
21
-108.481
0
LINE
8
BLACK
6
CONTINUOUS
10
92.7694
20
-108.481
11
92.7218
21
-108.672
0
LINE
8
BLACK
6
CONTINUOUS
10
92.7218
20
-108.672
11
92.6742
21
-108.767
0
LINE
8
BLACK
6
CONTINUOUS
10
92.6742
20
-108.767
11
92.6265
21
-108.815
0
LINE
8
BLACK
6
CONTINUOUS
10
92.6265
20
-108.815
11
92.5313
21
-108.862
0
LINE
8
BLACK
6
CONTINUOUS
10
92.5313
20
-108.862
11
92.4361
21
-108.862
0
LINE
8
BLACK
6
CONTINUOUS
10
92.4361
20
-108.862
11
92.3408
21
-108.815
0
LINE
8
BLACK
6
CONTINUOUS
10
92.3408
20
-108.815
11
92.2932
21
-108.767
0
LINE
8
BLACK
6
CONTINUOUS
10
92.2932
20
-108.767
11
92.2456
21
-108.672
0
LINE
8
BLACK
6
CONTINUOUS
10
92.2456
20
-108.672
11
92.198
21
-108.481
0
LINE
8
BLACK
6
CONTINUOUS
10
92.198
20
-108.481
11
92.198
21
-108.243
0
LINE
8
BLACK
6
CONTINUOUS
10
92.198
20
-108.243
11
92.2456
21
-108.053
0
LINE
8
BLACK
6
CONTINUOUS
10
92.2456
20
-108.053
11
92.2932
21
-107.958
0
LINE
8
BLACK
6
CONTINUOUS
10
92.2932
20
-107.958
11
92.3408
21
-107.91
0
LINE
8
BLACK
6
CONTINUOUS
10
92.3408
20
-107.91
11
92.4361
21
-107.862
0
LINE
8
BLACK
6
CONTINUOUS
10
91.2456
20
-111.402
11
91.2456
21
-110.402
0
LINE
8
BLACK
6
CONTINUOUS
10
91.2456
20
-110.402
11
91.4837
21
-110.402
0
LINE
8
BLACK
6
CONTINUOUS
10
91.4837
20
-110.402
11
91.6265
21
-110.45
0
LINE
8
BLACK
6
CONTINUOUS
10
91.6265
20
-110.45
11
91.7218
21
-110.545
0
LINE
8
BLACK
6
CONTINUOUS
10
91.7218
20
-110.545
11
91.7694
21
-110.64
0
LINE
8
BLACK
6
CONTINUOUS
10
91.7694
20
-110.64
11
91.817
21
-110.831
0
LINE
8
BLACK
6
CONTINUOUS
10
91.817
20
-110.831
11
91.817
21
-110.974
0
LINE
8
BLACK
6
CONTINUOUS
10
91.817
20
-110.974
11
91.7694
21
-111.164
0
LINE
8
BLACK
6
CONTINUOUS
10
91.7694
20
-111.164
11
91.7218
21
-111.26
0
LINE
8
BLACK
6
CONTINUOUS
10
91.7218
20
-111.26
11
91.6265
21
-111.355
0
LINE
8
BLACK
6
CONTINUOUS
10
91.6265
20
-111.355
11
91.4837
21
-111.402
0
LINE
8
BLACK
6
CONTINUOUS
10
91.4837
20
-111.402
11
91.2456
21
-111.402
0
LINE
8
BLACK
6
CONTINUOUS
10
92.7694
20
-111.402
11
92.198
21
-111.402
0
LINE
8
BLACK
6
CONTINUOUS
10
92.4837
20
-111.402
11
92.4837
21
-110.402
0
LINE
8
BLACK
6
CONTINUOUS
10
92.4837
20
-110.402
11
92.3885
21
-110.545
0
LINE
8
BLACK
6
CONTINUOUS
10
92.3885
20
-110.545
11
92.2932
21
-110.64
0
LINE
8
BLACK
6
CONTINUOUS
10
92.2932
20
-110.64
11
92.198
21
-110.688
0
LINE
8
BLACK
6
CONTINUOUS
10
91.0075
20
-112.575
11
92.0075
21
-112.575
0
LINE
8
BLACK
6
CONTINUOUS
10
91.2456
20
-113.942
11
91.2456
21
-112.942
0
LINE
8
BLACK
6
CONTINUOUS
10
91.2456
20
-112.942
11
91.4837
21
-112.942
0
LINE
8
BLACK
6
CONTINUOUS
10
91.4837
20
-112.942
11
91.6265
21
-112.99
0
LINE
8
BLACK
6
CONTINUOUS
10
91.6265
20
-112.99
11
91.7218
21
-113.085
0
LINE
8
BLACK
6
CONTINUOUS
10
91.7218
20
-113.085
11
91.7694
21
-113.18
0
LINE
8
BLACK
6
CONTINUOUS
10
91.7694
20
-113.18
11
91.817
21
-113.371
0
LINE
8
BLACK
6
CONTINUOUS
10
91.817
20
-113.371
11
91.817
21
-113.514
0
LINE
8
BLACK
6
CONTINUOUS
10
91.817
20
-113.514
11
91.7694
21
-113.704
0
LINE
8
BLACK
6
CONTINUOUS
10
91.7694
20
-113.704
11
91.7218
21
-113.8
0
LINE
8
BLACK
6
CONTINUOUS
10
91.7218
20
-113.8
11
91.6265
21
-113.895
0
LINE
8
BLACK
6
CONTINUOUS
10
91.6265
20
-113.895
11
91.4837
21
-113.942
0
LINE
8
BLACK
6
CONTINUOUS
10
91.4837
20
-113.942
11
91.2456
21
-113.942
0
LINE
8
BLACK
6
CONTINUOUS
10
92.0075
20
-112.575
11
92.9599
21
-112.575
0
LINE
8
BLACK
6
CONTINUOUS
10
92.198
20
-113.038
11
92.2456
21
-112.99
0
LINE
8
BLACK
6
CONTINUOUS
10
92.2456
20
-112.99
11
92.3408
21
-112.942
0
LINE
8
BLACK
6
CONTINUOUS
10
92.3408
20
-112.942
11
92.5789
21
-112.942
0
LINE
8
BLACK
6
CONTINUOUS
10
92.5789
20
-112.942
11
92.6742
21
-112.99
0
LINE
8
BLACK
6
CONTINUOUS
10
92.6742
20
-112.99
11
92.7218
21
-113.038
0
LINE
8
BLACK
6
CONTINUOUS
10
92.7218
20
-113.038
11
92.7694
21
-113.133
0
LINE
8
BLACK
6
CONTINUOUS
10
92.7694
20
-113.133
11
92.7694
21
-113.228
0
LINE
8
BLACK
6
CONTINUOUS
10
92.7694
20
-113.228
11
92.7218
21
-113.371
0
LINE
8
BLACK
6
CONTINUOUS
10
92.7218
20
-113.371
11
92.1504
21
-113.942
0
LINE
8
BLACK
6
CONTINUOUS
10
92.1504
20
-113.942
11
92.7694
21
-113.942
0
LINE
8
BLACK
6
CONTINUOUS
10
91.0075
20
-115.115
11
92.0075
21
-115.115
0
LINE
8
BLACK
6
CONTINUOUS
10
91.2456
20
-116.482
11
91.2456
21
-115.482
0
LINE
8
BLACK
6
CONTINUOUS
10
91.2456
20
-115.482
11
91.4837
21
-115.482
0
LINE
8
BLACK
6
CONTINUOUS
10
91.4837
20
-115.482
11
91.6265
21
-115.53
0
LINE
8
BLACK
6
CONTINUOUS
10
91.6265
20
-115.53
11
91.7218
21
-115.625
0
LINE
8
BLACK
6
CONTINUOUS
10
91.7218
20
-115.625
11
91.7694
21
-115.72
0
LINE
8
BLACK
6
CONTINUOUS
10
91.7694
20
-115.72
11
91.817
21
-115.911
0
LINE
8
BLACK
6
CONTINUOUS
10
91.817
20
-115.911
11
91.817
21
-116.054
0
LINE
8
BLACK
6
CONTINUOUS
10
91.817
20
-116.054
11
91.7694
21
-116.244
0
LINE
8
BLACK
6
CONTINUOUS
10
91.7694
20
-116.244
11
91.7218
21
-116.34
0
LINE
8
BLACK
6
CONTINUOUS
10
91.7218
20
-116.34
11
91.6265
21
-116.435
0
LINE
8
BLACK
6
CONTINUOUS
10
91.6265
20
-116.435
11
91.4837
21
-116.482
0
LINE
8
BLACK
6
CONTINUOUS
10
91.4837
20
-116.482
11
91.2456
21
-116.482
0
LINE
8
BLACK
6
CONTINUOUS
10
92.0075
20
-115.115
11
92.9599
21
-115.115
0
LINE
8
BLACK
6
CONTINUOUS
10
92.1504
20
-115.482
11
92.7694
21
-115.482
0
LINE
8
BLACK
6
CONTINUOUS
10
92.7694
20
-115.482
11
92.4361
21
-115.863
0
LINE
8
BLACK
6
CONTINUOUS
10
92.4361
20
-115.863
11
92.5789
21
-115.863
0
LINE
8
BLACK
6
CONTINUOUS
10
92.5789
20
-115.863
11
92.6742
21
-115.911
0
LINE
8
BLACK
6
CONTINUOUS
10
92.6742
20
-115.911
11
92.7218
21
-115.959
0
LINE
8
BLACK
6
CONTINUOUS
10
92.7218
20
-115.959
11
92.7694
21
-116.054
0
LINE
8
BLACK
6
CONTINUOUS
10
92.7694
20
-116.054
11
92.7694
21
-116.292
0
LINE
8
BLACK
6
CONTINUOUS
10
92.7694
20
-116.292
11
92.7218
21
-116.387
0
LINE
8
BLACK
6
CONTINUOUS
10
92.7218
20
-116.387
11
92.6742
21
-116.435
0
LINE
8
BLACK
6
CONTINUOUS
10
92.6742
20
-116.435
11
92.5789
21
-116.482
0
LINE
8
BLACK
6
CONTINUOUS
10
92.5789
20
-116.482
11
92.2932
21
-116.482
0
LINE
8
BLACK
6
CONTINUOUS
10
92.2932
20
-116.482
11
92.198
21
-116.435
0
LINE
8
BLACK
6
CONTINUOUS
10
92.198
20
-116.435
11
92.1504
21
-116.387
0
LINE
8
BLACK
6
CONTINUOUS
10
91.0075
20
-117.655
11
92.0075
21
-117.655
0
LINE
8
BLACK
6
CONTINUOUS
10
91.2456
20
-119.022
11
91.2456
21
-118.022
0
LINE
8
BLACK
6
CONTINUOUS
10
91.2456
20
-118.022
11
91.4837
21
-118.022
0
LINE
8
BLACK
6
CONTINUOUS
10
91.4837
20
-118.022
11
91.6265
21
-118.07
0
LINE
8
BLACK
6
CONTINUOUS
10
91.6265
20
-118.07
11
91.7218
21
-118.165
0
LINE
8
BLACK
6
CONTINUOUS
10
91.7218
20
-118.165
11
91.7694
21
-118.26
0
LINE
8
BLACK
6
CONTINUOUS
10
91.7694
20
-118.26
11
91.817
21
-118.451
0
LINE
8
BLACK
6
CONTINUOUS
10
91.817
20
-118.451
11
91.817
21
-118.594
0
LINE
8
BLACK
6
CONTINUOUS
10
91.817
20
-118.594
11
91.7694
21
-118.784
0
LINE
8
BLACK
6
CONTINUOUS
10
91.7694
20
-118.784
11
91.7218
21
-118.88
0
LINE
8
BLACK
6
CONTINUOUS
10
91.7218
20
-118.88
11
91.6265
21
-118.975
0
LINE
8
BLACK
6
CONTINUOUS
10
91.6265
20
-118.975
11
91.4837
21
-119.022
0
LINE
8
BLACK
6
CONTINUOUS
10
91.4837
20
-119.022
11
91.2456
21
-119.022
0
LINE
8
BLACK
6
CONTINUOUS
10
92.0075
20
-117.655
11
92.9599
21
-117.655
0
LINE
8
BLACK
6
CONTINUOUS
10
92.6742
20
-118.356
11
92.6742
21
-119.022
0
LINE
8
BLACK
6
CONTINUOUS
10
92.4361
20
-117.975
11
92.198
21
-118.689
0
LINE
8
BLACK
6
CONTINUOUS
10
92.198
20
-118.689
11
92.817
21
-118.689
0
LINE
8
BLACK
6
CONTINUOUS
10
91.0075
20
-120.195
11
92.0075
21
-120.195
0
LINE
8
BLACK
6
CONTINUOUS
10
91.2456
20
-121.562
11
91.2456
21
-120.562
0
LINE
8
BLACK
6
CONTINUOUS
10
91.2456
20
-120.562
11
91.4837
21
-120.562
0
LINE
8
BLACK
6
CONTINUOUS
10
91.4837
20
-120.562
11
91.6265
21
-120.61
0
LINE
8
BLACK
6
CONTINUOUS
10
91.6265
20
-120.61
11
91.7218
21
-120.705
0
LINE
8
BLACK
6
CONTINUOUS
10
91.7218
20
-120.705
11
91.7694
21
-120.8
0
LINE
8
BLACK
6
CONTINUOUS
10
91.7694
20
-120.8
11
91.817
21
-120.991
0
LINE
8
BLACK
6
CONTINUOUS
10
91.817
20
-120.991
11
91.817
21
-121.134
0
LINE
8
BLACK
6
CONTINUOUS
10
91.817
20
-121.134
11
91.7694
21
-121.324
0
LINE
8
BLACK
6
CONTINUOUS
10
91.7694
20
-121.324
11
91.7218
21
-121.42
0
LINE
8
BLACK
6
CONTINUOUS
10
91.7218
20
-121.42
11
91.6265
21
-121.515
0
LINE
8
BLACK
6
CONTINUOUS
10
91.6265
20
-121.515
11
91.4837
21
-121.562
0
LINE
8
BLACK
6
CONTINUOUS
10
91.4837
20
-121.562
11
91.2456
21
-121.562
0
LINE
8
BLACK
6
CONTINUOUS
10
92.0075
20
-120.195
11
92.9599
21
-120.195
0
LINE
8
BLACK
6
CONTINUOUS
10
92.7218
20
-120.562
11
92.2456
21
-120.562
0
LINE
8
BLACK
6
CONTINUOUS
10
92.2456
20
-120.562
11
92.198
21
-121.039
0
LINE
8
BLACK
6
CONTINUOUS
10
92.198
20
-121.039
11
92.2456
21
-120.991
0
LINE
8
BLACK
6
CONTINUOUS
10
92.2456
20
-120.991
11
92.3408
21
-120.943
0
LINE
8
BLACK
6
CONTINUOUS
10
92.3408
20
-120.943
11
92.5789
21
-120.943
0
LINE
8
BLACK
6
CONTINUOUS
10
92.5789
20
-120.943
11
92.6742
21
-120.991
0
LINE
8
BLACK
6
CONTINUOUS
10
92.6742
20
-120.991
11
92.7218
21
-121.039
0
LINE
8
BLACK
6
CONTINUOUS
10
92.7218
20
-121.039
11
92.7694
21
-121.134
0
LINE
8
BLACK
6
CONTINUOUS
10
92.7694
20
-121.134
11
92.7694
21
-121.372
0
LINE
8
BLACK
6
CONTINUOUS
10
92.7694
20
-121.372
11
92.7218
21
-121.467
0
LINE
8
BLACK
6
CONTINUOUS
10
92.7218
20
-121.467
11
92.6742
21
-121.515
0
LINE
8
BLACK
6
CONTINUOUS
10
92.6742
20
-121.515
11
92.5789
21
-121.562
0
LINE
8
BLACK
6
CONTINUOUS
10
92.5789
20
-121.562
11
92.3408
21
-121.562
0
LINE
8
BLACK
6
CONTINUOUS
10
92.3408
20
-121.562
11
92.2456
21
-121.515
0
LINE
8
BLACK
6
CONTINUOUS
10
92.2456
20
-121.515
11
92.198
21
-121.467
0
LINE
8
BLACK
6
CONTINUOUS
10
105.783
20
-88.1614
11
106.545
21
-88.1614
0
LINE
8
BLACK
6
CONTINUOUS
10
106.164
20
-88.5424
11
106.164
21
-87.7805
0
LINE
8
BLACK
6
CONTINUOUS
10
107.497
20
-87.5424
11
107.021
21
-87.5424
0
LINE
8
BLACK
6
CONTINUOUS
10
107.021
20
-87.5424
11
106.973
21
-88.0186
0
LINE
8
BLACK
6
CONTINUOUS
10
106.973
20
-88.0186
11
107.021
21
-87.971
0
LINE
8
BLACK
6
CONTINUOUS
10
107.021
20
-87.971
11
107.116
21
-87.9233
0
LINE
8
BLACK
6
CONTINUOUS
10
107.116
20
-87.9233
11
107.354
21
-87.9233
0
LINE
8
BLACK
6
CONTINUOUS
10
107.354
20
-87.9233
11
107.45
21
-87.971
0
LINE
8
BLACK
6
CONTINUOUS
10
107.45
20
-87.971
11
107.497
21
-88.0186
0
LINE
8
BLACK
6
CONTINUOUS
10
107.497
20
-88.0186
11
107.545
21
-88.1138
0
LINE
8
BLACK
6
CONTINUOUS
10
107.545
20
-88.1138
11
107.545
21
-88.3519
0
LINE
8
BLACK
6
CONTINUOUS
10
107.545
20
-88.3519
11
107.497
21
-88.4471
0
LINE
8
BLACK
6
CONTINUOUS
10
107.497
20
-88.4471
11
107.45
21
-88.4948
0
LINE
8
BLACK
6
CONTINUOUS
10
107.45
20
-88.4948
11
107.354
21
-88.5424
0
LINE
8
BLACK
6
CONTINUOUS
10
107.354
20
-88.5424
11
107.116
21
-88.5424
0
LINE
8
BLACK
6
CONTINUOUS
10
107.116
20
-88.5424
11
107.021
21
-88.4948
0
LINE
8
BLACK
6
CONTINUOUS
10
107.021
20
-88.4948
11
106.973
21
-88.4471
0
LINE
8
BLACK
6
CONTINUOUS
10
107.831
20
-87.5424
11
108.164
21
-88.5424
0
LINE
8
BLACK
6
CONTINUOUS
10
108.164
20
-88.5424
11
108.497
21
-87.5424
0
LINE
8
BLACK
6
CONTINUOUS
10
106.307
20
-90.0824
11
106.64
21
-91.0824
0
LINE
8
BLACK
6
CONTINUOUS
10
106.64
20
-91.0824
11
106.973
21
-90.0824
0
LINE
8
BLACK
6
CONTINUOUS
10
107.307
20
-91.0824
11
107.307
21
-90.0824
0
LINE
8
BLACK
6
CONTINUOUS
10
107.783
20
-91.0824
11
107.783
21
-90.0824
0
LINE
8
BLACK
6
CONTINUOUS
10
107.783
20
-90.0824
11
108.354
21
-91.0824
0
LINE
8
BLACK
6
CONTINUOUS
10
108.354
20
-91.0824
11
108.354
21
-90.0824
0
LINE
8
BLACK
6
CONTINUOUS
10
104.831
20
-93.2414
11
105.593
21
-93.2414
0
LINE
8
BLACK
6
CONTINUOUS
10
105.212
20
-93.6224
11
105.212
21
-92.8605
0
LINE
8
BLACK
6
CONTINUOUS
10
105.973
20
-92.6224
11
106.593
21
-92.6224
0
LINE
8
BLACK
6
CONTINUOUS
10
106.593
20
-92.6224
11
106.259
21
-93.0033
0
LINE
8
BLACK
6
CONTINUOUS
10
106.259
20
-93.0033
11
106.402
21
-93.0033
0
LINE
8
BLACK
6
CONTINUOUS
10
106.402
20
-93.0033
11
106.497
21
-93.051
0
LINE
8
BLACK
6
CONTINUOUS
10
106.497
20
-93.051
11
106.545
21
-93.0986
0
LINE
8
BLACK
6
CONTINUOUS
10
106.545
20
-93.0986
11
106.593
21
-93.1938
0
LINE
8
BLACK
6
CONTINUOUS
10
106.593
20
-93.1938
11
106.593
21
-93.4319
0
LINE
8
BLACK
6
CONTINUOUS
10
106.593
20
-93.4319
11
106.545
21
-93.5271
0
LINE
8
BLACK
6
CONTINUOUS
10
106.545
20
-93.5271
11
106.497
21
-93.5748
0
LINE
8
BLACK
6
CONTINUOUS
10
106.497
20
-93.5748
11
106.402
21
-93.6224
0
LINE
8
BLACK
6
CONTINUOUS
10
106.402
20
-93.6224
11
106.116
21
-93.6224
0
LINE
8
BLACK
6
CONTINUOUS
10
106.116
20
-93.6224
11
106.021
21
-93.5748
0
LINE
8
BLACK
6
CONTINUOUS
10
106.021
20
-93.5748
11
105.973
21
-93.5271
0
LINE
8
BLACK
6
CONTINUOUS
10
106.878
20
-92.6224
11
107.212
21
-93.6224
0
LINE
8
BLACK
6
CONTINUOUS
10
107.212
20
-93.6224
11
107.545
21
-92.6224
0
LINE
8
BLACK
6
CONTINUOUS
10
107.783
20
-92.6224
11
108.402
21
-92.6224
0
LINE
8
BLACK
6
CONTINUOUS
10
108.402
20
-92.6224
11
108.069
21
-93.0033
0
LINE
8
BLACK
6
CONTINUOUS
10
108.069
20
-93.0033
11
108.212
21
-93.0033
0
LINE
8
BLACK
6
CONTINUOUS
10
108.212
20
-93.0033
11
108.307
21
-93.051
0
LINE
8
BLACK
6
CONTINUOUS
10
108.307
20
-93.051
11
108.354
21
-93.0986
0
LINE
8
BLACK
6
CONTINUOUS
10
108.354
20
-93.0986
11
108.402
21
-93.1938
0
LINE
8
BLACK
6
CONTINUOUS
10
108.402
20
-93.1938
11
108.402
21
-93.4319
0
LINE
8
BLACK
6
CONTINUOUS
10
108.402
20
-93.4319
11
108.354
21
-93.5271
0
LINE
8
BLACK
6
CONTINUOUS
10
108.354
20
-93.5271
11
108.307
21
-93.5748
0
LINE
8
BLACK
6
CONTINUOUS
10
108.307
20
-93.5748
11
108.212
21
-93.6224
0
LINE
8
BLACK
6
CONTINUOUS
10
108.212
20
-93.6224
11
107.926
21
-93.6224
0
LINE
8
BLACK
6
CONTINUOUS
10
107.926
20
-93.6224
11
107.831
21
-93.5748
0
LINE
8
BLACK
6
CONTINUOUS
10
107.831
20
-93.5748
11
107.783
21
-93.5271
0
LINE
8
BLACK
6
CONTINUOUS
10
106.307
20
-95.21
11
106.212
21
-95.1624
0
LINE
8
BLACK
6
CONTINUOUS
10
106.212
20
-95.1624
11
106.069
21
-95.1624
0
LINE
8
BLACK
6
CONTINUOUS
10
106.069
20
-95.1624
11
105.926
21
-95.21
0
LINE
8
BLACK
6
CONTINUOUS
10
105.926
20
-95.21
11
105.831
21
-95.3052
0
LINE
8
BLACK
6
CONTINUOUS
10
105.831
20
-95.3052
11
105.783
21
-95.4005
0
LINE
8
BLACK
6
CONTINUOUS
10
105.783
20
-95.4005
11
105.735
21
-95.591
0
LINE
8
BLACK
6
CONTINUOUS
10
105.735
20
-95.591
11
105.735
21
-95.7338
0
LINE
8
BLACK
6
CONTINUOUS
10
105.735
20
-95.7338
11
105.783
21
-95.9243
0
LINE
8
BLACK
6
CONTINUOUS
10
105.783
20
-95.9243
11
105.831
21
-96.0195
0
LINE
8
BLACK
6
CONTINUOUS
10
105.831
20
-96.0195
11
105.926
21
-96.1148
0
LINE
8
BLACK
6
CONTINUOUS
10
105.926
20
-96.1148
11
106.069
21
-96.1624
0
LINE
8
BLACK
6
CONTINUOUS
10
106.069
20
-96.1624
11
106.164
21
-96.1624
0
LINE
8
BLACK
6
CONTINUOUS
10
106.164
20
-96.1624
11
106.307
21
-96.1148
0
LINE
8
BLACK
6
CONTINUOUS
10
106.307
20
-96.1148
11
106.354
21
-96.0671
0
LINE
8
BLACK
6
CONTINUOUS
10
106.354
20
-96.0671
11
106.354
21
-95.7338
0
LINE
8
BLACK
6
CONTINUOUS
10
106.354
20
-95.7338
11
106.164
21
-95.7338
0
LINE
8
BLACK
6
CONTINUOUS
10
106.783
20
-96.1624
11
106.783
21
-95.1624
0
LINE
8
BLACK
6
CONTINUOUS
10
106.783
20
-95.1624
11
107.354
21
-96.1624
0
LINE
8
BLACK
6
CONTINUOUS
10
107.354
20
-96.1624
11
107.354
21
-95.1624
0
LINE
8
BLACK
6
CONTINUOUS
10
107.831
20
-96.1624
11
107.831
21
-95.1624
0
LINE
8
BLACK
6
CONTINUOUS
10
107.831
20
-95.1624
11
108.069
21
-95.1624
0
LINE
8
BLACK
6
CONTINUOUS
10
108.069
20
-95.1624
11
108.212
21
-95.21
0
LINE
8
BLACK
6
CONTINUOUS
10
108.212
20
-95.21
11
108.307
21
-95.3052
0
LINE
8
BLACK
6
CONTINUOUS
10
108.307
20
-95.3052
11
108.354
21
-95.4005
0
LINE
8
BLACK
6
CONTINUOUS
10
108.354
20
-95.4005
11
108.402
21
-95.591
0
LINE
8
BLACK
6
CONTINUOUS
10
108.402
20
-95.591
11
108.402
21
-95.7338
0
LINE
8
BLACK
6
CONTINUOUS
10
108.402
20
-95.7338
11
108.354
21
-95.9243
0
LINE
8
BLACK
6
CONTINUOUS
10
108.354
20
-95.9243
11
108.307
21
-96.0195
0
LINE
8
BLACK
6
CONTINUOUS
10
108.307
20
-96.0195
11
108.212
21
-96.1148
0
LINE
8
BLACK
6
CONTINUOUS
10
108.212
20
-96.1148
11
108.069
21
-96.1624
0
LINE
8
BLACK
6
CONTINUOUS
10
108.069
20
-96.1624
11
107.831
21
-96.1624
0
LINE
8
BLACK
6
CONTINUOUS
10
104.878
20
-98.7024
11
104.545
21
-98.2262
0
LINE
8
BLACK
6
CONTINUOUS
10
104.307
20
-98.7024
11
104.307
21
-97.7024
0
LINE
8
BLACK
6
CONTINUOUS
10
104.307
20
-97.7024
11
104.688
21
-97.7024
0
LINE
8
BLACK
6
CONTINUOUS
10
104.688
20
-97.7024
11
104.783
21
-97.75
0
LINE
8
BLACK
6
CONTINUOUS
10
104.783
20
-97.75
11
104.831
21
-97.7976
0
LINE
8
BLACK
6
CONTINUOUS
10
104.831
20
-97.7976
11
104.878
21
-97.8929
0
LINE
8
BLACK
6
CONTINUOUS
10
104.878
20
-97.8929
11
104.878
21
-98.0357
0
LINE
8
BLACK
6
CONTINUOUS
10
104.878
20
-98.0357
11
104.831
21
-98.131
0
LINE
8
BLACK
6
CONTINUOUS
10
104.831
20
-98.131
11
104.783
21
-98.1786
0
LINE
8
BLACK
6
CONTINUOUS
10
104.783
20
-98.1786
11
104.688
21
-98.2262
0
LINE
8
BLACK
6
CONTINUOUS
10
104.688
20
-98.2262
11
104.307
21
-98.2262
0
LINE
8
BLACK
6
CONTINUOUS
10
105.307
20
-98.1786
11
105.64
21
-98.1786
0
LINE
8
BLACK
6
CONTINUOUS
10
105.783
20
-98.7024
11
105.307
21
-98.7024
0
LINE
8
BLACK
6
CONTINUOUS
10
105.307
20
-98.7024
11
105.307
21
-97.7024
0
LINE
8
BLACK
6
CONTINUOUS
10
105.307
20
-97.7024
11
105.783
21
-97.7024
0
LINE
8
BLACK
6
CONTINUOUS
10
106.164
20
-98.6548
11
106.307
21
-98.7024
0
LINE
8
BLACK
6
CONTINUOUS
10
106.307
20
-98.7024
11
106.545
21
-98.7024
0
LINE
8
BLACK
6
CONTINUOUS
10
106.545
20
-98.7024
11
106.64
21
-98.6548
0
LINE
8
BLACK
6
CONTINUOUS
10
106.64
20
-98.6548
11
106.688
21
-98.6071
0
LINE
8
BLACK
6
CONTINUOUS
10
106.688
20
-98.6071
11
106.735
21
-98.5119
0
LINE
8
BLACK
6
CONTINUOUS
10
106.735
20
-98.5119
11
106.735
21
-98.4167
0
LINE
8
BLACK
6
CONTINUOUS
10
106.735
20
-98.4167
11
106.688
21
-98.3214
0
LINE
8
BLACK
6
CONTINUOUS
10
106.688
20
-98.3214
11
106.64
21
-98.2738
0
LINE
8
BLACK
6
CONTINUOUS
10
106.64
20
-98.2738
11
106.545
21
-98.2262
0
LINE
8
BLACK
6
CONTINUOUS
10
106.545
20
-98.2262
11
106.354
21
-98.1786
0
LINE
8
BLACK
6
CONTINUOUS
10
106.354
20
-98.1786
11
106.259
21
-98.131
0
LINE
8
BLACK
6
CONTINUOUS
10
106.259
20
-98.131
11
106.212
21
-98.0833
0
LINE
8
BLACK
6
CONTINUOUS
10
106.212
20
-98.0833
11
106.164
21
-97.9881
0
LINE
8
BLACK
6
CONTINUOUS
10
106.164
20
-97.9881
11
106.164
21
-97.8929
0
LINE
8
BLACK
6
CONTINUOUS
10
106.164
20
-97.8929
11
106.212
21
-97.7976
0
LINE
8
BLACK
6
CONTINUOUS
10
106.212
20
-97.7976
11
106.259
21
-97.75
0
LINE
8
BLACK
6
CONTINUOUS
10
106.259
20
-97.75
11
106.354
21
-97.7024
0
LINE
8
BLACK
6
CONTINUOUS
10
106.354
20
-97.7024
11
106.593
21
-97.7024
0
LINE
8
BLACK
6
CONTINUOUS
10
106.593
20
-97.7024
11
106.735
21
-97.75
0
LINE
8
BLACK
6
CONTINUOUS
10
107.164
20
-98.1786
11
107.497
21
-98.1786
0
LINE
8
BLACK
6
CONTINUOUS
10
107.64
20
-98.7024
11
107.164
21
-98.7024
0
LINE
8
BLACK
6
CONTINUOUS
10
107.164
20
-98.7024
11
107.164
21
-97.7024
0
LINE
8
BLACK
6
CONTINUOUS
10
107.164
20
-97.7024
11
107.64
21
-97.7024
0
LINE
8
BLACK
6
CONTINUOUS
10
107.926
20
-97.7024
11
108.497
21
-97.7024
0
LINE
8
BLACK
6
CONTINUOUS
10
108.212
20
-98.7024
11
108.212
21
-97.7024
0
LINE
8
BLACK
6
CONTINUOUS
10
102.545
20
-100.242
11
103.116
21
-100.242
0
LINE
8
BLACK
6
CONTINUOUS
10
102.831
20
-101.242
11
102.831
21
-100.242
0
LINE
8
BLACK
6
CONTINUOUS
10
103.354
20
-100.242
11
104.021
21
-101.242
0
LINE
8
BLACK
6
CONTINUOUS
10
104.021
20
-100.242
11
103.354
21
-101.242
0
LINE
8
BLACK
6
CONTINUOUS
10
105.926
20
-101.242
11
105.926
21
-100.242
0
LINE
8
BLACK
6
CONTINUOUS
10
105.926
20
-100.242
11
106.164
21
-100.242
0
LINE
8
BLACK
6
CONTINUOUS
10
106.164
20
-100.242
11
106.307
21
-100.29
0
LINE
8
BLACK
6
CONTINUOUS
10
106.307
20
-100.29
11
106.402
21
-100.385
0
LINE
8
BLACK
6
CONTINUOUS
10
106.402
20
-100.385
11
106.45
21
-100.48
0
LINE
8
BLACK
6
CONTINUOUS
10
106.45
20
-100.48
11
106.497
21
-100.671
0
LINE
8
BLACK
6
CONTINUOUS
10
106.497
20
-100.671
11
106.497
21
-100.814
0
LINE
8
BLACK
6
CONTINUOUS
10
106.497
20
-100.814
11
106.45
21
-101.004
0
LINE
8
BLACK
6
CONTINUOUS
10
106.45
20
-101.004
11
106.402
21
-101.1
0
LINE
8
BLACK
6
CONTINUOUS
10
106.402
20
-101.1
11
106.307
21
-101.195
0
LINE
8
BLACK
6
CONTINUOUS
10
106.307
20
-101.195
11
106.164
21
-101.242
0
LINE
8
BLACK
6
CONTINUOUS
10
106.164
20
-101.242
11
105.926
21
-101.242
0
LINE
8
BLACK
6
CONTINUOUS
10
107.45
20
-101.242
11
106.878
21
-101.242
0
LINE
8
BLACK
6
CONTINUOUS
10
107.164
20
-101.242
11
107.164
21
-100.242
0
LINE
8
BLACK
6
CONTINUOUS
10
107.164
20
-100.242
11
107.069
21
-100.385
0
LINE
8
BLACK
6
CONTINUOUS
10
107.069
20
-100.385
11
106.973
21
-100.48
0
LINE
8
BLACK
6
CONTINUOUS
10
106.973
20
-100.48
11
106.878
21
-100.528
0
LINE
8
BLACK
6
CONTINUOUS
10
108.307
20
-100.576
11
108.307
21
-101.242
0
LINE
8
BLACK
6
CONTINUOUS
10
108.069
20
-100.195
11
107.831
21
-100.909
0
LINE
8
BLACK
6
CONTINUOUS
10
107.831
20
-100.909
11
108.45
21
-100.909
0
LINE
8
BLACK
6
CONTINUOUS
10
103.021
20
-103.782
11
102.688
21
-103.306
0
LINE
8
BLACK
6
CONTINUOUS
10
102.45
20
-103.782
11
102.45
21
-102.782
0
LINE
8
BLACK
6
CONTINUOUS
10
102.45
20
-102.782
11
102.831
21
-102.782
0
LINE
8
BLACK
6
CONTINUOUS
10
102.831
20
-102.782
11
102.926
21
-102.83
0
LINE
8
BLACK
6
CONTINUOUS
10
102.926
20
-102.83
11
102.973
21
-102.878
0
LINE
8
BLACK
6
CONTINUOUS
10
102.973
20
-102.878
11
103.021
21
-102.973
0
LINE
8
BLACK
6
CONTINUOUS
10
103.021
20
-102.973
11
103.021
21
-103.116
0
LINE
8
BLACK
6
CONTINUOUS
10
103.021
20
-103.116
11
102.973
21
-103.211
0
LINE
8
BLACK
6
CONTINUOUS
10
102.973
20
-103.211
11
102.926
21
-103.259
0
LINE
8
BLACK
6
CONTINUOUS
10
102.926
20
-103.259
11
102.831
21
-103.306
0
LINE
8
BLACK
6
CONTINUOUS
10
102.831
20
-103.306
11
102.45
21
-103.306
0
LINE
8
BLACK
6
CONTINUOUS
10
103.354
20
-102.782
11
104.021
21
-103.782
0
LINE
8
BLACK
6
CONTINUOUS
10
104.021
20
-102.782
11
103.354
21
-103.782
0
LINE
8
BLACK
6
CONTINUOUS
10
105.926
20
-103.782
11
105.926
21
-102.782
0
LINE
8
BLACK
6
CONTINUOUS
10
105.926
20
-102.782
11
106.164
21
-102.782
0
LINE
8
BLACK
6
CONTINUOUS
10
106.164
20
-102.782
11
106.307
21
-102.83
0
LINE
8
BLACK
6
CONTINUOUS
10
106.307
20
-102.83
11
106.402
21
-102.925
0
LINE
8
BLACK
6
CONTINUOUS
10
106.402
20
-102.925
11
106.45
21
-103.02
0
LINE
8
BLACK
6
CONTINUOUS
10
106.45
20
-103.02
11
106.497
21
-103.211
0
LINE
8
BLACK
6
CONTINUOUS
10
106.497
20
-103.211
11
106.497
21
-103.354
0
LINE
8
BLACK
6
CONTINUOUS
10
106.497
20
-103.354
11
106.45
21
-103.544
0
LINE
8
BLACK
6
CONTINUOUS
10
106.45
20
-103.544
11
106.402
21
-103.64
0
LINE
8
BLACK
6
CONTINUOUS
10
106.402
20
-103.64
11
106.307
21
-103.735
0
LINE
8
BLACK
6
CONTINUOUS
10
106.307
20
-103.735
11
106.164
21
-103.782
0
LINE
8
BLACK
6
CONTINUOUS
10
106.164
20
-103.782
11
105.926
21
-103.782
0
LINE
8
BLACK
6
CONTINUOUS
10
107.45
20
-103.782
11
106.878
21
-103.782
0
LINE
8
BLACK
6
CONTINUOUS
10
107.164
20
-103.782
11
107.164
21
-102.782
0
LINE
8
BLACK
6
CONTINUOUS
10
107.164
20
-102.782
11
107.069
21
-102.925
0
LINE
8
BLACK
6
CONTINUOUS
10
107.069
20
-102.925
11
106.973
21
-103.02
0
LINE
8
BLACK
6
CONTINUOUS
10
106.973
20
-103.02
11
106.878
21
-103.068
0
LINE
8
BLACK
6
CONTINUOUS
10
107.783
20
-102.782
11
108.402
21
-102.782
0
LINE
8
BLACK
6
CONTINUOUS
10
108.402
20
-102.782
11
108.069
21
-103.163
0
LINE
8
BLACK
6
CONTINUOUS
10
108.069
20
-103.163
11
108.212
21
-103.163
0
LINE
8
BLACK
6
CONTINUOUS
10
108.212
20
-103.163
11
108.307
21
-103.211
0
LINE
8
BLACK
6
CONTINUOUS
10
108.307
20
-103.211
11
108.354
21
-103.259
0
LINE
8
BLACK
6
CONTINUOUS
10
108.354
20
-103.259
11
108.402
21
-103.354
0
LINE
8
BLACK
6
CONTINUOUS
10
108.402
20
-103.354
11
108.402
21
-103.592
0
LINE
8
BLACK
6
CONTINUOUS
10
108.402
20
-103.592
11
108.354
21
-103.687
0
LINE
8
BLACK
6
CONTINUOUS
10
108.354
20
-103.687
11
108.307
21
-103.735
0
LINE
8
BLACK
6
CONTINUOUS
10
108.307
20
-103.735
11
108.212
21
-103.782
0
LINE
8
BLACK
6
CONTINUOUS
10
108.212
20
-103.782
11
107.926
21
-103.782
0
LINE
8
BLACK
6
CONTINUOUS
10
107.926
20
-103.782
11
107.831
21
-103.735
0
LINE
8
BLACK
6
CONTINUOUS
10
107.831
20
-103.735
11
107.783
21
-103.687
0
LINE
8
BLACK
6
CONTINUOUS
10
101.593
20
-106.275
11
101.735
21
-106.322
0
LINE
8
BLACK
6
CONTINUOUS
10
101.735
20
-106.322
11
101.973
21
-106.322
0
LINE
8
BLACK
6
CONTINUOUS
10
101.973
20
-106.322
11
102.069
21
-106.275
0
LINE
8
BLACK
6
CONTINUOUS
10
102.069
20
-106.275
11
102.116
21
-106.227
0
LINE
8
BLACK
6
CONTINUOUS
10
102.116
20
-106.227
11
102.164
21
-106.132
0
LINE
8
BLACK
6
CONTINUOUS
10
102.164
20
-106.132
11
102.164
21
-106.037
0
LINE
8
BLACK
6
CONTINUOUS
10
102.164
20
-106.037
11
102.116
21
-105.941
0
LINE
8
BLACK
6
CONTINUOUS
10
102.116
20
-105.941
11
102.069
21
-105.894
0
LINE
8
BLACK
6
CONTINUOUS
10
102.069
20
-105.894
11
101.973
21
-105.846
0
LINE
8
BLACK
6
CONTINUOUS
10
101.973
20
-105.846
11
101.783
21
-105.799
0
LINE
8
BLACK
6
CONTINUOUS
10
101.783
20
-105.799
11
101.688
21
-105.751
0
LINE
8
BLACK
6
CONTINUOUS
10
101.688
20
-105.751
11
101.64
21
-105.703
0
LINE
8
BLACK
6
CONTINUOUS
10
101.64
20
-105.703
11
101.593
21
-105.608
0
LINE
8
BLACK
6
CONTINUOUS
10
101.593
20
-105.608
11
101.593
21
-105.513
0
LINE
8
BLACK
6
CONTINUOUS
10
101.593
20
-105.513
11
101.64
21
-105.418
0
LINE
8
BLACK
6
CONTINUOUS
10
101.64
20
-105.418
11
101.688
21
-105.37
0
LINE
8
BLACK
6
CONTINUOUS
10
101.688
20
-105.37
11
101.783
21
-105.322
0
LINE
8
BLACK
6
CONTINUOUS
10
101.783
20
-105.322
11
102.021
21
-105.322
0
LINE
8
BLACK
6
CONTINUOUS
10
102.021
20
-105.322
11
102.164
21
-105.37
0
LINE
8
BLACK
6
CONTINUOUS
10
103.164
20
-106.227
11
103.116
21
-106.275
0
LINE
8
BLACK
6
CONTINUOUS
10
103.116
20
-106.275
11
102.973
21
-106.322
0
LINE
8
BLACK
6
CONTINUOUS
10
102.973
20
-106.322
11
102.878
21
-106.322
0
LINE
8
BLACK
6
CONTINUOUS
10
102.878
20
-106.322
11
102.735
21
-106.275
0
LINE
8
BLACK
6
CONTINUOUS
10
102.735
20
-106.275
11
102.64
21
-106.18
0
LINE
8
BLACK
6
CONTINUOUS
10
102.64
20
-106.18
11
102.593
21
-106.084
0
LINE
8
BLACK
6
CONTINUOUS
10
102.593
20
-106.084
11
102.545
21
-105.894
0
LINE
8
BLACK
6
CONTINUOUS
10
102.545
20
-105.894
11
102.545
21
-105.751
0
LINE
8
BLACK
6
CONTINUOUS
10
102.545
20
-105.751
11
102.593
21
-105.56
0
LINE
8
BLACK
6
CONTINUOUS
10
102.593
20
-105.56
11
102.64
21
-105.465
0
LINE
8
BLACK
6
CONTINUOUS
10
102.64
20
-105.465
11
102.735
21
-105.37
0
LINE
8
BLACK
6
CONTINUOUS
10
102.735
20
-105.37
11
102.878
21
-105.322
0
LINE
8
BLACK
6
CONTINUOUS
10
102.878
20
-105.322
11
102.973
21
-105.322
0
LINE
8
BLACK
6
CONTINUOUS
10
102.973
20
-105.322
11
103.116
21
-105.37
0
LINE
8
BLACK
6
CONTINUOUS
10
103.116
20
-105.37
11
103.164
21
-105.418
0
LINE
8
BLACK
6
CONTINUOUS
10
104.069
20
-106.322
11
103.593
21
-106.322
0
LINE
8
BLACK
6
CONTINUOUS
10
103.593
20
-106.322
11
103.593
21
-105.322
0
LINE
8
BLACK
6
CONTINUOUS
10
105.688
20
-104.955
11
106.688
21
-104.955
0
LINE
8
BLACK
6
CONTINUOUS
10
105.926
20
-106.322
11
105.926
21
-105.322
0
LINE
8
BLACK
6
CONTINUOUS
10
105.926
20
-105.322
11
106.164
21
-105.322
0
LINE
8
BLACK
6
CONTINUOUS
10
106.164
20
-105.322
11
106.307
21
-105.37
0
LINE
8
BLACK
6
CONTINUOUS
10
106.307
20
-105.37
11
106.402
21
-105.465
0
LINE
8
BLACK
6
CONTINUOUS
10
106.402
20
-105.465
11
106.45
21
-105.56
0
LINE
8
BLACK
6
CONTINUOUS
10
106.45
20
-105.56
11
106.497
21
-105.751
0
LINE
8
BLACK
6
CONTINUOUS
10
106.497
20
-105.751
11
106.497
21
-105.894
0
LINE
8
BLACK
6
CONTINUOUS
10
106.497
20
-105.894
11
106.45
21
-106.084
0
LINE
8
BLACK
6
CONTINUOUS
10
106.45
20
-106.084
11
106.402
21
-106.18
0
LINE
8
BLACK
6
CONTINUOUS
10
106.402
20
-106.18
11
106.307
21
-106.275
0
LINE
8
BLACK
6
CONTINUOUS
10
106.307
20
-106.275
11
106.164
21
-106.322
0
LINE
8
BLACK
6
CONTINUOUS
10
106.164
20
-106.322
11
105.926
21
-106.322
0
LINE
8
BLACK
6
CONTINUOUS
10
106.688
20
-104.955
11
107.64
21
-104.955
0
LINE
8
BLACK
6
CONTINUOUS
10
107.45
20
-106.322
11
106.878
21
-106.322
0
LINE
8
BLACK
6
CONTINUOUS
10
107.164
20
-106.322
11
107.164
21
-105.322
0
LINE
8
BLACK
6
CONTINUOUS
10
107.164
20
-105.322
11
107.069
21
-105.465
0
LINE
8
BLACK
6
CONTINUOUS
10
107.069
20
-105.465
11
106.973
21
-105.56
0
LINE
8
BLACK
6
CONTINUOUS
10
106.973
20
-105.56
11
106.878
21
-105.608
0
LINE
8
BLACK
6
CONTINUOUS
10
107.64
20
-104.955
11
108.593
21
-104.955
0
LINE
8
BLACK
6
CONTINUOUS
10
107.831
20
-105.418
11
107.878
21
-105.37
0
LINE
8
BLACK
6
CONTINUOUS
10
107.878
20
-105.37
11
107.973
21
-105.322
0
LINE
8
BLACK
6
CONTINUOUS
10
107.973
20
-105.322
11
108.212
21
-105.322
0
LINE
8
BLACK
6
CONTINUOUS
10
108.212
20
-105.322
11
108.307
21
-105.37
0
LINE
8
BLACK
6
CONTINUOUS
10
108.307
20
-105.37
11
108.354
21
-105.418
0
LINE
8
BLACK
6
CONTINUOUS
10
108.354
20
-105.418
11
108.402
21
-105.513
0
LINE
8
BLACK
6
CONTINUOUS
10
108.402
20
-105.513
11
108.402
21
-105.608
0
LINE
8
BLACK
6
CONTINUOUS
10
108.402
20
-105.608
11
108.354
21
-105.751
0
LINE
8
BLACK
6
CONTINUOUS
10
108.354
20
-105.751
11
107.783
21
-106.322
0
LINE
8
BLACK
6
CONTINUOUS
10
107.783
20
-106.322
11
108.402
21
-106.322
0
LINE
8
BLACK
6
CONTINUOUS
10
101.545
20
-108.815
11
101.688
21
-108.862
0
LINE
8
BLACK
6
CONTINUOUS
10
101.688
20
-108.862
11
101.926
21
-108.862
0
LINE
8
BLACK
6
CONTINUOUS
10
101.926
20
-108.862
11
102.021
21
-108.815
0
LINE
8
BLACK
6
CONTINUOUS
10
102.021
20
-108.815
11
102.069
21
-108.767
0
LINE
8
BLACK
6
CONTINUOUS
10
102.069
20
-108.767
11
102.116
21
-108.672
0
LINE
8
BLACK
6
CONTINUOUS
10
102.116
20
-108.672
11
102.116
21
-108.577
0
LINE
8
BLACK
6
CONTINUOUS
10
102.116
20
-108.577
11
102.069
21
-108.481
0
LINE
8
BLACK
6
CONTINUOUS
10
102.069
20
-108.481
11
102.021
21
-108.434
0
LINE
8
BLACK
6
CONTINUOUS
10
102.021
20
-108.434
11
101.926
21
-108.386
0
LINE
8
BLACK
6
CONTINUOUS
10
101.926
20
-108.386
11
101.735
21
-108.339
0
LINE
8
BLACK
6
CONTINUOUS
10
101.735
20
-108.339
11
101.64
21
-108.291
0
LINE
8
BLACK
6
CONTINUOUS
10
101.64
20
-108.291
11
101.593
21
-108.243
0
LINE
8
BLACK
6
CONTINUOUS
10
101.593
20
-108.243
11
101.545
21
-108.148
0
LINE
8
BLACK
6
CONTINUOUS
10
101.545
20
-108.148
11
101.545
21
-108.053
0
LINE
8
BLACK
6
CONTINUOUS
10
101.545
20
-108.053
11
101.593
21
-107.958
0
LINE
8
BLACK
6
CONTINUOUS
10
101.593
20
-107.958
11
101.64
21
-107.91
0
LINE
8
BLACK
6
CONTINUOUS
10
101.64
20
-107.91
11
101.735
21
-107.862
0
LINE
8
BLACK
6
CONTINUOUS
10
101.735
20
-107.862
11
101.973
21
-107.862
0
LINE
8
BLACK
6
CONTINUOUS
10
101.973
20
-107.862
11
102.116
21
-107.91
0
LINE
8
BLACK
6
CONTINUOUS
10
102.545
20
-108.862
11
102.545
21
-107.862
0
LINE
8
BLACK
6
CONTINUOUS
10
102.545
20
-107.862
11
102.783
21
-107.862
0
LINE
8
BLACK
6
CONTINUOUS
10
102.783
20
-107.862
11
102.926
21
-107.91
0
LINE
8
BLACK
6
CONTINUOUS
10
102.926
20
-107.91
11
103.021
21
-108.005
0
LINE
8
BLACK
6
CONTINUOUS
10
103.021
20
-108.005
11
103.069
21
-108.1
0
LINE
8
BLACK
6
CONTINUOUS
10
103.069
20
-108.1
11
103.116
21
-108.291
0
LINE
8
BLACK
6
CONTINUOUS
10
103.116
20
-108.291
11
103.116
21
-108.434
0
LINE
8
BLACK
6
CONTINUOUS
10
103.116
20
-108.434
11
103.069
21
-108.624
0
LINE
8
BLACK
6
CONTINUOUS
10
103.069
20
-108.624
11
103.021
21
-108.72
0
LINE
8
BLACK
6
CONTINUOUS
10
103.021
20
-108.72
11
102.926
21
-108.815
0
LINE
8
BLACK
6
CONTINUOUS
10
102.926
20
-108.815
11
102.783
21
-108.862
0
LINE
8
BLACK
6
CONTINUOUS
10
102.783
20
-108.862
11
102.545
21
-108.862
0
LINE
8
BLACK
6
CONTINUOUS
10
103.497
20
-108.577
11
103.973
21
-108.577
0
LINE
8
BLACK
6
CONTINUOUS
10
103.402
20
-108.862
11
103.735
21
-107.862
0
LINE
8
BLACK
6
CONTINUOUS
10
103.735
20
-107.862
11
104.069
21
-108.862
0
LINE
8
BLACK
6
CONTINUOUS
10
105.688
20
-107.495
11
106.688
21
-107.495
0
LINE
8
BLACK
6
CONTINUOUS
10
105.926
20
-108.862
11
105.926
21
-107.862
0
LINE
8
BLACK
6
CONTINUOUS
10
105.926
20
-107.862
11
106.164
21
-107.862
0
LINE
8
BLACK
6
CONTINUOUS
10
106.164
20
-107.862
11
106.307
21
-107.91
0
LINE
8
BLACK
6
CONTINUOUS
10
106.307
20
-107.91
11
106.402
21
-108.005
0
LINE
8
BLACK
6
CONTINUOUS
10
106.402
20
-108.005
11
106.45
21
-108.1
0
LINE
8
BLACK
6
CONTINUOUS
10
106.45
20
-108.1
11
106.497
21
-108.291
0
LINE
8
BLACK
6
CONTINUOUS
10
106.497
20
-108.291
11
106.497
21
-108.434
0
LINE
8
BLACK
6
CONTINUOUS
10
106.497
20
-108.434
11
106.45
21
-108.624
0
LINE
8
BLACK
6
CONTINUOUS
10
106.45
20
-108.624
11
106.402
21
-108.72
0
LINE
8
BLACK
6
CONTINUOUS
10
106.402
20
-108.72
11
106.307
21
-108.815
0
LINE
8
BLACK
6
CONTINUOUS
10
106.307
20
-108.815
11
106.164
21
-108.862
0
LINE
8
BLACK
6
CONTINUOUS
10
106.164
20
-108.862
11
105.926
21
-108.862
0
LINE
8
BLACK
6
CONTINUOUS
10
106.688
20
-107.495
11
107.64
21
-107.495
0
LINE
8
BLACK
6
CONTINUOUS
10
107.45
20
-108.862
11
106.878
21
-108.862
0
LINE
8
BLACK
6
CONTINUOUS
10
107.164
20
-108.862
11
107.164
21
-107.862
0
LINE
8
BLACK
6
CONTINUOUS
10
107.164
20
-107.862
11
107.069
21
-108.005
0
LINE
8
BLACK
6
CONTINUOUS
10
107.069
20
-108.005
11
106.973
21
-108.1
0
LINE
8
BLACK
6
CONTINUOUS
10
106.973
20
-108.1
11
106.878
21
-108.148
0
LINE
8
BLACK
6
CONTINUOUS
10
107.64
20
-107.495
11
108.593
21
-107.495
0
LINE
8
BLACK
6
CONTINUOUS
10
108.402
20
-108.862
11
107.831
21
-108.862
0
LINE
8
BLACK
6
CONTINUOUS
10
108.116
20
-108.862
11
108.116
21
-107.862
0
LINE
8
BLACK
6
CONTINUOUS
10
108.116
20
-107.862
11
108.021
21
-108.005
0
LINE
8
BLACK
6
CONTINUOUS
10
108.021
20
-108.005
11
107.926
21
-108.1
0
LINE
8
BLACK
6
CONTINUOUS
10
107.926
20
-108.1
11
107.831
21
-108.148
0
LINE
8
BLACK
6
CONTINUOUS
10
100.783
20
-111.402
11
100.783
21
-110.402
0
LINE
8
BLACK
6
CONTINUOUS
10
100.783
20
-110.402
11
101.116
21
-111.117
0
LINE
8
BLACK
6
CONTINUOUS
10
101.116
20
-111.117
11
101.45
21
-110.402
0
LINE
8
BLACK
6
CONTINUOUS
10
101.45
20
-110.402
11
101.45
21
-111.402
0
LINE
8
BLACK
6
CONTINUOUS
10
101.926
20
-111.402
11
101.926
21
-110.402
0
LINE
8
BLACK
6
CONTINUOUS
10
102.354
20
-111.355
11
102.497
21
-111.402
0
LINE
8
BLACK
6
CONTINUOUS
10
102.497
20
-111.402
11
102.735
21
-111.402
0
LINE
8
BLACK
6
CONTINUOUS
10
102.735
20
-111.402
11
102.831
21
-111.355
0
LINE
8
BLACK
6
CONTINUOUS
10
102.831
20
-111.355
11
102.878
21
-111.307
0
LINE
8
BLACK
6
CONTINUOUS
10
102.878
20
-111.307
11
102.926
21
-111.212
0
LINE
8
BLACK
6
CONTINUOUS
10
102.926
20
-111.212
11
102.926
21
-111.117
0
LINE
8
BLACK
6
CONTINUOUS
10
102.926
20
-111.117
11
102.878
21
-111.021
0
LINE
8
BLACK
6
CONTINUOUS
10
102.878
20
-111.021
11
102.831
21
-110.974
0
LINE
8
BLACK
6
CONTINUOUS
10
102.831
20
-110.974
11
102.735
21
-110.926
0
LINE
8
BLACK
6
CONTINUOUS
10
102.735
20
-110.926
11
102.545
21
-110.879
0
LINE
8
BLACK
6
CONTINUOUS
10
102.545
20
-110.879
11
102.45
21
-110.831
0
LINE
8
BLACK
6
CONTINUOUS
10
102.45
20
-110.831
11
102.402
21
-110.783
0
LINE
8
BLACK
6
CONTINUOUS
10
102.402
20
-110.783
11
102.354
21
-110.688
0
LINE
8
BLACK
6
CONTINUOUS
10
102.354
20
-110.688
11
102.354
21
-110.593
0
LINE
8
BLACK
6
CONTINUOUS
10
102.354
20
-110.593
11
102.402
21
-110.498
0
LINE
8
BLACK
6
CONTINUOUS
10
102.402
20
-110.498
11
102.45
21
-110.45
0
LINE
8
BLACK
6
CONTINUOUS
10
102.45
20
-110.45
11
102.545
21
-110.402
0
LINE
8
BLACK
6
CONTINUOUS
10
102.545
20
-110.402
11
102.783
21
-110.402
0
LINE
8
BLACK
6
CONTINUOUS
10
102.783
20
-110.402
11
102.926
21
-110.45
0
LINE
8
BLACK
6
CONTINUOUS
10
103.545
20
-110.402
11
103.735
21
-110.402
0
LINE
8
BLACK
6
CONTINUOUS
10
103.735
20
-110.402
11
103.831
21
-110.45
0
LINE
8
BLACK
6
CONTINUOUS
10
103.831
20
-110.45
11
103.926
21
-110.545
0
LINE
8
BLACK
6
CONTINUOUS
10
103.926
20
-110.545
11
103.973
21
-110.736
0
LINE
8
BLACK
6
CONTINUOUS
10
103.973
20
-110.736
11
103.973
21
-111.069
0
LINE
8
BLACK
6
CONTINUOUS
10
103.973
20
-111.069
11
103.926
21
-111.26
0
LINE
8
BLACK
6
CONTINUOUS
10
103.926
20
-111.26
11
103.831
21
-111.355
0
LINE
8
BLACK
6
CONTINUOUS
10
103.831
20
-111.355
11
103.735
21
-111.402
0
LINE
8
BLACK
6
CONTINUOUS
10
103.735
20
-111.402
11
103.545
21
-111.402
0
LINE
8
BLACK
6
CONTINUOUS
10
103.545
20
-111.402
11
103.45
21
-111.355
0
LINE
8
BLACK
6
CONTINUOUS
10
103.45
20
-111.355
11
103.354
21
-111.26
0
LINE
8
BLACK
6
CONTINUOUS
10
103.354
20
-111.26
11
103.307
21
-111.069
0
LINE
8
BLACK
6
CONTINUOUS
10
103.307
20
-111.069
11
103.307
21
-110.736
0
LINE
8
BLACK
6
CONTINUOUS
10
103.307
20
-110.736
11
103.354
21
-110.545
0
LINE
8
BLACK
6
CONTINUOUS
10
103.354
20
-110.545
11
103.45
21
-110.45
0
LINE
8
BLACK
6
CONTINUOUS
10
103.45
20
-110.45
11
103.545
21
-110.402
0
LINE
8
BLACK
6
CONTINUOUS
10
105.688
20
-110.035
11
106.688
21
-110.035
0
LINE
8
BLACK
6
CONTINUOUS
10
105.926
20
-111.402
11
105.926
21
-110.402
0
LINE
8
BLACK
6
CONTINUOUS
10
105.926
20
-110.402
11
106.164
21
-110.402
0
LINE
8
BLACK
6
CONTINUOUS
10
106.164
20
-110.402
11
106.307
21
-110.45
0
LINE
8
BLACK
6
CONTINUOUS
10
106.307
20
-110.45
11
106.402
21
-110.545
0
LINE
8
BLACK
6
CONTINUOUS
10
106.402
20
-110.545
11
106.45
21
-110.64
0
LINE
8
BLACK
6
CONTINUOUS
10
106.45
20
-110.64
11
106.497
21
-110.831
0
LINE
8
BLACK
6
CONTINUOUS
10
106.497
20
-110.831
11
106.497
21
-110.974
0
LINE
8
BLACK
6
CONTINUOUS
10
106.497
20
-110.974
11
106.45
21
-111.164
0
LINE
8
BLACK
6
CONTINUOUS
10
106.45
20
-111.164
11
106.402
21
-111.26
0
LINE
8
BLACK
6
CONTINUOUS
10
106.402
20
-111.26
11
106.307
21
-111.355
0
LINE
8
BLACK
6
CONTINUOUS
10
106.307
20
-111.355
11
106.164
21
-111.402
0
LINE
8
BLACK
6
CONTINUOUS
10
106.164
20
-111.402
11
105.926
21
-111.402
0
LINE
8
BLACK
6
CONTINUOUS
10
106.688
20
-110.035
11
107.64
21
-110.035
0
LINE
8
BLACK
6
CONTINUOUS
10
107.45
20
-111.402
11
106.878
21
-111.402
0
LINE
8
BLACK
6
CONTINUOUS
10
107.164
20
-111.402
11
107.164
21
-110.402
0
LINE
8
BLACK
6
CONTINUOUS
10
107.164
20
-110.402
11
107.069
21
-110.545
0
LINE
8
BLACK
6
CONTINUOUS
10
107.069
20
-110.545
11
106.973
21
-110.64
0
LINE
8
BLACK
6
CONTINUOUS
10
106.973
20
-110.64
11
106.878
21
-110.688
0
LINE
8
BLACK
6
CONTINUOUS
10
107.64
20
-110.035
11
108.593
21
-110.035
0
LINE
8
BLACK
6
CONTINUOUS
10
108.069
20
-110.402
11
108.164
21
-110.402
0
LINE
8
BLACK
6
CONTINUOUS
10
108.164
20
-110.402
11
108.259
21
-110.45
0
LINE
8
BLACK
6
CONTINUOUS
10
108.259
20
-110.45
11
108.307
21
-110.498
0
LINE
8
BLACK
6
CONTINUOUS
10
108.307
20
-110.498
11
108.354
21
-110.593
0
LINE
8
BLACK
6
CONTINUOUS
10
108.354
20
-110.593
11
108.402
21
-110.783
0
LINE
8
BLACK
6
CONTINUOUS
10
108.402
20
-110.783
11
108.402
21
-111.021
0
LINE
8
BLACK
6
CONTINUOUS
10
108.402
20
-111.021
11
108.354
21
-111.212
0
LINE
8
BLACK
6
CONTINUOUS
10
108.354
20
-111.212
11
108.307
21
-111.307
0
LINE
8
BLACK
6
CONTINUOUS
10
108.307
20
-111.307
11
108.259
21
-111.355
0
LINE
8
BLACK
6
CONTINUOUS
10
108.259
20
-111.355
11
108.164
21
-111.402
0
LINE
8
BLACK
6
CONTINUOUS
10
108.164
20
-111.402
11
108.069
21
-111.402
0
LINE
8
BLACK
6
CONTINUOUS
10
108.069
20
-111.402
11
107.973
21
-111.355
0
LINE
8
BLACK
6
CONTINUOUS
10
107.973
20
-111.355
11
107.926
21
-111.307
0
LINE
8
BLACK
6
CONTINUOUS
10
107.926
20
-111.307
11
107.878
21
-111.212
0
LINE
8
BLACK
6
CONTINUOUS
10
107.878
20
-111.212
11
107.831
21
-111.021
0
LINE
8
BLACK
6
CONTINUOUS
10
107.831
20
-111.021
11
107.831
21
-110.783
0
LINE
8
BLACK
6
CONTINUOUS
10
107.831
20
-110.783
11
107.878
21
-110.593
0
LINE
8
BLACK
6
CONTINUOUS
10
107.878
20
-110.593
11
107.926
21
-110.498
0
LINE
8
BLACK
6
CONTINUOUS
10
107.926
20
-110.498
11
107.973
21
-110.45
0
LINE
8
BLACK
6
CONTINUOUS
10
107.973
20
-110.45
11
108.069
21
-110.402
0
LINE
8
BLACK
6
CONTINUOUS
10
101.593
20
-113.895
11
101.735
21
-113.942
0
LINE
8
BLACK
6
CONTINUOUS
10
101.735
20
-113.942
11
101.973
21
-113.942
0
LINE
8
BLACK
6
CONTINUOUS
10
101.973
20
-113.942
11
102.069
21
-113.895
0
LINE
8
BLACK
6
CONTINUOUS
10
102.069
20
-113.895
11
102.116
21
-113.847
0
LINE
8
BLACK
6
CONTINUOUS
10
102.116
20
-113.847
11
102.164
21
-113.752
0
LINE
8
BLACK
6
CONTINUOUS
10
102.164
20
-113.752
11
102.164
21
-113.657
0
LINE
8
BLACK
6
CONTINUOUS
10
102.164
20
-113.657
11
102.116
21
-113.561
0
LINE
8
BLACK
6
CONTINUOUS
10
102.116
20
-113.561
11
102.069
21
-113.514
0
LINE
8
BLACK
6
CONTINUOUS
10
102.069
20
-113.514
11
101.973
21
-113.466
0
LINE
8
BLACK
6
CONTINUOUS
10
101.973
20
-113.466
11
101.783
21
-113.419
0
LINE
8
BLACK
6
CONTINUOUS
10
101.783
20
-113.419
11
101.688
21
-113.371
0
LINE
8
BLACK
6
CONTINUOUS
10
101.688
20
-113.371
11
101.64
21
-113.323
0
LINE
8
BLACK
6
CONTINUOUS
10
101.64
20
-113.323
11
101.593
21
-113.228
0
LINE
8
BLACK
6
CONTINUOUS
10
101.593
20
-113.228
11
101.593
21
-113.133
0
LINE
8
BLACK
6
CONTINUOUS
10
101.593
20
-113.133
11
101.64
21
-113.038
0
LINE
8
BLACK
6
CONTINUOUS
10
101.64
20
-113.038
11
101.688
21
-112.99
0
LINE
8
BLACK
6
CONTINUOUS
10
101.688
20
-112.99
11
101.783
21
-112.942
0
LINE
8
BLACK
6
CONTINUOUS
10
101.783
20
-112.942
11
102.021
21
-112.942
0
LINE
8
BLACK
6
CONTINUOUS
10
102.021
20
-112.942
11
102.164
21
-112.99
0
LINE
8
BLACK
6
CONTINUOUS
10
103.164
20
-113.847
11
103.116
21
-113.895
0
LINE
8
BLACK
6
CONTINUOUS
10
103.116
20
-113.895
11
102.973
21
-113.942
0
LINE
8
BLACK
6
CONTINUOUS
10
102.973
20
-113.942
11
102.878
21
-113.942
0
LINE
8
BLACK
6
CONTINUOUS
10
102.878
20
-113.942
11
102.735
21
-113.895
0
LINE
8
BLACK
6
CONTINUOUS
10
102.735
20
-113.895
11
102.64
21
-113.8
0
LINE
8
BLACK
6
CONTINUOUS
10
102.64
20
-113.8
11
102.593
21
-113.704
0
LINE
8
BLACK
6
CONTINUOUS
10
102.593
20
-113.704
11
102.545
21
-113.514
0
LINE
8
BLACK
6
CONTINUOUS
10
102.545
20
-113.514
11
102.545
21
-113.371
0
LINE
8
BLACK
6
CONTINUOUS
10
102.545
20
-113.371
11
102.593
21
-113.18
0
LINE
8
BLACK
6
CONTINUOUS
10
102.593
20
-113.18
11
102.64
21
-113.085
0
LINE
8
BLACK
6
CONTINUOUS
10
102.64
20
-113.085
11
102.735
21
-112.99
0
LINE
8
BLACK
6
CONTINUOUS
10
102.735
20
-112.99
11
102.878
21
-112.942
0
LINE
8
BLACK
6
CONTINUOUS
10
102.878
20
-112.942
11
102.973
21
-112.942
0
LINE
8
BLACK
6
CONTINUOUS
10
102.973
20
-112.942
11
103.116
21
-112.99
0
LINE
8
BLACK
6
CONTINUOUS
10
103.116
20
-112.99
11
103.164
21
-113.038
0
LINE
8
BLACK
6
CONTINUOUS
10
103.593
20
-113.942
11
103.593
21
-112.942
0
LINE
8
BLACK
6
CONTINUOUS
10
104.164
20
-113.942
11
103.735
21
-113.371
0
LINE
8
BLACK
6
CONTINUOUS
10
104.164
20
-112.942
11
103.593
21
-113.514
0
LINE
8
BLACK
6
CONTINUOUS
10
106.878
20
-113.942
11
106.878
21
-112.942
0
LINE
8
BLACK
6
CONTINUOUS
10
106.878
20
-112.942
11
107.116
21
-112.942
0
LINE
8
BLACK
6
CONTINUOUS
10
107.116
20
-112.942
11
107.259
21
-112.99
0
LINE
8
BLACK
6
CONTINUOUS
10
107.259
20
-112.99
11
107.354
21
-113.085
0
LINE
8
BLACK
6
CONTINUOUS
10
107.354
20
-113.085
11
107.402
21
-113.18
0
LINE
8
BLACK
6
CONTINUOUS
10
107.402
20
-113.18
11
107.45
21
-113.371
0
LINE
8
BLACK
6
CONTINUOUS
10
107.45
20
-113.371
11
107.45
21
-113.514
0
LINE
8
BLACK
6
CONTINUOUS
10
107.45
20
-113.514
11
107.402
21
-113.704
0
LINE
8
BLACK
6
CONTINUOUS
10
107.402
20
-113.704
11
107.354
21
-113.8
0
LINE
8
BLACK
6
CONTINUOUS
10
107.354
20
-113.8
11
107.259
21
-113.895
0
LINE
8
BLACK
6
CONTINUOUS
10
107.259
20
-113.895
11
107.116
21
-113.942
0
LINE
8
BLACK
6
CONTINUOUS
10
107.116
20
-113.942
11
106.878
21
-113.942
0
LINE
8
BLACK
6
CONTINUOUS
10
107.926
20
-113.942
11
108.116
21
-113.942
0
LINE
8
BLACK
6
CONTINUOUS
10
108.116
20
-113.942
11
108.212
21
-113.895
0
LINE
8
BLACK
6
CONTINUOUS
10
108.212
20
-113.895
11
108.259
21
-113.847
0
LINE
8
BLACK
6
CONTINUOUS
10
108.259
20
-113.847
11
108.354
21
-113.704
0
LINE
8
BLACK
6
CONTINUOUS
10
108.354
20
-113.704
11
108.402
21
-113.514
0
LINE
8
BLACK
6
CONTINUOUS
10
108.402
20
-113.514
11
108.402
21
-113.133
0
LINE
8
BLACK
6
CONTINUOUS
10
108.402
20
-113.133
11
108.354
21
-113.038
0
LINE
8
BLACK
6
CONTINUOUS
10
108.354
20
-113.038
11
108.307
21
-112.99
0
LINE
8
BLACK
6
CONTINUOUS
10
108.307
20
-112.99
11
108.212
21
-112.942
0
LINE
8
BLACK
6
CONTINUOUS
10
108.212
20
-112.942
11
108.021
21
-112.942
0
LINE
8
BLACK
6
CONTINUOUS
10
108.021
20
-112.942
11
107.926
21
-112.99
0
LINE
8
BLACK
6
CONTINUOUS
10
107.926
20
-112.99
11
107.878
21
-113.038
0
LINE
8
BLACK
6
CONTINUOUS
10
107.878
20
-113.038
11
107.831
21
-113.133
0
LINE
8
BLACK
6
CONTINUOUS
10
107.831
20
-113.133
11
107.831
21
-113.371
0
LINE
8
BLACK
6
CONTINUOUS
10
107.831
20
-113.371
11
107.878
21
-113.466
0
LINE
8
BLACK
6
CONTINUOUS
10
107.878
20
-113.466
11
107.926
21
-113.514
0
LINE
8
BLACK
6
CONTINUOUS
10
107.926
20
-113.514
11
108.021
21
-113.561
0
LINE
8
BLACK
6
CONTINUOUS
10
108.021
20
-113.561
11
108.212
21
-113.561
0
LINE
8
BLACK
6
CONTINUOUS
10
108.212
20
-113.561
11
108.307
21
-113.514
0
LINE
8
BLACK
6
CONTINUOUS
10
108.307
20
-113.514
11
108.354
21
-113.466
0
LINE
8
BLACK
6
CONTINUOUS
10
108.354
20
-113.466
11
108.402
21
-113.371
0
LINE
8
BLACK
6
CONTINUOUS
10
100.973
20
-116.482
11
100.973
21
-115.482
0
LINE
8
BLACK
6
CONTINUOUS
10
100.973
20
-115.482
11
101.307
21
-116.197
0
LINE
8
BLACK
6
CONTINUOUS
10
101.307
20
-116.197
11
101.64
21
-115.482
0
LINE
8
BLACK
6
CONTINUOUS
10
101.64
20
-115.482
11
101.64
21
-116.482
0
LINE
8
BLACK
6
CONTINUOUS
10
102.307
20
-115.482
11
102.497
21
-115.482
0
LINE
8
BLACK
6
CONTINUOUS
10
102.497
20
-115.482
11
102.593
21
-115.53
0
LINE
8
BLACK
6
CONTINUOUS
10
102.593
20
-115.53
11
102.688
21
-115.625
0
LINE
8
BLACK
6
CONTINUOUS
10
102.688
20
-115.625
11
102.735
21
-115.816
0
LINE
8
BLACK
6
CONTINUOUS
10
102.735
20
-115.816
11
102.735
21
-116.149
0
LINE
8
BLACK
6
CONTINUOUS
10
102.735
20
-116.149
11
102.688
21
-116.34
0
LINE
8
BLACK
6
CONTINUOUS
10
102.688
20
-116.34
11
102.593
21
-116.435
0
LINE
8
BLACK
6
CONTINUOUS
10
102.593
20
-116.435
11
102.497
21
-116.482
0
LINE
8
BLACK
6
CONTINUOUS
10
102.497
20
-116.482
11
102.307
21
-116.482
0
LINE
8
BLACK
6
CONTINUOUS
10
102.307
20
-116.482
11
102.212
21
-116.435
0
LINE
8
BLACK
6
CONTINUOUS
10
102.212
20
-116.435
11
102.116
21
-116.34
0
LINE
8
BLACK
6
CONTINUOUS
10
102.116
20
-116.34
11
102.069
21
-116.149
0
LINE
8
BLACK
6
CONTINUOUS
10
102.069
20
-116.149
11
102.069
21
-115.816
0
LINE
8
BLACK
6
CONTINUOUS
10
102.069
20
-115.816
11
102.116
21
-115.625
0
LINE
8
BLACK
6
CONTINUOUS
10
102.116
20
-115.625
11
102.212
21
-115.53
0
LINE
8
BLACK
6
CONTINUOUS
10
102.212
20
-115.53
11
102.307
21
-115.482
0
LINE
8
BLACK
6
CONTINUOUS
10
103.116
20
-116.435
11
103.259
21
-116.482
0
LINE
8
BLACK
6
CONTINUOUS
10
103.259
20
-116.482
11
103.497
21
-116.482
0
LINE
8
BLACK
6
CONTINUOUS
10
103.497
20
-116.482
11
103.593
21
-116.435
0
LINE
8
BLACK
6
CONTINUOUS
10
103.593
20
-116.435
11
103.64
21
-116.387
0
LINE
8
BLACK
6
CONTINUOUS
10
103.64
20
-116.387
11
103.688
21
-116.292
0
LINE
8
BLACK
6
CONTINUOUS
10
103.688
20
-116.292
11
103.688
21
-116.197
0
LINE
8
BLACK
6
CONTINUOUS
10
103.688
20
-116.197
11
103.64
21
-116.101
0
LINE
8
BLACK
6
CONTINUOUS
10
103.64
20
-116.101
11
103.593
21
-116.054
0
LINE
8
BLACK
6
CONTINUOUS
10
103.593
20
-116.054
11
103.497
21
-116.006
0
LINE
8
BLACK
6
CONTINUOUS
10
103.497
20
-116.006
11
103.307
21
-115.959
0
LINE
8
BLACK
6
CONTINUOUS
10
103.307
20
-115.959
11
103.212
21
-115.911
0
LINE
8
BLACK
6
CONTINUOUS
10
103.212
20
-115.911
11
103.164
21
-115.863
0
LINE
8
BLACK
6
CONTINUOUS
10
103.164
20
-115.863
11
103.116
21
-115.768
0
LINE
8
BLACK
6
CONTINUOUS
10
103.116
20
-115.768
11
103.116
21
-115.673
0
LINE
8
BLACK
6
CONTINUOUS
10
103.116
20
-115.673
11
103.164
21
-115.578
0
LINE
8
BLACK
6
CONTINUOUS
10
103.164
20
-115.578
11
103.212
21
-115.53
0
LINE
8
BLACK
6
CONTINUOUS
10
103.212
20
-115.53
11
103.307
21
-115.482
0
LINE
8
BLACK
6
CONTINUOUS
10
103.307
20
-115.482
11
103.545
21
-115.482
0
LINE
8
BLACK
6
CONTINUOUS
10
103.545
20
-115.482
11
103.688
21
-115.53
0
LINE
8
BLACK
6
CONTINUOUS
10
104.116
20
-116.482
11
104.116
21
-115.482
0
LINE
8
BLACK
6
CONTINUOUS
10
106.64
20
-115.115
11
107.64
21
-115.115
0
LINE
8
BLACK
6
CONTINUOUS
10
106.878
20
-116.482
11
106.878
21
-115.482
0
LINE
8
BLACK
6
CONTINUOUS
10
106.878
20
-115.482
11
107.116
21
-115.482
0
LINE
8
BLACK
6
CONTINUOUS
10
107.116
20
-115.482
11
107.259
21
-115.53
0
LINE
8
BLACK
6
CONTINUOUS
10
107.259
20
-115.53
11
107.354
21
-115.625
0
LINE
8
BLACK
6
CONTINUOUS
10
107.354
20
-115.625
11
107.402
21
-115.72
0
LINE
8
BLACK
6
CONTINUOUS
10
107.402
20
-115.72
11
107.45
21
-115.911
0
LINE
8
BLACK
6
CONTINUOUS
10
107.45
20
-115.911
11
107.45
21
-116.054
0
LINE
8
BLACK
6
CONTINUOUS
10
107.45
20
-116.054
11
107.402
21
-116.244
0
LINE
8
BLACK
6
CONTINUOUS
10
107.402
20
-116.244
11
107.354
21
-116.34
0
LINE
8
BLACK
6
CONTINUOUS
10
107.354
20
-116.34
11
107.259
21
-116.435
0
LINE
8
BLACK
6
CONTINUOUS
10
107.259
20
-116.435
11
107.116
21
-116.482
0
LINE
8
BLACK
6
CONTINUOUS
10
107.116
20
-116.482
11
106.878
21
-116.482
0
LINE
8
BLACK
6
CONTINUOUS
10
107.64
20
-115.115
11
108.593
21
-115.115
0
LINE
8
BLACK
6
CONTINUOUS
10
108.021
20
-115.911
11
107.926
21
-115.863
0
LINE
8
BLACK
6
CONTINUOUS
10
107.926
20
-115.863
11
107.878
21
-115.816
0
LINE
8
BLACK
6
CONTINUOUS
10
107.878
20
-115.816
11
107.831
21
-115.72
0
LINE
8
BLACK
6
CONTINUOUS
10
107.831
20
-115.72
11
107.831
21
-115.673
0
LINE
8
BLACK
6
CONTINUOUS
10
107.831
20
-115.673
11
107.878
21
-115.578
0
LINE
8
BLACK
6
CONTINUOUS
10
107.878
20
-115.578
11
107.926
21
-115.53
0
LINE
8
BLACK
6
CONTINUOUS
10
107.926
20
-115.53
11
108.021
21
-115.482
0
LINE
8
BLACK
6
CONTINUOUS
10
108.021
20
-115.482
11
108.212
21
-115.482
0
LINE
8
BLACK
6
CONTINUOUS
10
108.212
20
-115.482
11
108.307
21
-115.53
0
LINE
8
BLACK
6
CONTINUOUS
10
108.307
20
-115.53
11
108.354
21
-115.578
0
LINE
8
BLACK
6
CONTINUOUS
10
108.354
20
-115.578
11
108.402
21
-115.673
0
LINE
8
BLACK
6
CONTINUOUS
10
108.402
20
-115.673
11
108.402
21
-115.72
0
LINE
8
BLACK
6
CONTINUOUS
10
108.402
20
-115.72
11
108.354
21
-115.816
0
LINE
8
BLACK
6
CONTINUOUS
10
108.354
20
-115.816
11
108.307
21
-115.863
0
LINE
8
BLACK
6
CONTINUOUS
10
108.307
20
-115.863
11
108.212
21
-115.911
0
LINE
8
BLACK
6
CONTINUOUS
10
108.212
20
-115.911
11
108.021
21
-115.911
0
LINE
8
BLACK
6
CONTINUOUS
10
108.021
20
-115.911
11
107.926
21
-115.959
0
LINE
8
BLACK
6
CONTINUOUS
10
107.926
20
-115.959
11
107.878
21
-116.006
0
LINE
8
BLACK
6
CONTINUOUS
10
107.878
20
-116.006
11
107.831
21
-116.101
0
LINE
8
BLACK
6
CONTINUOUS
10
107.831
20
-116.101
11
107.831
21
-116.292
0
LINE
8
BLACK
6
CONTINUOUS
10
107.831
20
-116.292
11
107.878
21
-116.387
0
LINE
8
BLACK
6
CONTINUOUS
10
107.878
20
-116.387
11
107.926
21
-116.435
0
LINE
8
BLACK
6
CONTINUOUS
10
107.926
20
-116.435
11
108.021
21
-116.482
0
LINE
8
BLACK
6
CONTINUOUS
10
108.021
20
-116.482
11
108.212
21
-116.482
0
LINE
8
BLACK
6
CONTINUOUS
10
108.212
20
-116.482
11
108.307
21
-116.435
0
LINE
8
BLACK
6
CONTINUOUS
10
108.307
20
-116.435
11
108.354
21
-116.387
0
LINE
8
BLACK
6
CONTINUOUS
10
108.354
20
-116.387
11
108.402
21
-116.292
0
LINE
8
BLACK
6
CONTINUOUS
10
108.402
20
-116.292
11
108.402
21
-116.101
0
LINE
8
BLACK
6
CONTINUOUS
10
108.402
20
-116.101
11
108.354
21
-116.006
0
LINE
8
BLACK
6
CONTINUOUS
10
108.354
20
-116.006
11
108.307
21
-115.959
0
LINE
8
BLACK
6
CONTINUOUS
10
108.307
20
-115.959
11
108.212
21
-115.911
0
LINE
8
BLACK
6
CONTINUOUS
10
106.64
20
-117.655
11
107.64
21
-117.655
0
LINE
8
BLACK
6
CONTINUOUS
10
106.878
20
-119.022
11
106.878
21
-118.022
0
LINE
8
BLACK
6
CONTINUOUS
10
106.878
20
-118.022
11
107.116
21
-118.022
0
LINE
8
BLACK
6
CONTINUOUS
10
107.116
20
-118.022
11
107.259
21
-118.07
0
LINE
8
BLACK
6
CONTINUOUS
10
107.259
20
-118.07
11
107.354
21
-118.165
0
LINE
8
BLACK
6
CONTINUOUS
10
107.354
20
-118.165
11
107.402
21
-118.26
0
LINE
8
BLACK
6
CONTINUOUS
10
107.402
20
-118.26
11
107.45
21
-118.451
0
LINE
8
BLACK
6
CONTINUOUS
10
107.45
20
-118.451
11
107.45
21
-118.594
0
LINE
8
BLACK
6
CONTINUOUS
10
107.45
20
-118.594
11
107.402
21
-118.784
0
LINE
8
BLACK
6
CONTINUOUS
10
107.402
20
-118.784
11
107.354
21
-118.88
0
LINE
8
BLACK
6
CONTINUOUS
10
107.354
20
-118.88
11
107.259
21
-118.975
0
LINE
8
BLACK
6
CONTINUOUS
10
107.259
20
-118.975
11
107.116
21
-119.022
0
LINE
8
BLACK
6
CONTINUOUS
10
107.116
20
-119.022
11
106.878
21
-119.022
0
LINE
8
BLACK
6
CONTINUOUS
10
107.64
20
-117.655
11
108.593
21
-117.655
0
LINE
8
BLACK
6
CONTINUOUS
10
107.783
20
-118.022
11
108.45
21
-118.022
0
LINE
8
BLACK
6
CONTINUOUS
10
108.45
20
-118.022
11
108.021
21
-119.022
0
LINE
8
BLACK
6
CONTINUOUS
10
106.64
20
-120.195
11
107.64
21
-120.195
0
LINE
8
BLACK
6
CONTINUOUS
10
106.878
20
-121.562
11
106.878
21
-120.562
0
LINE
8
BLACK
6
CONTINUOUS
10
106.878
20
-120.562
11
107.116
21
-120.562
0
LINE
8
BLACK
6
CONTINUOUS
10
107.116
20
-120.562
11
107.259
21
-120.61
0
LINE
8
BLACK
6
CONTINUOUS
10
107.259
20
-120.61
11
107.354
21
-120.705
0
LINE
8
BLACK
6
CONTINUOUS
10
107.354
20
-120.705
11
107.402
21
-120.8
0
LINE
8
BLACK
6
CONTINUOUS
10
107.402
20
-120.8
11
107.45
21
-120.991
0
LINE
8
BLACK
6
CONTINUOUS
10
107.45
20
-120.991
11
107.45
21
-121.134
0
LINE
8
BLACK
6
CONTINUOUS
10
107.45
20
-121.134
11
107.402
21
-121.324
0
LINE
8
BLACK
6
CONTINUOUS
10
107.402
20
-121.324
11
107.354
21
-121.42
0
LINE
8
BLACK
6
CONTINUOUS
10
107.354
20
-121.42
11
107.259
21
-121.515
0
LINE
8
BLACK
6
CONTINUOUS
10
107.259
20
-121.515
11
107.116
21
-121.562
0
LINE
8
BLACK
6
CONTINUOUS
10
107.116
20
-121.562
11
106.878
21
-121.562
0
LINE
8
BLACK
6
CONTINUOUS
10
107.64
20
-120.195
11
108.593
21
-120.195
0
LINE
8
BLACK
6
CONTINUOUS
10
108.307
20
-120.562
11
108.116
21
-120.562
0
LINE
8
BLACK
6
CONTINUOUS
10
108.116
20
-120.562
11
108.021
21
-120.61
0
LINE
8
BLACK
6
CONTINUOUS
10
108.021
20
-120.61
11
107.973
21
-120.658
0
LINE
8
BLACK
6
CONTINUOUS
10
107.973
20
-120.658
11
107.878
21
-120.8
0
LINE
8
BLACK
6
CONTINUOUS
10
107.878
20
-120.8
11
107.831
21
-120.991
0
LINE
8
BLACK
6
CONTINUOUS
10
107.831
20
-120.991
11
107.831
21
-121.372
0
LINE
8
BLACK
6
CONTINUOUS
10
107.831
20
-121.372
11
107.878
21
-121.467
0
LINE
8
BLACK
6
CONTINUOUS
10
107.878
20
-121.467
11
107.926
21
-121.515
0
LINE
8
BLACK
6
CONTINUOUS
10
107.926
20
-121.515
11
108.021
21
-121.562
0
LINE
8
BLACK
6
CONTINUOUS
10
108.021
20
-121.562
11
108.212
21
-121.562
0
LINE
8
BLACK
6
CONTINUOUS
10
108.212
20
-121.562
11
108.307
21
-121.515
0
LINE
8
BLACK
6
CONTINUOUS
10
108.307
20
-121.515
11
108.354
21
-121.467
0
LINE
8
BLACK
6
CONTINUOUS
10
108.354
20
-121.467
11
108.402
21
-121.372
0
LINE
8
BLACK
6
CONTINUOUS
10
108.402
20
-121.372
11
108.402
21
-121.134
0
LINE
8
BLACK
6
CONTINUOUS
10
108.402
20
-121.134
11
108.354
21
-121.039
0
LINE
8
BLACK
6
CONTINUOUS
10
108.354
20
-121.039
11
108.307
21
-120.991
0
LINE
8
BLACK
6
CONTINUOUS
10
108.307
20
-120.991
11
108.212
21
-120.943
0
LINE
8
BLACK
6
CONTINUOUS
10
108.212
20
-120.943
11
108.021
21
-120.943
0
LINE
8
BLACK
6
CONTINUOUS
10
108.021
20
-120.943
11
107.926
21
-120.991
0
LINE
8
BLACK
6
CONTINUOUS
10
107.926
20
-120.991
11
107.878
21
-121.039
0
LINE
8
BLACK
6
CONTINUOUS
10
107.878
20
-121.039
11
107.831
21
-121.134
0
LINE
8
BLACK
6
CONTINUOUS
10
161.947
20
-107.115
11
162.09
21
-107.162
0
LINE
8
BLACK
6
CONTINUOUS
10
162.09
20
-107.162
11
162.328
21
-107.162
0
LINE
8
BLACK
6
CONTINUOUS
10
162.328
20
-107.162
11
162.423
21
-107.115
0
LINE
8
BLACK
6
CONTINUOUS
10
162.423
20
-107.115
11
162.47
21
-107.067
0
LINE
8
BLACK
6
CONTINUOUS
10
162.47
20
-107.067
11
162.518
21
-106.972
0
LINE
8
BLACK
6
CONTINUOUS
10
162.518
20
-106.972
11
162.518
21
-106.877
0
LINE
8
BLACK
6
CONTINUOUS
10
162.518
20
-106.877
11
162.47
21
-106.781
0
LINE
8
BLACK
6
CONTINUOUS
10
162.47
20
-106.781
11
162.423
21
-106.734
0
LINE
8
BLACK
6
CONTINUOUS
10
162.423
20
-106.734
11
162.328
21
-106.686
0
LINE
8
BLACK
6
CONTINUOUS
10
162.328
20
-106.686
11
162.137
21
-106.639
0
LINE
8
BLACK
6
CONTINUOUS
10
162.137
20
-106.639
11
162.042
21
-106.591
0
LINE
8
BLACK
6
CONTINUOUS
10
162.042
20
-106.591
11
161.994
21
-106.543
0
LINE
8
BLACK
6
CONTINUOUS
10
161.994
20
-106.543
11
161.947
21
-106.448
0
LINE
8
BLACK
6
CONTINUOUS
10
161.947
20
-106.448
11
161.947
21
-106.353
0
LINE
8
BLACK
6
CONTINUOUS
10
161.947
20
-106.353
11
161.994
21
-106.258
0
LINE
8
BLACK
6
CONTINUOUS
10
161.994
20
-106.258
11
162.042
21
-106.21
0
LINE
8
BLACK
6
CONTINUOUS
10
162.042
20
-106.21
11
162.137
21
-106.162
0
LINE
8
BLACK
6
CONTINUOUS
10
162.137
20
-106.162
11
162.375
21
-106.162
0
LINE
8
BLACK
6
CONTINUOUS
10
162.375
20
-106.162
11
162.518
21
-106.21
0
LINE
8
BLACK
6
CONTINUOUS
10
162.851
20
-106.162
11
163.09
21
-107.162
0
LINE
8
BLACK
6
CONTINUOUS
10
163.09
20
-107.162
11
163.28
21
-106.448
0
LINE
8
BLACK
6
CONTINUOUS
10
163.28
20
-106.448
11
163.47
21
-107.162
0
LINE
8
BLACK
6
CONTINUOUS
10
163.47
20
-107.162
11
163.709
21
-106.162
0
LINE
8
BLACK
6
CONTINUOUS
10
164.613
20
-107.162
11
164.042
21
-107.162
0
LINE
8
BLACK
6
CONTINUOUS
10
164.328
20
-107.162
11
164.328
21
-106.162
0
LINE
8
BLACK
6
CONTINUOUS
10
164.328
20
-106.162
11
164.232
21
-106.305
0
LINE
8
BLACK
6
CONTINUOUS
10
164.232
20
-106.305
11
164.137
21
-106.4
0
LINE
8
BLACK
6
CONTINUOUS
10
164.137
20
-106.4
11
164.042
21
-106.448
0
LINE
8
BLACK
6
CONTINUOUS
10
183.941
20
-142.206
11
183.941
21
-141.444
0
LINE
8
BLACK
6
CONTINUOUS
10
184.322
20
-141.825
11
183.56
21
-141.825
0
LINE
8
BLACK
6
CONTINUOUS
10
183.322
20
-140.492
11
183.322
21
-140.968
0
LINE
8
BLACK
6
CONTINUOUS
10
183.322
20
-140.968
11
183.799
21
-141.016
0
LINE
8
BLACK
6
CONTINUOUS
10
183.799
20
-141.016
11
183.751
21
-140.968
0
LINE
8
BLACK
6
CONTINUOUS
10
183.751
20
-140.968
11
183.703
21
-140.873
0
LINE
8
BLACK
6
CONTINUOUS
10
183.703
20
-140.873
11
183.703
21
-140.635
0
LINE
8
BLACK
6
CONTINUOUS
10
183.703
20
-140.635
11
183.751
21
-140.54
0
LINE
8
BLACK
6
CONTINUOUS
10
183.751
20
-140.54
11
183.799
21
-140.492
0
LINE
8
BLACK
6
CONTINUOUS
10
183.799
20
-140.492
11
183.894
21
-140.444
0
LINE
8
BLACK
6
CONTINUOUS
10
183.894
20
-140.444
11
184.132
21
-140.444
0
LINE
8
BLACK
6
CONTINUOUS
10
184.132
20
-140.444
11
184.227
21
-140.492
0
LINE
8
BLACK
6
CONTINUOUS
10
184.227
20
-140.492
11
184.275
21
-140.54
0
LINE
8
BLACK
6
CONTINUOUS
10
184.275
20
-140.54
11
184.322
21
-140.635
0
LINE
8
BLACK
6
CONTINUOUS
10
184.322
20
-140.635
11
184.322
21
-140.873
0
LINE
8
BLACK
6
CONTINUOUS
10
184.322
20
-140.873
11
184.275
21
-140.968
0
LINE
8
BLACK
6
CONTINUOUS
10
184.275
20
-140.968
11
184.227
21
-141.016
0
LINE
8
BLACK
6
CONTINUOUS
10
183.322
20
-140.159
11
184.322
21
-139.825
0
LINE
8
BLACK
6
CONTINUOUS
10
184.322
20
-139.825
11
183.322
21
-139.492
0
LINE
8
BLACK
6
CONTINUOUS
10
183.799
20
-138.063
11
183.846
21
-137.92
0
LINE
8
BLACK
6
CONTINUOUS
10
183.846
20
-137.92
11
183.894
21
-137.873
0
LINE
8
BLACK
6
CONTINUOUS
10
183.894
20
-137.873
11
183.989
21
-137.825
0
LINE
8
BLACK
6
CONTINUOUS
10
183.989
20
-137.825
11
184.132
21
-137.825
0
LINE
8
BLACK
6
CONTINUOUS
10
184.132
20
-137.825
11
184.227
21
-137.873
0
LINE
8
BLACK
6
CONTINUOUS
10
184.227
20
-137.873
11
184.275
21
-137.92
0
LINE
8
BLACK
6
CONTINUOUS
10
184.275
20
-137.92
11
184.322
21
-138.016
0
LINE
8
BLACK
6
CONTINUOUS
10
184.322
20
-138.016
11
184.322
21
-138.397
0
LINE
8
BLACK
6
CONTINUOUS
10
184.322
20
-138.397
11
183.322
21
-138.397
0
LINE
8
BLACK
6
CONTINUOUS
10
183.322
20
-138.397
11
183.322
21
-138.063
0
LINE
8
BLACK
6
CONTINUOUS
10
183.322
20
-138.063
11
183.37
21
-137.968
0
LINE
8
BLACK
6
CONTINUOUS
10
183.37
20
-137.968
11
183.418
21
-137.92
0
LINE
8
BLACK
6
CONTINUOUS
10
183.418
20
-137.92
11
183.513
21
-137.873
0
LINE
8
BLACK
6
CONTINUOUS
10
183.513
20
-137.873
11
183.608
21
-137.873
0
LINE
8
BLACK
6
CONTINUOUS
10
183.608
20
-137.873
11
183.703
21
-137.92
0
LINE
8
BLACK
6
CONTINUOUS
10
183.703
20
-137.92
11
183.751
21
-137.968
0
LINE
8
BLACK
6
CONTINUOUS
10
183.751
20
-137.968
11
183.799
21
-138.063
0
LINE
8
BLACK
6
CONTINUOUS
10
183.799
20
-138.063
11
183.799
21
-138.397
0
LINE
8
BLACK
6
CONTINUOUS
10
184.322
20
-136.968
11
183.799
21
-136.968
0
LINE
8
BLACK
6
CONTINUOUS
10
183.799
20
-136.968
11
183.703
21
-137.016
0
LINE
8
BLACK
6
CONTINUOUS
10
183.703
20
-137.016
11
183.656
21
-137.111
0
LINE
8
BLACK
6
CONTINUOUS
10
183.656
20
-137.111
11
183.656
21
-137.301
0
LINE
8
BLACK
6
CONTINUOUS
10
183.656
20
-137.301
11
183.703
21
-137.397
0
LINE
8
BLACK
6
CONTINUOUS
10
184.275
20
-136.968
11
184.322
21
-137.063
0
LINE
8
BLACK
6
CONTINUOUS
10
184.322
20
-137.063
11
184.322
21
-137.301
0
LINE
8
BLACK
6
CONTINUOUS
10
184.322
20
-137.301
11
184.275
21
-137.397
0
LINE
8
BLACK
6
CONTINUOUS
10
184.275
20
-137.397
11
184.18
21
-137.444
0
LINE
8
BLACK
6
CONTINUOUS
10
184.18
20
-137.444
11
184.084
21
-137.444
0
LINE
8
BLACK
6
CONTINUOUS
10
184.084
20
-137.444
11
183.989
21
-137.397
0
LINE
8
BLACK
6
CONTINUOUS
10
183.989
20
-137.397
11
183.941
21
-137.301
0
LINE
8
BLACK
6
CONTINUOUS
10
183.941
20
-137.301
11
183.941
21
-137.063
0
LINE
8
BLACK
6
CONTINUOUS
10
183.941
20
-137.063
11
183.894
21
-136.968
0
LINE
8
BLACK
6
CONTINUOUS
10
184.322
20
-136.492
11
183.656
21
-136.492
0
LINE
8
BLACK
6
CONTINUOUS
10
183.846
20
-136.492
11
183.751
21
-136.444
0
LINE
8
BLACK
6
CONTINUOUS
10
183.751
20
-136.444
11
183.703
21
-136.397
0
LINE
8
BLACK
6
CONTINUOUS
10
183.703
20
-136.397
11
183.656
21
-136.301
0
LINE
8
BLACK
6
CONTINUOUS
10
183.656
20
-136.301
11
183.656
21
-136.206
0
LINE
8
BLACK
6
CONTINUOUS
10
184.322
20
-135.873
11
183.656
21
-135.873
0
LINE
8
BLACK
6
CONTINUOUS
10
183.846
20
-135.873
11
183.751
21
-135.825
0
LINE
8
BLACK
6
CONTINUOUS
10
183.751
20
-135.825
11
183.703
21
-135.778
0
LINE
8
BLACK
6
CONTINUOUS
10
183.703
20
-135.778
11
183.656
21
-135.682
0
LINE
8
BLACK
6
CONTINUOUS
10
183.656
20
-135.682
11
183.656
21
-135.587
0
LINE
8
BLACK
6
CONTINUOUS
10
184.275
20
-134.873
11
184.322
21
-134.968
0
LINE
8
BLACK
6
CONTINUOUS
10
184.322
20
-134.968
11
184.322
21
-135.159
0
LINE
8
BLACK
6
CONTINUOUS
10
184.322
20
-135.159
11
184.275
21
-135.254
0
LINE
8
BLACK
6
CONTINUOUS
10
184.275
20
-135.254
11
184.18
21
-135.301
0
LINE
8
BLACK
6
CONTINUOUS
10
184.18
20
-135.301
11
183.799
21
-135.301
0
LINE
8
BLACK
6
CONTINUOUS
10
183.799
20
-135.301
11
183.703
21
-135.254
0
LINE
8
BLACK
6
CONTINUOUS
10
183.703
20
-135.254
11
183.656
21
-135.159
0
LINE
8
BLACK
6
CONTINUOUS
10
183.656
20
-135.159
11
183.656
21
-134.968
0
LINE
8
BLACK
6
CONTINUOUS
10
183.656
20
-134.968
11
183.703
21
-134.873
0
LINE
8
BLACK
6
CONTINUOUS
10
183.703
20
-134.873
11
183.799
21
-134.825
0
LINE
8
BLACK
6
CONTINUOUS
10
183.799
20
-134.825
11
183.894
21
-134.825
0
LINE
8
BLACK
6
CONTINUOUS
10
183.894
20
-134.825
11
183.989
21
-135.301
0
LINE
8
BLACK
6
CONTINUOUS
10
184.322
20
-134.254
11
184.275
21
-134.349
0
LINE
8
BLACK
6
CONTINUOUS
10
184.275
20
-134.349
11
184.18
21
-134.397
0
LINE
8
BLACK
6
CONTINUOUS
10
184.18
20
-134.397
11
183.322
21
-134.397
0
LINE
8
BLACK
6
CONTINUOUS
10
183.322
20
-132.825
11
184.037
21
-132.825
0
LINE
8
BLACK
6
CONTINUOUS
10
184.037
20
-132.825
11
184.18
21
-132.873
0
LINE
8
BLACK
6
CONTINUOUS
10
184.18
20
-132.873
11
184.275
21
-132.968
0
LINE
8
BLACK
6
CONTINUOUS
10
184.275
20
-132.968
11
184.322
21
-133.111
0
LINE
8
BLACK
6
CONTINUOUS
10
184.322
20
-133.111
11
184.322
21
-133.206
0
LINE
8
BLACK
6
CONTINUOUS
10
184.322
20
-131.92
11
183.799
21
-131.92
0
LINE
8
BLACK
6
CONTINUOUS
10
183.799
20
-131.92
11
183.703
21
-131.968
0
LINE
8
BLACK
6
CONTINUOUS
10
183.703
20
-131.968
11
183.656
21
-132.063
0
LINE
8
BLACK
6
CONTINUOUS
10
183.656
20
-132.063
11
183.656
21
-132.254
0
LINE
8
BLACK
6
CONTINUOUS
10
183.656
20
-132.254
11
183.703
21
-132.349
0
LINE
8
BLACK
6
CONTINUOUS
10
184.275
20
-131.92
11
184.322
21
-132.016
0
LINE
8
BLACK
6
CONTINUOUS
10
184.322
20
-132.016
11
184.322
21
-132.254
0
LINE
8
BLACK
6
CONTINUOUS
10
184.322
20
-132.254
11
184.275
21
-132.349
0
LINE
8
BLACK
6
CONTINUOUS
10
184.275
20
-132.349
11
184.18
21
-132.397
0
LINE
8
BLACK
6
CONTINUOUS
10
184.18
20
-132.397
11
184.084
21
-132.397
0
LINE
8
BLACK
6
CONTINUOUS
10
184.084
20
-132.397
11
183.989
21
-132.349
0
LINE
8
BLACK
6
CONTINUOUS
10
183.989
20
-132.349
11
183.941
21
-132.254
0
LINE
8
BLACK
6
CONTINUOUS
10
183.941
20
-132.254
11
183.941
21
-132.016
0
LINE
8
BLACK
6
CONTINUOUS
10
183.941
20
-132.016
11
183.894
21
-131.92
0
LINE
8
BLACK
6
CONTINUOUS
10
184.275
20
-131.016
11
184.322
21
-131.111
0
LINE
8
BLACK
6
CONTINUOUS
10
184.322
20
-131.111
11
184.322
21
-131.301
0
LINE
8
BLACK
6
CONTINUOUS
10
184.322
20
-131.301
11
184.275
21
-131.397
0
LINE
8
BLACK
6
CONTINUOUS
10
184.275
20
-131.397
11
184.227
21
-131.444
0
LINE
8
BLACK
6
CONTINUOUS
10
184.227
20
-131.444
11
184.132
21
-131.492
0
LINE
8
BLACK
6
CONTINUOUS
10
184.132
20
-131.492
11
183.846
21
-131.492
0
LINE
8
BLACK
6
CONTINUOUS
10
183.846
20
-131.492
11
183.751
21
-131.444
0
LINE
8
BLACK
6
CONTINUOUS
10
183.751
20
-131.444
11
183.703
21
-131.397
0
LINE
8
BLACK
6
CONTINUOUS
10
183.703
20
-131.397
11
183.656
21
-131.301
0
LINE
8
BLACK
6
CONTINUOUS
10
183.656
20
-131.301
11
183.656
21
-131.111
0
LINE
8
BLACK
6
CONTINUOUS
10
183.656
20
-131.111
11
183.703
21
-131.016
0
LINE
8
BLACK
6
CONTINUOUS
10
184.322
20
-130.587
11
183.322
21
-130.587
0
LINE
8
BLACK
6
CONTINUOUS
10
183.941
20
-130.492
11
184.322
21
-130.206
0
LINE
8
BLACK
6
CONTINUOUS
10
183.656
20
-130.206
11
184.037
21
-130.587
0
LINE
8
BLACK
6
CONTINUOUS
10
167.357
20
-69.8124
11
167.357
21
-70.5267
0
LINE
8
BLACK
6
CONTINUOUS
10
167.357
20
-70.5267
11
167.309
21
-70.6695
0
LINE
8
BLACK
6
CONTINUOUS
10
167.309
20
-70.6695
11
167.214
21
-70.7648
0
LINE
8
BLACK
6
CONTINUOUS
10
167.214
20
-70.7648
11
167.071
21
-70.8124
0
LINE
8
BLACK
6
CONTINUOUS
10
167.071
20
-70.8124
11
166.976
21
-70.8124
0
LINE
8
BLACK
6
CONTINUOUS
10
168.357
20
-70.8124
11
167.785
21
-70.8124
0
LINE
8
BLACK
6
CONTINUOUS
10
168.071
20
-70.8124
11
168.071
21
-69.8124
0
LINE
8
BLACK
6
CONTINUOUS
10
168.071
20
-69.8124
11
167.976
21
-69.9552
0
LINE
8
BLACK
6
CONTINUOUS
10
167.976
20
-69.9552
11
167.88
21
-70.0505
0
LINE
8
BLACK
6
CONTINUOUS
10
167.88
20
-70.0505
11
167.785
21
-70.0981
  0
ENDSEC
  0
EOF
