  0
SECTION
  2
HEADER
  9
$ANGBASE
  50
0.0
  9
$ANGDIR
  70
1
  9
$MEASUREMENT
  70
1
  0
ENDSEC
  0
SECTION
  2
TABLES
  0
TABLE
  2
LTYPE
  70
4
  0
LTYPE
  5
40F
  2
CONTINUOUS
  70
0
  3
Solid line
  72
65
  73
0
  40
0.0
  0
LTYPE
  5
410
  2
DASHDOT
 70
0
  3
Dash Dot ____ _ ____ _
 72
65
 73
4
 40
2.0
 49
1.25
 49
-0.25
 49
0.25
 49
-0.25
  0
LTYPE
  5
411
  2
DASHED
 70
0
  3
Dashed __ __ __ __ __
 72
65
 73
2
 40
0.75
 49
0.5
 49
-0.25
  0
LTYPE
  5
43B
  2
DOTTED
 70
0
  3
Dotted .  .  .  .
 72
65
 73
2
 40
0.2
 49
0.0
 49
-0.2
  0
ENDTAB
  0
TABLE
  2
STYLE
  70
4
  0
STYLE
  2
KICAD
  70
0
  40
0
  41
1
  42
1
  50
0
  71
0
  3
isocp.shx
  0
STYLE
  2
KICADB
  70
0
  40
0
  41
1
  42
1
  50
0
  71
0
  3
isocp.shx
  0
STYLE
  2
KICADI
  70
0
  40
0
  41
1
  42
1
  50
15
  71
0
  3
isocp.shx
  0
STYLE
  2
KICADBI
  70
0
  40
0
  41
1
  42
1
  50
15
  71
0
  3
isocp.shx
  0
ENDTAB
  0
TABLE
  2
LAYER
  70
1
  0
LAYER
  2
BLACK
  70
0
  62
7
  6
CONTINUOUS
  0
ENDTAB
  0
ENDSEC
  0
SECTION
  2
ENTITIES
0
LINE
8
BLACK
6
CONTINUOUS
10
164.98
20
-113.91
11
170.98
21
-113.91
0
LINE
8
BLACK
6
CONTINUOUS
10
167.98
20
-110.91
11
167.98
21
-116.91
0
LINE
8
BLACK
6
CONTINUOUS
10
161.38
20
-108.81
11
162.38
21
-107.71
0
LINE
8
BLACK
6
CONTINUOUS
10
161.38
20
-120.11
11
161.38
21
-108.81
0
LINE
8
BLACK
6
CONTINUOUS
10
174.58
20
-120.11
11
161.38
21
-120.11
0
LINE
8
BLACK
6
CONTINUOUS
10
174.58
20
-107.71
11
174.58
21
-120.11
0
LINE
8
BLACK
6
CONTINUOUS
10
162.38
20
-107.71
11
174.58
21
-107.71
0
CIRCLE
8
BLACK
10
167.98
20
-113.91
40
3
0
LINE
8
BLACK
6
CONTINUOUS
10
184.865
20
-130.033
11
185.62
21
-129.23
0
LINE
8
BLACK
6
CONTINUOUS
10
184.87
20
-140.23
11
193.87
21
-140.23
0
LINE
8
BLACK
6
CONTINUOUS
10
184.87
20
-143.73
11
193.87
21
-143.73
0
LINE
8
BLACK
6
CONTINUOUS
10
193.87
20
-143.73
11
193.87
21
-129.23
0
LINE
8
BLACK
6
CONTINUOUS
10
193.87
20
-129.23
11
185.62
21
-129.23
0
LINE
8
BLACK
6
CONTINUOUS
10
184.87
20
-130.03
11
184.87
21
-143.73
0
LINE
8
BLACK
6
CONTINUOUS
10
174.69
20
-94.12
11
181.34
21
-94.12
0
LINE
8
BLACK
6
CONTINUOUS
10
181.34
20
-94.12
11
181.34
21
-66.32
0
LINE
8
BLACK
6
CONTINUOUS
10
181.34
20
-66.32
11
154.04
21
-66.32
0
LINE
8
BLACK
6
CONTINUOUS
10
154.04
20
-66.32
11
154.04
21
-94.12
0
LINE
8
BLACK
6
CONTINUOUS
10
154.04
20
-94.12
11
160.69
21
-94.12
0
CIRCLE
8
BLACK
10
179.34
20
-68.32
40
1
0
CIRCLE
8
BLACK
10
156.04
20
-68.32
40
1
0
CIRCLE
8
BLACK
10
156.04
20
-92.12
40
1
0
CIRCLE
8
BLACK
10
179.34
20
-92.12
40
1
0
LINE
8
BLACK
6
CONTINUOUS
10
154.34
20
-89.854
11
181.04
21
-89.854
0
LINE
8
BLACK
6
CONTINUOUS
10
181.04
20
-89.854
11
181.04
21
-70.586
0
LINE
8
BLACK
6
CONTINUOUS
10
181.04
20
-70.586
11
154.34
21
-70.586
0
LINE
8
BLACK
6
CONTINUOUS
10
154.34
20
-70.586
11
154.34
21
-89.854
0
LINE
8
BLACK
6
CONTINUOUS
10
174.69
20
-94.12
11
174.69
21
-92.12
0
LINE
8
BLACK
6
CONTINUOUS
10
174.69
20
-92.12
11
160.69
21
-92.12
0
LINE
8
BLACK
6
CONTINUOUS
10
160.69
20
-92.12
11
160.69
21
-94.12
0
LINE
8
BLACK
6
CONTINUOUS
10
156.818
20
-83.55
11
178.562
21
-83.55
0
LINE
8
BLACK
6
CONTINUOUS
10
178.562
20
-83.55
11
178.562
21
-72.686
0
LINE
8
BLACK
6
CONTINUOUS
10
178.562
20
-72.686
11
156.818
21
-72.686
0
LINE
8
BLACK
6
CONTINUOUS
10
156.818
20
-72.686
11
156.818
21
-83.55
0
LINE
8
BLACK
6
CONTINUOUS
10
156.818
20
-83.55
11
178.562
21
-72.686
0
LINE
8
BLACK
6
CONTINUOUS
10
165.099
20
-122.215
11
165.242
21
-122.262
0
LINE
8
BLACK
6
CONTINUOUS
10
165.242
20
-122.262
11
165.48
21
-122.262
0
LINE
8
BLACK
6
CONTINUOUS
10
165.48
20
-122.262
11
165.575
21
-122.215
0
LINE
8
BLACK
6
CONTINUOUS
10
165.575
20
-122.215
11
165.623
21
-122.167
0
LINE
8
BLACK
6
CONTINUOUS
10
165.623
20
-122.167
11
165.67
21
-122.072
0
LINE
8
BLACK
6
CONTINUOUS
10
165.67
20
-122.072
11
165.67
21
-121.977
0
LINE
8
BLACK
6
CONTINUOUS
10
165.67
20
-121.977
11
165.623
21
-121.881
0
LINE
8
BLACK
6
CONTINUOUS
10
165.623
20
-121.881
11
165.575
21
-121.834
0
LINE
8
BLACK
6
CONTINUOUS
10
165.575
20
-121.834
11
165.48
21
-121.786
0
LINE
8
BLACK
6
CONTINUOUS
10
165.48
20
-121.786
11
165.29
21
-121.739
0
LINE
8
BLACK
6
CONTINUOUS
10
165.29
20
-121.739
11
165.194
21
-121.691
0
LINE
8
BLACK
6
CONTINUOUS
10
165.194
20
-121.691
11
165.147
21
-121.643
0
LINE
8
BLACK
6
CONTINUOUS
10
165.147
20
-121.643
11
165.099
21
-121.548
0
LINE
8
BLACK
6
CONTINUOUS
10
165.099
20
-121.548
11
165.099
21
-121.453
0
LINE
8
BLACK
6
CONTINUOUS
10
165.099
20
-121.453
11
165.147
21
-121.358
0
LINE
8
BLACK
6
CONTINUOUS
10
165.147
20
-121.358
11
165.194
21
-121.31
0
LINE
8
BLACK
6
CONTINUOUS
10
165.194
20
-121.31
11
165.29
21
-121.262
0
LINE
8
BLACK
6
CONTINUOUS
10
165.29
20
-121.262
11
165.528
21
-121.262
0
LINE
8
BLACK
6
CONTINUOUS
10
165.528
20
-121.262
11
165.67
21
-121.31
0
LINE
8
BLACK
6
CONTINUOUS
10
166.48
20
-122.215
11
166.385
21
-122.262
0
LINE
8
BLACK
6
CONTINUOUS
10
166.385
20
-122.262
11
166.194
21
-122.262
0
LINE
8
BLACK
6
CONTINUOUS
10
166.194
20
-122.262
11
166.099
21
-122.215
0
LINE
8
BLACK
6
CONTINUOUS
10
166.099
20
-122.215
11
166.051
21
-122.12
0
LINE
8
BLACK
6
CONTINUOUS
10
166.051
20
-122.12
11
166.051
21
-121.739
0
LINE
8
BLACK
6
CONTINUOUS
10
166.051
20
-121.739
11
166.099
21
-121.643
0
LINE
8
BLACK
6
CONTINUOUS
10
166.099
20
-121.643
11
166.194
21
-121.596
0
LINE
8
BLACK
6
CONTINUOUS
10
166.194
20
-121.596
11
166.385
21
-121.596
0
LINE
8
BLACK
6
CONTINUOUS
10
166.385
20
-121.596
11
166.48
21
-121.643
0
LINE
8
BLACK
6
CONTINUOUS
10
166.48
20
-121.643
11
166.528
21
-121.739
0
LINE
8
BLACK
6
CONTINUOUS
10
166.528
20
-121.739
11
166.528
21
-121.834
0
LINE
8
BLACK
6
CONTINUOUS
10
166.528
20
-121.834
11
166.051
21
-121.929
0
LINE
8
BLACK
6
CONTINUOUS
10
167.099
20
-122.262
11
167.004
21
-122.215
0
LINE
8
BLACK
6
CONTINUOUS
10
167.004
20
-122.215
11
166.956
21
-122.12
0
LINE
8
BLACK
6
CONTINUOUS
10
166.956
20
-122.12
11
166.956
21
-121.262
0
LINE
8
BLACK
6
CONTINUOUS
10
167.861
20
-122.215
11
167.766
21
-122.262
0
LINE
8
BLACK
6
CONTINUOUS
10
167.766
20
-122.262
11
167.575
21
-122.262
0
LINE
8
BLACK
6
CONTINUOUS
10
167.575
20
-122.262
11
167.48
21
-122.215
0
LINE
8
BLACK
6
CONTINUOUS
10
167.48
20
-122.215
11
167.432
21
-122.12
0
LINE
8
BLACK
6
CONTINUOUS
10
167.432
20
-122.12
11
167.432
21
-121.739
0
LINE
8
BLACK
6
CONTINUOUS
10
167.432
20
-121.739
11
167.48
21
-121.643
0
LINE
8
BLACK
6
CONTINUOUS
10
167.48
20
-121.643
11
167.575
21
-121.596
0
LINE
8
BLACK
6
CONTINUOUS
10
167.575
20
-121.596
11
167.766
21
-121.596
0
LINE
8
BLACK
6
CONTINUOUS
10
167.766
20
-121.596
11
167.861
21
-121.643
0
LINE
8
BLACK
6
CONTINUOUS
10
167.861
20
-121.643
11
167.909
21
-121.739
0
LINE
8
BLACK
6
CONTINUOUS
10
167.909
20
-121.739
11
167.909
21
-121.834
0
LINE
8
BLACK
6
CONTINUOUS
10
167.909
20
-121.834
11
167.432
21
-121.929
0
LINE
8
BLACK
6
CONTINUOUS
10
168.766
20
-122.215
11
168.67
21
-122.262
0
LINE
8
BLACK
6
CONTINUOUS
10
168.67
20
-122.262
11
168.48
21
-122.262
0
LINE
8
BLACK
6
CONTINUOUS
10
168.48
20
-122.262
11
168.385
21
-122.215
0
LINE
8
BLACK
6
CONTINUOUS
10
168.385
20
-122.215
11
168.337
21
-122.167
0
LINE
8
BLACK
6
CONTINUOUS
10
168.337
20
-122.167
11
168.29
21
-122.072
0
LINE
8
BLACK
6
CONTINUOUS
10
168.29
20
-122.072
11
168.29
21
-121.786
0
LINE
8
BLACK
6
CONTINUOUS
10
168.29
20
-121.786
11
168.337
21
-121.691
0
LINE
8
BLACK
6
CONTINUOUS
10
168.337
20
-121.691
11
168.385
21
-121.643
0
LINE
8
BLACK
6
CONTINUOUS
10
168.385
20
-121.643
11
168.48
21
-121.596
0
LINE
8
BLACK
6
CONTINUOUS
10
168.48
20
-121.596
11
168.67
21
-121.596
0
LINE
8
BLACK
6
CONTINUOUS
10
168.67
20
-121.596
11
168.766
21
-121.643
0
LINE
8
BLACK
6
CONTINUOUS
10
169.051
20
-121.596
11
169.432
21
-121.596
0
LINE
8
BLACK
6
CONTINUOUS
10
169.194
20
-121.262
11
169.194
21
-122.12
0
LINE
8
BLACK
6
CONTINUOUS
10
169.194
20
-122.12
11
169.242
21
-122.215
0
LINE
8
BLACK
6
CONTINUOUS
10
169.242
20
-122.215
11
169.337
21
-122.262
0
LINE
8
BLACK
6
CONTINUOUS
10
169.337
20
-122.262
11
169.432
21
-122.262
0
LINE
8
BLACK
6
CONTINUOUS
10
169.909
20
-122.262
11
169.813
21
-122.215
0
LINE
8
BLACK
6
CONTINUOUS
10
169.813
20
-122.215
11
169.766
21
-122.167
0
LINE
8
BLACK
6
CONTINUOUS
10
169.766
20
-122.167
11
169.718
21
-122.072
0
LINE
8
BLACK
6
CONTINUOUS
10
169.718
20
-122.072
11
169.718
21
-121.786
0
LINE
8
BLACK
6
CONTINUOUS
10
169.718
20
-121.786
11
169.766
21
-121.691
0
LINE
8
BLACK
6
CONTINUOUS
10
169.766
20
-121.691
11
169.813
21
-121.643
0
LINE
8
BLACK
6
CONTINUOUS
10
169.813
20
-121.643
11
169.909
21
-121.596
0
LINE
8
BLACK
6
CONTINUOUS
10
169.909
20
-121.596
11
170.051
21
-121.596
0
LINE
8
BLACK
6
CONTINUOUS
10
170.051
20
-121.596
11
170.147
21
-121.643
0
LINE
8
BLACK
6
CONTINUOUS
10
170.147
20
-121.643
11
170.194
21
-121.691
0
LINE
8
BLACK
6
CONTINUOUS
10
170.194
20
-121.691
11
170.242
21
-121.786
0
LINE
8
BLACK
6
CONTINUOUS
10
170.242
20
-121.786
11
170.242
21
-122.072
0
LINE
8
BLACK
6
CONTINUOUS
10
170.242
20
-122.072
11
170.194
21
-122.167
0
LINE
8
BLACK
6
CONTINUOUS
10
170.194
20
-122.167
11
170.147
21
-122.215
0
LINE
8
BLACK
6
CONTINUOUS
10
170.147
20
-122.215
11
170.051
21
-122.262
0
LINE
8
BLACK
6
CONTINUOUS
10
170.051
20
-122.262
11
169.909
21
-122.262
0
LINE
8
BLACK
6
CONTINUOUS
10
170.67
20
-122.262
11
170.67
21
-121.596
0
LINE
8
BLACK
6
CONTINUOUS
10
170.67
20
-121.786
11
170.718
21
-121.691
0
LINE
8
BLACK
6
CONTINUOUS
10
170.718
20
-121.691
11
170.766
21
-121.643
0
LINE
8
BLACK
6
CONTINUOUS
10
170.766
20
-121.643
11
170.861
21
-121.596
0
LINE
8
BLACK
6
CONTINUOUS
10
170.861
20
-121.596
11
170.956
21
-121.596
0
LINE
8
BLACK
6
CONTINUOUS
10
170.647
20
-118.415
11
170.79
21
-118.462
0
LINE
8
BLACK
6
CONTINUOUS
10
170.79
20
-118.462
11
171.028
21
-118.462
0
LINE
8
BLACK
6
CONTINUOUS
10
171.028
20
-118.462
11
171.123
21
-118.415
0
LINE
8
BLACK
6
CONTINUOUS
10
171.123
20
-118.415
11
171.17
21
-118.367
0
LINE
8
BLACK
6
CONTINUOUS
10
171.17
20
-118.367
11
171.218
21
-118.272
0
LINE
8
BLACK
6
CONTINUOUS
10
171.218
20
-118.272
11
171.218
21
-118.177
0
LINE
8
BLACK
6
CONTINUOUS
10
171.218
20
-118.177
11
171.17
21
-118.081
0
LINE
8
BLACK
6
CONTINUOUS
10
171.17
20
-118.081
11
171.123
21
-118.034
0
LINE
8
BLACK
6
CONTINUOUS
10
171.123
20
-118.034
11
171.028
21
-117.986
0
LINE
8
BLACK
6
CONTINUOUS
10
171.028
20
-117.986
11
170.837
21
-117.939
0
LINE
8
BLACK
6
CONTINUOUS
10
170.837
20
-117.939
11
170.742
21
-117.891
0
LINE
8
BLACK
6
CONTINUOUS
10
170.742
20
-117.891
11
170.694
21
-117.843
0
LINE
8
BLACK
6
CONTINUOUS
10
170.694
20
-117.843
11
170.647
21
-117.748
0
LINE
8
BLACK
6
CONTINUOUS
10
170.647
20
-117.748
11
170.647
21
-117.653
0
LINE
8
BLACK
6
CONTINUOUS
10
170.647
20
-117.653
11
170.694
21
-117.558
0
LINE
8
BLACK
6
CONTINUOUS
10
170.694
20
-117.558
11
170.742
21
-117.51
0
LINE
8
BLACK
6
CONTINUOUS
10
170.742
20
-117.51
11
170.837
21
-117.462
0
LINE
8
BLACK
6
CONTINUOUS
10
170.837
20
-117.462
11
171.075
21
-117.462
0
LINE
8
BLACK
6
CONTINUOUS
10
171.075
20
-117.462
11
171.218
21
-117.51
0
LINE
8
BLACK
6
CONTINUOUS
10
171.551
20
-117.462
11
171.79
21
-118.462
0
LINE
8
BLACK
6
CONTINUOUS
10
171.79
20
-118.462
11
171.98
21
-117.748
0
LINE
8
BLACK
6
CONTINUOUS
10
171.98
20
-117.748
11
172.17
21
-118.462
0
LINE
8
BLACK
6
CONTINUOUS
10
172.17
20
-118.462
11
172.409
21
-117.462
0
LINE
8
BLACK
6
CONTINUOUS
10
173.313
20
-118.462
11
172.742
21
-118.462
0
LINE
8
BLACK
6
CONTINUOUS
10
173.028
20
-118.462
11
173.028
21
-117.462
0
LINE
8
BLACK
6
CONTINUOUS
10
173.028
20
-117.462
11
172.932
21
-117.605
0
LINE
8
BLACK
6
CONTINUOUS
10
172.932
20
-117.605
11
172.837
21
-117.7
0
LINE
8
BLACK
6
CONTINUOUS
10
172.837
20
-117.7
11
172.742
21
-117.748
0
LINE
8
BLACK
6
CONTINUOUS
10
166.238
20
-77.4324
11
166.428
21
-77.4324
0
LINE
8
BLACK
6
CONTINUOUS
10
166.428
20
-77.4324
11
166.523
21
-77.48
0
LINE
8
BLACK
6
CONTINUOUS
10
166.523
20
-77.48
11
166.619
21
-77.5752
0
LINE
8
BLACK
6
CONTINUOUS
10
166.619
20
-77.5752
11
166.666
21
-77.7657
0
LINE
8
BLACK
6
CONTINUOUS
10
166.666
20
-77.7657
11
166.666
21
-78.099
0
LINE
8
BLACK
6
CONTINUOUS
10
166.666
20
-78.099
11
166.619
21
-78.2895
0
LINE
8
BLACK
6
CONTINUOUS
10
166.619
20
-78.2895
11
166.523
21
-78.3848
0
LINE
8
BLACK
6
CONTINUOUS
10
166.523
20
-78.3848
11
166.428
21
-78.4324
0
LINE
8
BLACK
6
CONTINUOUS
10
166.428
20
-78.4324
11
166.238
21
-78.4324
0
LINE
8
BLACK
6
CONTINUOUS
10
166.238
20
-78.4324
11
166.142
21
-78.3848
0
LINE
8
BLACK
6
CONTINUOUS
10
166.142
20
-78.3848
11
166.047
21
-78.2895
0
LINE
8
BLACK
6
CONTINUOUS
10
166.047
20
-78.2895
11
166
21
-78.099
0
LINE
8
BLACK
6
CONTINUOUS
10
166
20
-78.099
11
166
21
-77.7657
0
LINE
8
BLACK
6
CONTINUOUS
10
166
20
-77.7657
11
166.047
21
-77.5752
0
LINE
8
BLACK
6
CONTINUOUS
10
166.047
20
-77.5752
11
166.142
21
-77.48
0
LINE
8
BLACK
6
CONTINUOUS
10
166.142
20
-77.48
11
166.238
21
-77.4324
0
LINE
8
BLACK
6
CONTINUOUS
10
167.571
20
-78.4324
11
167.095
21
-78.4324
0
LINE
8
BLACK
6
CONTINUOUS
10
167.095
20
-78.4324
11
167.095
21
-77.4324
0
LINE
8
BLACK
6
CONTINUOUS
10
167.904
20
-77.9086
11
168.238
21
-77.9086
0
LINE
8
BLACK
6
CONTINUOUS
10
168.38
20
-78.4324
11
167.904
21
-78.4324
0
LINE
8
BLACK
6
CONTINUOUS
10
167.904
20
-78.4324
11
167.904
21
-77.4324
0
LINE
8
BLACK
6
CONTINUOUS
10
167.904
20
-77.4324
11
168.38
21
-77.4324
0
LINE
8
BLACK
6
CONTINUOUS
10
168.809
20
-78.4324
11
168.809
21
-77.4324
0
LINE
8
BLACK
6
CONTINUOUS
10
168.809
20
-77.4324
11
169.047
21
-77.4324
0
LINE
8
BLACK
6
CONTINUOUS
10
169.047
20
-77.4324
11
169.19
21
-77.48
0
LINE
8
BLACK
6
CONTINUOUS
10
169.19
20
-77.48
11
169.285
21
-77.5752
0
LINE
8
BLACK
6
CONTINUOUS
10
169.285
20
-77.5752
11
169.333
21
-77.6705
0
LINE
8
BLACK
6
CONTINUOUS
10
169.333
20
-77.6705
11
169.38
21
-77.861
0
LINE
8
BLACK
6
CONTINUOUS
10
169.38
20
-77.861
11
169.38
21
-78.0038
0
LINE
8
BLACK
6
CONTINUOUS
10
169.38
20
-78.0038
11
169.333
21
-78.1943
0
LINE
8
BLACK
6
CONTINUOUS
10
169.333
20
-78.1943
11
169.285
21
-78.2895
0
LINE
8
BLACK
6
CONTINUOUS
10
169.285
20
-78.2895
11
169.19
21
-78.3848
0
LINE
8
BLACK
6
CONTINUOUS
10
169.19
20
-78.3848
11
169.047
21
-78.4324
0
LINE
8
BLACK
6
CONTINUOUS
10
169.047
20
-78.4324
11
168.809
21
-78.4324
  0
ENDSEC
  0
EOF
